Music_TitleScreen:
	channel_count 2
	channel 1, Music_TitleScreen_Ch1
	channel 2, Music_TitleScreen_Ch2

Music_TitleScreen_Ch1:
	volume 7, 7
	duty_cycle 2
	note_type 12, 6, 7
	tempo 188
	vibrato 0, 0, 0
	octave 4
	note G_, 4
	octave 3
	note B_, 2
	note B_, 2
	octave 4
	note D_, 8
	note C_, 6
	note F_, 2
	note F_, 4
	note F_, 1
	note E_, 2
	note D#, 1
	note D_, 8
	note F_, 6
	note E_, 1
	note D#, 1
	note D_, 8
	note D_, 6
	octave 3
	note B_, 2
	octave 4
	note D_, 8
	note A_, 6
	note F_, 6
	note C_, 1
	note C_, 3
	note D_, 8
	note F_, 3
	rest 5
	note D_, 9
	rest 1
	octave 3
	note B_, 2
	octave 4
	note C_, 2
	note D_, 2
	octave 3
	note G_, 2
	rest 2
	octave 4
	note D_, 2
	octave 3
	note B_, 2
	octave 4
	note D_, 2
	note D_, 1
	rest 1
	octave 3
	note G_, 2
	octave 4
	note D_, 1
	rest 1
	note D_, 6
	note F_, 2
	note F_, 4
	note F_, 1
	note E_, 2
	note D#, 1
	note D_, 4
	note D_, 2
	rest 2
	note F_, 6
	note E_, 1
	note D#, 1
	note D_, 4
	note D_, 2
	octave 3
	note G_, 4
	octave 4
	note D_, 1
	rest 5
	note D_, 4
	note D_, 2
	octave 3
	note B_, 2
	octave 4
	note D_, 2
	note D_, 1
	rest 1
	octave 3
	note G_, 2
	octave 4
	note D_, 1
	rest 1
	octave 3
	note F_, 2
	rest 2
	octave 2
	note A_, 6
	rest 2
	octave 4
	note G_, 6
	note G_, 3
	rest 1
	note A#, 2
	note G_, 8
	note A_, 8
	note A#, 6
	note F_, 14
	note D_, 2
	octave 3
	note A#, 2
	octave 4
	note A#, 4
	note B_, 4
	octave 5
	note C_, 6
	octave 4
	note G_, 4
	octave 3
	note G_, 1
	note F_, 1
	octave 4
	note F_, 4
	octave 3
	note G_, 1
	note F_, 1
	octave 4
	note E_, 6
	note C_, 2
	octave 3
	note G_, 1
	rest 1
	octave 4
	note C#, 1
	rest 1
	octave 3
	note G_, 1
	rest 1
	octave 4
	note C_, 3
	rest 1
	note D_, 8
	note D_, 6
	note D_, 2
	note F_, 13
	rest 7
	note G_, 4
	rest 4
	note G_, 2
	rest 2
	note G_, 2
	rest 2
	octave 3
	note B_, 1
	note B_, 2
	note B_, 1
	octave 4
	note G_, 2
	octave 3
	sound_ret

Music_TitleScreen_Ch2:
	duty_cycle 2
	note_type 12, 6, 7
	vibrato 0, 2, 3
	octave 3
	note G_, 2
	rest 2
	note D_, 2
	note G_, 2
	note G_, 2
	note B_, 1
	rest 1
	note G_, 2
	note B_, 1
	rest 1
	note F_, 2
	rest 2
	note F_, 2
	note F_, 4
	note F_, 1
	rest 3
	note C_, 1
	rest 1
	note G_, 2
	rest 2
	note G_, 2
	note G_, 4
	note G_, 1
	rest 1
	note G_, 2
	note G_, 1
	rest 1
	note G_, 2
	rest 2
	note G_, 2
	note G_, 4
	note G_, 1
	rest 1
	note G_, 2
	note G_, 1
	rest 1
	note G_, 2
	rest 2
	note D_, 2
	note G_, 4
	note D_, 1
	rest 1
	note G_, 2
	note D_, 1
	rest 1
	note F_, 2
	rest 2
	note C_, 2
	rest 2
	octave 4
	note E_, 3
	rest 1
	octave 3
	note F_, 2
	note C_, 1
	rest 1
	note B_, 8
	rest 2
	note D_, 1
	rest 1
	note G_, 2
	note D_, 1
	rest 1
	note G_, 2
	rest 2
	note D_, 2
	rest 4
	note D_, 1
	rest 1
	note G_, 2
	note D_, 1
	rest 7
	note G_, 2
	note G_, 2
	note D_, 1
	rest 5
	note F_, 2
	rest 2
	octave 4
	note C_, 2
	octave 3
	note F_, 4
	octave 4
	note C_, 1
	rest 5
	octave 3
	note G_, 2
	octave 4
	note D_, 1
	rest 1
	octave 3
	note G_, 2
	octave 4
	note D_, 1
	rest 1
	octave 3
	note G_, 2
	rest 2
	note G_, 2
	rest 2
	octave 4
	note C_, 3
	rest 1
	octave 3
	note G_, 2
	octave 4
	note D_, 1
	rest 1
	octave 3
	note G_, 2
	rest 2
	octave 2
	note B_, 2
	octave 3
	note G_, 4
	note D_, 1
	rest 3
	octave 2
	note B_, 1
	rest 11
	note A_, 2
	octave 4
	note C_, 6
	note C_, 3
	rest 1
	note F_, 2
	note D_, 8
	note E_, 8
	note F_, 2
	octave 3
	note F_, 1
	rest 1
	note B_, 2
	octave 4
	note D_, 2
	note D_, 4
	note D_, 2
	octave 3
	note A#, 4
	octave 4
	note D_, 1
	rest 1
	note E_, 4
	note D_, 4
	octave 3
	note F_, 2
	rest 2
	octave 4
	note G_, 4
	note F_, 4
	note E_, 6
	note C_, 4
	octave 3
	note E_, 1
	rest 1
	octave 4
	note C_, 1
	octave 3
	note A_, 1
	note A#, 1
	octave 4
	note C_, 1
	note C_, 2
	rest 2
	octave 3
	note G_, 2
	octave 4
	note C_, 2
	octave 3
	note A_, 1
	rest 3
	note B_, 2
	rest 4
	note B_, 2
	note A#, 6
	rest 2
	octave 4
	note C_, 6
	note C_, 2
	note D#, 4
	rest 2
	note F_, 2
	note D_, 4
	note D_, 4
	rest 4
	note D_, 2
	rest 2
	note D_, 2
	rest 2
	octave 3
	note G_, 1
	note G_, 2
	note G_, 1
	octave 4
	note D_, 2
	octave 3
	sound_ret
