Music_OrangeTitle:
	musicheader 4, 1, Music_OrangeTitle_Ch1
	musicheader 1, 2, Music_OrangeTitle_Ch2
	musicheader 1, 3, Music_OrangeTitle_Ch3
	musicheader 1, 4, Music_OrangeTitle_Ch4

Music_OrangeTitle_Ch1:
	tempo $93
	volume $77
	stereopanning $f0
	dutycycle 1
	vibrato $00, $13
	octave 4
	notetype $C, $43
	note G_, 1
	note __, 1
	octave 3
	note B_, 1
	note __, 1
	octave 4
	note D_, 1
	note __, 1
	octave 5
	note C_, 1
	note __, 1
	stereopanning $f
	intensity $27
	note D_, 1
	note __, 1
	note C_, 1
	note __, 1
	octave 4
	note G_, 1
	note __, 1
	note D_, 1
	note __, 1
	intensity $43
	note A_, 1
	note __, 1
	octave 5
	note C#, 1
	note __, 1
	octave 4
	note E_, 1
	note __, 1
	octave 5
	note C#, 1
	note __, 1
	stereopanning $f0
	intensity $27
	note E_, 1
	note __, 1
	note C#, 1
	note __, 1
	octave 4
	note A_, 1
	note __, 1
	note E_, 1
	note __, 1
	intensity $43
	note G#, 1
	note __, 1
	note D#, 1
	note __, 1
	note F#, 1
	note __, 1
	octave 5
	note C#, 1
	note __, 1
	stereopanning $f
	intensity $27
	note D#, 1
	note __, 1
	octave 4
	note A#, 1
	note __, 1
	note G#, 1
	note __, 1
	note D#, 1
	note __, 1
	intensity $43
	note G_, 1
	note __, 1
	note D_, 1
	note __, 1
	note B_, 1
	note __, 1
	note G_, 1
	note __, 1
	stereopanning $f0
	intensity $27
	octave 5
	note D_, 1
	note __, 1
	octave 4
	note B_, 1
	note __, 1
	note G_, 1
	note __, 1
	note D_, 1
	note __, 1
	stereopanning $77
	intensity $52
	vibrato $00, $00
	note G_, 1
	note __, 1
	octave 3
	note B_, 1
	note __, 1
	octave 4
	note D_, 1
	note __, 1
	octave 5
	note C_, 1
	note __, 1
	note D_, 1
	note __, 1
	note C_, 1
	note __, 1
	octave 4
	note G_, 1
	note __, 1
	note D_, 1
	note __, 1
	note A_, 1
	note __, 1
	octave 5
	note C#, 1
	note __, 1
	octave 4
	note E_, 1
	note __, 1
	octave 5
	note C#, 1
	note __, 1
	note E_, 1
	note __, 1
	note C#, 1
	note __, 1
	octave 4
	note A_, 1
	note __, 1
	note E_, 1
	note __, 1
	note G#, 1
	note __, 1
	note D#, 1
	note __, 1
	note F#, 1
	note __, 1
	octave 5
	note C#, 1
	note __, 1
	note D#, 1
	note __, 1
	octave 4
	note A#, 1
	note __, 1
	note G#, 1
	note __, 1
	note D#, 1
	note __, 1
	octave 5
	note D#, 1
	note __, 1
	note C#, 1
	note __, 1
	octave 4
	note A#, 1
	note __, 1
	note G#, 1
	note __, 1
	octave 3
	note B_, 1
	note __, 1
	octave 4
	note B_, 1
	note __, 1
	octave 5
	note C#, 1
	note __, 1
	note D_, 1
	note __, 1
	intensity $72
	note D#, 1
	note __, 1
	octave 4
	note F#, 1
	note __, 1
	note B_, 1
	note __, 1
	octave 5
	note D#, 1
	note __, 1
	octave 4
	note F#, 1
	note __, 1
	note B_, 1
	note __, 1
	octave 5
	note D#, 1
	note __, 1
	octave 4
	note B_, 1
	note __, 1
	octave 5
	note C#, 1
	note __, 1
	octave 4
	note C#, 1
	note __, 1
	intensity $53
	note G#, 1
	note __, 1
	note C#, 1
	note __, 1
	intensity $74
	octave 3
	note F_, 2
	note G#, 4
	octave 4
	note C#, 2
	intensity $62
	octave 5
	note F#, 1
	note E_, 1
	note D_, 1
	intensity $43
	octave 4
	note D_, 1
	note F#, 1
	note A_, 1
	octave 5
	note C_, 1
	note D_, 1
	intensity $61
	note A#, 1
	note A_, 1
	note G#, 1
	note F#, 1
	intensity $44
	note E_, 1
	octave 4
	note A_, 1
	note D_, 1
	notetype $6, $62
	note F#, 1
	note A#, 1
	octave 5
	note E_, 1
	note D_, 1
	octave 4
	note B_, 1
	note G#, 1
	octave 5
	note D_, 1
	octave 4
	note B_, 1
	note G#, 1
	note E_, 1
	intensity $52
	note B_, 1
	note G#, 1
	note E_, 1
	note D_, 1
	intensity $42
	note G#, 1
	note E_, 1
	note D_, 1
	octave 3
	note B_, 1
	octave 4
	note D_, 1
	note E_, 1
	note G#, 1
	note B_, 1
	intensity $52
	note G#, 1
	note B_, 1
	octave 5
	note D_, 1
	note E_, 1
	intensity $72
	octave 4
	note B_, 1
	octave 5
	note D_, 1
	note E_, 1
	note G#, 1
	intensity $62
	octave 4
	note B_, 1
	octave 5
	note D_, 1
	note E_, 1
	note G#, 1
	intensity $52
	octave 4
	note B_, 1
	octave 5
	note D_, 1
	note E_, 1
	note G#, 1
	intensity $42
	octave 4
	note B_, 1
	octave 5
	note D_, 1
	note E_, 1
	note G#, 1
	intensity $32
	octave 4
	note G#, 1
	note B_, 1
	octave 5
	note D_, 1
	note E_, 1
	intensity $34
	octave 4
	note E_, 2
	note G#, 2
	note B_, 2
	octave 5
	note D_, 2
	octave 4
	note D_, 2
	note E_, 2
	note G#, 2
	note B_, 2
	intensity $36
	octave 3
	note G#, 3
	note B_, 3
	octave 4
	note E_, 3
	intensity $47
	note G#, 8
	note __, 16
	note __, 3
	intensity $87
	octave 2
	note G#, 12
	note G#, 4
	octave 3
	note C#, 16
	octave 2
	note F#, 12
	note F#, 4
	note B_, 12
	note F#, 4
	note A#, 12
	note A#, 4
	note F_, 16
	note __, 4
	intensity $A2
	note A_, 2
	note A_, 2
	note E_, 2
	note A_, 2
	note __, 4
	note B_, 2
	note B_, 2
	note F#, 2
	note B_, 2
	note __, 4
	note F#, 2
	note G#, 2
	intensity $87
	octave 3
	note F_, 12
	note F_, 4
	note C#, 16
	intensity $67
	note D#, 12
	intensity $87
	note D#, 4
	octave 2
	note B_, 6
	octave 3
	note D#, 6
	note F#, 4
	dutycycle 3
	intensity $52
	octave 5
	note A_, 2
	octave 3
	note A_, 2
	octave 5
	note C#, 2
	octave 3
	note A_, 2
	octave 4
	note A_, 2
	note __, 2
	octave 5
	note E_, 2
	note A_, 2
	note __, 2
	note C#, 2
	octave 4
	note A_, 2
	note E_, 2
	octave 5
	note C#, 2
	note E_, 2
	note C#, 2
	note A_, 2
	note B_, 2
	octave 4
	note D#, 2
	octave 5
	note D#, 2
	octave 4
	note D#, 2
	note B_, 2
	note __, 2
	octave 5
	note D#, 2
	note B_, 2
	note __, 2
	note D#, 2
	octave 4
	note B_, 2
	note F#, 2
	octave 5
	note D#, 2
	note F#, 2
	octave 4
	note B_, 2
	octave 5
	note B_, 2
	intensity $A4
	note C#, 4
	dutycycle 0
	octave 3
	note E_, 8
	note __, 4
	note E_, 8
	note __, 6
	note D#, 2
	intensity $87
	note E_, 12
	intensity $84
	note E_, 8
	note D#, 8
	intensity $84
	note C#, 4
	note __, 4
	endchannel

Music_OrangeTitle_Ch2:
	notetype $C, $00
	note __, 4
	dutycycle 2
	intensity $3C
	vibrato $00, $64
	octave 2
	note G_, 2
	intensity $85
	note G_, 3
	note __, 1
	intensity $3C
	note G_, 2
	intensity $85
	note G_, 3
	note __, 1
	intensity $3C
	note D_, 2
	intensity $85
	note D_, 3
	note __, 1
	intensity $3C
	note A_, 2
	intensity $85
	note A_, 3
	note __, 1
	intensity $3C
	note E_, 2
	intensity $85
	note E_, 3
	note __, 3
	intensity $3C
	note G#, 2
	intensity $85
	note G#, 3
	note __, 1
	intensity $3C
	note G#, 2
	intensity $85
	note G#, 3
	note __, 1
	intensity $3C
	note D_, 2
	intensity $85
	note D_, 3
	note __, 1
	intensity $3C
	note G_, 2
	intensity $85
	note G_, 3
	note __, 1
	intensity $3C
	note D_, 2
	intensity $85
	note D_, 2
	intensity $78
	vibrato $00, $35
	octave 3
	note B_, 6
	intensity $87
	note B_, 8
	octave 4
	note C#, 1
	octave 3
	note B_, 1
	intensity $88
	octave 4
	note C#, 2
	intensity $87
	note C#, 6
	octave 3
	note B_, 2
	note A_, 6
	intensity $78
	octave 4
	note C_, 6
	intensity $87
	note C_, 8
	note C#, 1
	note D_, 1
	intensity $88
	note D#, 4
	intensity $87
	note D#, 8
	note F_, 4
	intensity $97
	note D#, 6
	octave 3
	note B_, 2
	octave 4
	note D#, 1
	note __, 1
	intensity $94
	note F#, 4
	intensity $97
	note F_, 1
	note D#, 1
	note C#, 6
	octave 3
	note G#, 2
	octave 4
	note D#, 1
	note __, 1
	intensity $94
	note F_, 4
	intensity $97
	note D#, 1
	note F_, 1
	note F#, 6
	note E_, 2
	note D_, 2
	intensity $94
	note F#, 4
	intensity $97
	note G_, 2
	note G#, 6
	note F#, 2
	note G#, 1
	note __, 1
	intensity $4D
	note B_, 4
	intensity $98
	note B_, 2
	intensity $97
	note B_, 12
	note __, 12
	dutycycle 3
	intensity $3F
	octave 2
	note B_, 8
	intensity $B4
	octave 3
	note C#, 6
	note F_, 2
	intensity $B7
	note G#, 8
	intensity $1F
	octave 2
	note B_, 4
	intensity $74
	note B_, 4
	intensity $A7
	octave 3
	note B_, 6
	note A#, 1
	note A_, 1
	note G#, 6
	intensity $A4
	note C#, 2
	intensity $98
	note C#, 2
	intensity $97
	note C#, 2
	intensity $8F
	note C#, 4
	note __, 2
	intensity $B2
	note C#, 1
	note C#, 1
	octave 2
	note B_, 1
	octave 3
	note C#, 1
	note __, 2
	note D#, 1
	note D#, 1
	note E_, 1
	note D#, 1
	note __, 2
	note D#, 1
	octave 2
	note B_, 1
	intensity $A4
	octave 4
	note C#, 6
	note F_, 2
	intensity $A7
	note G#, 8
	intensity $3F
	note F#, 3
	intensity $64
	note F#, 3
	intensity $A4
	octave 3
	note B_, 2
	octave 4
	note F#, 3
	note F_, 3
	note F#, 2
	intensity $A7
	note E_, 6
	note C#, 6
	note E_, 4
	note D#, 6
	note E_, 1
	note F_, 1
	note F#, 6
	note G#, 2
	dutycycle 0
	intensity $84
	octave 3
	note C#, 2
	intensity $A4
	note G#, 4
	note C#, 2
	intensity $A7
	note A#, 6
	intensity $A4
	note G#, 1
	note A#, 1
	intensity $A7
	note B_, 2
	note C#, 2
	note B_, 2
	note A#, 4
	note A_, 4
	intensity $A4
	note G#, 2
	dutycycle 3
	intensity $2F
	note F_, 3
	intensity $64
	note F_, 3
	intensity $2F
	note C#, 3
	intensity $64
	note C#, 3
	intensity $2F
	note G_, 3
	intensity $64
	note G_, 3
	intensity $2F
	note E_, 3
	intensity $64
	note E_, 3
	intensity $3F
	note C#, 5
	intensity $77
	note C#, 7
	intensity $4D
	note D_, 2
	intensity $88
	note D_, 4
	intensity $87
	note D_, 6
	endchannel

Music_OrangeTitle_Ch3:
	notetype $C, $00
	note __, 4
	dutycycle 3
	intensity $23
	octave 2
	note G_, 12
	note __, 4
	note G_, 10
	note __, 6
	note G_, 12
	note __, 4
	note G_, 10
	note __, 2
	note G_, 4
	octave 3
	note D_, 4
	note D_, 2
	note G_, 4
	note D_, 2
	octave 2
	note A_, 4
	octave 3
	note A_, 4
	note A_, 2
	note C#, 2
	octave 4
	note C#, 2
	octave 3
	note A_, 2
	octave 2
	note G#, 4
	octave 3
	note D#, 6
	note A#, 4
	note G#, 2
	octave 2
	note B_, 4
	octave 3
	note F#, 4
	note F#, 2
	octave 2
	note B_, 2
	octave 3
	note B_, 2
	note C#, 2
	dutycycle 6
	intensity $26
	octave 2
	note B_, 2
	octave 3
	note D#, 2
	octave 2
	note F#, 2
	note B_, 2
	octave 3
	note D#, 2
	octave 2
	note F#, 2
	note B_, 2
	octave 3
	note D#, 2
	note C#, 2
	note F_, 2
	octave 2
	note G#, 2
	octave 3
	note C#, 2
	note F_, 2
	octave 2
	note G#, 2
	octave 3
	note C#, 2
	note G#, 2
	note D_, 2
	note F#, 2
	octave 2
	note A_, 2
	octave 3
	note D_, 2
	note A_, 2
	note B_, 2
	note F#, 2
	note D_, 1
	octave 2
	note B_, 1
	octave 3
	note E_, 2
	note G#, 2
	note B_, 2
	octave 4
	note D_, 2
	octave 3
	note G#, 2
	intensity $36
	octave 4
	note E_, 12
	note __, 16
	note __, 10
	dutycycle 9
	intensity $19
	octave 3
	note C#, 1
	note __, 2
	note C#, 1
	note __, 2
	note C#, 1
	note __, 2
	octave 2
	note G#, 1
	octave 3
	note C#, 1
	note __, 1
	octave 2
	note G#, 1
	note F_, 1
	octave 3
	note C#, 1
	note __, 1
	octave 2
	note B_, 1
	note __, 2
	note B_, 1
	note __, 2
	note B_, 1
	note __, 2
	note F_, 1
	note B_, 1
	note __, 1
	note F_, 1
	octave 3
	note D#, 1
	octave 2
	note B_, 1
	note __, 1
	note A#, 1
	note __, 2
	note A#, 1
	note __, 2
	note A#, 1
	note __, 2
	note E_, 1
	note A#, 1
	note __, 1
	note E_, 1
	note A#, 1
	note E_, 1
	note __, 1
	note A_, 1
	note __, 2
	note E_, 2
	note __, 1
	note A_, 1
	note __, 1
	note B_, 1
	note __, 1
	note B_, 1
	note F#, 2
	note __, 1
	note B_, 1
	note __, 1
	octave 3
	note C#, 1
	note __, 2
	note C#, 1
	note __, 2
	note C#, 1
	note __, 2
	octave 2
	note G#, 1
	octave 3
	note C#, 1
	note __, 1
	octave 2
	note G#, 1
	note F_, 1
	octave 3
	note C#, 1
	note __, 1
	octave 2
	note B_, 1
	note __, 2
	note B_, 1
	note __, 2
	note B_, 1
	note __, 2
	note F_, 1
	note B_, 1
	note __, 1
	note F_, 1
	octave 3
	note D#, 1
	octave 2
	note B_, 1
	note __, 1
	note A_, 1
	note __, 1
	note C#, 1
	note A_, 1
	note __, 1
	note D#, 1
	note A_, 1
	octave 3
	note C#, 1
	octave 2
	note A_, 1
	note __, 1
	octave 3
	note C#, 1
	note __, 1
	octave 2
	note D#, 1
	note E_, 1
	note A_, 2
	note B_, 1
	note __, 1
	note D#, 1
	note B_, 1
	note __, 1
	note F_, 1
	note B_, 1
	octave 3
	note D#, 1
	octave 2
	note B_, 1
	note __, 1
	octave 3
	note F#, 1
	octave 2
	note F_, 1
	note B_, 1
	octave 3
	note D#, 1
	octave 2
	note G#, 2
	intensity $29
	octave 3
	note C#, 16
	note E_, 6
	note D#, 6
	note F#, 4
	dutycycle 8
	intensity $38
	note C#, 16
	note C#, 12
	endchannel

Music_OrangeTitle_Ch4:
	notetype $C
	note __, 16
	note __, 16
	note __, 16
	note __, 16
	note __, 16
	note __, 16
	note __, 16
	note __, 16
	note __, 16
	note __, 16
	note __, 16
	note __, 16
	note __, 16
	note __, 8
	togglenoise 2
	notetype $6
	note G_, 1
	note G_, 1
	note G_, 1
	note G_, 1
	note G_, 1
	note G_, 1
	note G_, 1
	note G_, 1
	note B_, 1
	note B_, 1
	note B_, 1
	note B_, 1
	note B_, 1
	note B_, 1
	note B_, 1
	note B_, 1
	note G#, 2
	note __, 4
	note C#, 2
	note __, 2
	note B_, 2
	note D#, 2
	note __, 2
	note B_, 2
	note C#, 2
	note __, 2
	note D#, 2
	note B_, 2
	note D_, 2
	note C#, 2
	note __, 2
	note D#, 2
	note __, 4
	note C#, 2
	note __, 2
	note B_, 2
	note D#, 2
	note __, 2
	note B_, 2
	note C#, 2
	note __, 2
	note D#, 2
	note B_, 2
	note D_, 2
	note C#, 2
	note G_, 2
	note D#, 2
	note __, 4
	note C#, 2
	note __, 2
	note B_, 2
	note D#, 2
	note __, 2
	note B_, 2
	note C#, 2
	note __, 2
	note D#, 2
	note B_, 2
	note D_, 2
	note C#, 2
	note __, 2
	note D#, 2
	note __, 2
	note B_, 2
	note C#, 2
	note __, 2
	note B_, 2
	note D#, 2
	note __, 2
	note C#, 2
	note __, 2
	note B_, 2
	note C#, 2
	note __, 2
	note B_, 2
	note D#, 2
	note G_, 2
	note G#, 2
	note __, 4
	note C#, 2
	note __, 2
	note B_, 2
	note D#, 2
	note __, 2
	note B_, 2
	note C#, 2
	note __, 2
	note D#, 2
	note B_, 2
	note D_, 2
	note C#, 2
	note __, 2
	note D#, 2
	note __, 4
	note C#, 2
	note __, 2
	note B_, 2
	note D#, 2
	note __, 2
	note B_, 2
	note C#, 2
	note __, 2
	note D#, 2
	note B_, 2
	note D_, 2
	note C#, 2
	note G_, 2
	note D_, 2
	note __, 2
	note B_, 2
	note C#, 2
	note __, 2
	note B_, 2
	note D_, 2
	note G_, 2
	note B_, 2
	note __, 2
	note D_, 2
	note G_, 2
	note B_, 2
	note __, 2
	note C#, 2
	note __, 2
	note D_, 2
	note __, 2
	note B_, 2
	note C#, 2
	note __, 2
	note B_, 2
	note D_, 2
	note G_, 2
	note B_, 2
	note __, 2
	note D_, 2
	note G_, 2
	note C#, 2
	note G_, 2
	note C#, 2
	note D_, 2
	note G#, 4
	note __, 4
	endchannel

