Music_OrangeTitle2: ; f7308
	musicheader 4, 1, Music_OrangeTitle2_Ch1
	musicheader 1, 2, Music_OrangeTitle2_Ch2
	musicheader 1, 3, Music_OrangeTitle2_Ch3
	musicheader 1, 4, Music_OrangeTitle2_Ch4

Music_OrangeTitle2_Ch1:
	tempo $5C
	volume $77
	stereopanning $77
	notetype $C, $00
	note __, 4
	dutycycle 3
	intensity $5A
	slidepitchto 1, 5, D#
	octave 3
	note C_, 4
	intensity $83
	octave 5
	note D#, 2
	octave 4
	note D#, 2
	note A#, 2
	octave 5
	note D#, 2
	stereopanning $f0
	intensity $65
	octave 4
	note D#, 2
	note A#, 2
	octave 5
	note D#, 2
	octave 4
	note D#, 2
	stereopanning $77
	intensity $83
	note C#, 2
	note A#, 2
	octave 5
	note C#, 2
	octave 4
	note C#, 2
	stereopanning $f
	intensity $65
	note A#, 2
	note D#, 2
	octave 5
	note C#, 2
	note D#, 2
	stereopanning $77
	intensity $83
	note C_, 2
	octave 4
	note C_, 2
	note D#, 2
	note C_, 2
	stereopanning $f0
	intensity $65
	note G#, 2
	octave 3
	note G#, 2
	octave 4
	note C_, 2
	octave 3
	note D#, 2
	stereopanning $77
	intensity $A4
	note F#, 2
	note D#, 2
	note F#, 4
	note C#, 4
	note D_, 4
	octave 2
	note A#, 6
	octave 3
	note C#, 6
	note D#, 4
	octave 2
	note G#, 6
	octave 3
	note C#, 6
	octave 2
	note A#, 4
	note G#, 6
	octave 3
	note C_, 6
	octave 2
	note G#, 4
	note F#, 6
	note G#, 6
	note B_, 4
	intensity $A2
	note A#, 2
	note A#, 2
	intensity $A7
	octave 3
	note D#, 4
	intensity $A2
	octave 2
	note A#, 2
	note A#, 2
	intensity $A7
	octave 3
	note E_, 4
	intensity $A2
	octave 2
	note A#, 2
	note A#, 2
	intensity $A7
	octave 3
	note F#, 4
	intensity $A2
	octave 2
	note A#, 2
	note A#, 2
	intensity $A7
	octave 3
	note G#, 4
	intensity $2F
	vibrato $00, $33
	note G_, 8
	intensity $97
	note G_, 8
	note F#, 8
	note E_, 8
	endchannel

Music_OrangeTitle2_Ch2:
	notetype $C, $00
	note __, 8
	dutycycle 3
	intensity $D1
	octave 3
	note D#, 2
	note D#, 2
	note D#, 2
	intensity $D7
	note D#, 4
	intensity $D2
	octave 2
	note G_, 2
	note A#, 2
	note G_, 2
	intensity $D1
	octave 3
	note F#, 2
	note F#, 2
	note F#, 2
	intensity $D7
	note F#, 4
	intensity $D2
	octave 2
	note A#, 2
	octave 3
	note C#, 2
	octave 2
	note A#, 2
	intensity $D1
	octave 3
	note G#, 2
	note G#, 2
	note G#, 2
	intensity $D7
	note G#, 4
	intensity $D2
	note C_, 2
	note D#, 2
	note C_, 2
	intensity $D1
	note B_, 2
	note B_, 2
	intensity $C4
	note B_, 4
	octave 4
	note C#, 4
	intensity $B3
	note D_, 4
	intensity $B5
	note D#, 10
	intensity $B4
	octave 3
	note A#, 2
	octave 4
	note D#, 2
	note C#, 2
	octave 3
	note A#, 4
	note G#, 4
	note F#, 4
	note D#, 4
	note G#, 4
	note A#, 2
	note D#, 4
	octave 2
	note A#, 2
	octave 3
	note C#, 2
	note D#, 2
	note F#, 2
	note D#, 2
	note F#, 2
	note G#, 4
	note A#, 2
	note C#, 2
	note D_, 2
	intensity $B2
	note D#, 2
	note D#, 2
	intensity $B7
	note A#, 4
	intensity $B2
	note D#, 2
	note D#, 2
	intensity $B7
	note B_, 4
	intensity $B2
	note D#, 2
	note D#, 2
	intensity $B7
	octave 4
	note C#, 4
	intensity $B2
	octave 3
	note D#, 2
	note D#, 2
	intensity $B7
	octave 4
	note D_, 4
	intensity $3F
	vibrato $00, $24
	note D#, 12
	intensity $A8
	note D#, 8
	intensity $B8
	note D#, 8
	intensity $C8
	note D#, 4
	intensity $C1
	vibrato $00, $00
	octave 5
	note D#, 2
	endchannel

Music_OrangeTitle2_Ch3:
	notetype $C, $00
	note __, 8
	dutycycle 4
	intensity $14
	octave 3
	note D#, 1
	note __, 1
	note D#, 1
	note __, 1
	note D#, 1
	note __, 1
	note D#, 2
	note __, 2
	note D#, 2
	note __, 2
	note D#, 2
	note C#, 1
	note __, 1
	note C#, 1
	note __, 1
	note C#, 1
	note __, 1
	note C#, 2
	note __, 2
	note C#, 2
	note __, 2
	note D#, 2
	note C_, 1
	note __, 1
	note C_, 1
	note __, 1
	note C_, 1
	note __, 1
	note C_, 2
	note __, 2
	note C_, 2
	note __, 2
	note C_, 2
	octave 2
	note B_, 1
	note __, 1
	note B_, 1
	note __, 1
	note B_, 1
	note __, 1
	note B_, 1
	note __, 1
	octave 3
	note C#, 2
	octave 2
	note B_, 2
	octave 3
	note F#, 2
	note E_, 2
	note D#, 1
	note __, 1
	note D#, 1
	note __, 1
	note D#, 1
	note __, 1
	note D#, 2
	note A#, 2
	note D#, 2
	note A#, 2
	note D#, 2
	note C#, 1
	note __, 1
	note C#, 1
	note __, 1
	note C#, 1
	note __, 1
	note C#, 2
	note G#, 2
	note C#, 2
	note A#, 2
	note D#, 2
	note C_, 1
	note __, 1
	note C_, 1
	note __, 1
	note C_, 1
	note __, 1
	note C_, 2
	note F_, 2
	note C_, 2
	note G#, 2
	note C_, 2
	octave 2
	note B_, 1
	note __, 1
	note B_, 1
	note __, 1
	note B_, 1
	note __, 1
	note B_, 1
	note __, 1
	octave 3
	note C#, 2
	octave 2
	note B_, 2
	octave 3
	note F#, 2
	note D_, 2
	note D#, 1
	note __, 1
	note D#, 1
	note __, 1
	note A#, 2
	note D#, 1
	note __, 3
	note D#, 1
	note __, 1
	note A#, 4
	note D#, 1
	note __, 1
	note D#, 1
	note __, 1
	note B_, 2
	note D#, 1
	note __, 3
	note D#, 1
	note __, 1
	octave 4
	note C#, 4
	octave 3
	note A#, 2
	note G_, 2
	note D#, 2
	note A#, 2
	note A_, 2
	note D#, 2
	note C#, 2
	note G_, 2
	note G#, 4
	octave 2
	note B_, 2
	octave 3
	note E_, 2
	note F#, 4
	note E_, 2
	note D_, 2
	note D#, 2
	note __, 2
	endchannel

Music_OrangeTitle2_Ch4:
	togglenoise 2
	notetype $C
	note C#, 1
	note C#, 1
	note C#, 1
	note C#, 1
	note C#, 1
	note C#, 1
	note C#, 1
	note C#, 1
	note A#, 2
	note __, 4
	note A#, 2
	note __, 2
	note D#, 2
	note __, 2
	note G_, 2
	note A#, 2
	note __, 4
	note A#, 2
	note __, 2
	note D#, 2
	note __, 2
	note G_, 2
	note A#, 2
	note __, 4
	note A#, 2
	note __, 2
	note D#, 2
	note G_, 2
	note D#, 2
	note A#, 2
	note __, 2
	note G_, 2
	note A#, 2
	note D#, 2
	note G_, 2
	note A#, 2
	note A_, 2
	note G_, 2
	note B_, 2
	note A_, 2
	note B_, 2
	note C#, 2
	note B_, 2
	note A_, 2
	note B_, 2
	note C#, 2
	note B_, 2
	note A_, 2
	note B_, 2
	note C#, 2
	note B_, 2
	note A_, 2
	note B_, 2
	note C#, 2
	note B_, 2
	note A_, 2
	note B_, 2
	note C#, 2
	note B_, 2
	note A_, 2
	note B_, 2
	note C#, 2
	note B_, 2
	note A_, 2
	note A#, 2
	note B_, 2
	note B_, 2
	note A_, 2
	note G_, 2
	note C#, 2
	note C#, 2
	note A_, 2
	note B_, 2
	note C#, 2
	note C#, 2
	note A_, 2
	note B_, 2
	note C#, 2
	note C#, 2
	note A_, 2
	note B_, 2
	note C#, 2
	note C#, 2
	note A_, 2
	note B_, 2
	note A_, 2
	note B_, 2
	note B_, 2
	note A_, 2
	note C#, 2
	note B_, 2
	note A_, 2
	note B_, 2
	note A_, 2
	note B_, 2
	note B_, 2
	note A_, 2
	note C#, 2
	note B_, 2
	note A_, 2
	note B_, 2
	note __, 2
	endchannel

