Music_ImakuniTheme:
	musicheader 4, 1, Music_ImakuniTheme_Ch1
	musicheader 1, 2, Music_ImakuniTheme_Ch2
	musicheader 1, 3, Music_ImakuniTheme_Ch3
	musicheader 1, 4, Music_ImakuniTheme_Ch4

Music_ImakuniTheme_Ch1:
	tempo $A0
	volume $77
	stereopanning $f
Music_ImakuniTheme_Ch1_loop:
	vibrato $00, $03
	octave 3
	notetype $C, $00
	note C#, 1
	note __, 9
	dutycycle 1
	intensity $B8
	note C#, 1
	note __, 3
	note C#, 1
	note __, 13
	vibrato $00, $83
	note C#, 4
	note __, 10
	vibrato $00, $03
	note C#, 1
	note __, 3
	note C#, 1
	note __, 13
	vibrato $00, $83
	note C#, 4
	note __, 10
	vibrato $00, $03
	note C#, 1
	note __, 3
	note C#, 1
	note __, 13
	vibrato $00, $83
	note C#, 4
	note __, 10
	vibrato $00, $03
	note C#, 1
	note __, 3
	note C#, 1
	note __, 13
	vibrato $00, $83
	note C#, 4
	note __, 10
	vibrato $00, $03
	note C#, 1
	note __, 3
	note C#, 1
	note __, 13
	vibrato $00, $83
	note C#, 4
	note __, 10
	vibrato $00, $03
	note C#, 1
	note __, 3
	note C#, 1
	note __, 13
	vibrato $00, $83
	note C#, 4
	note __, 4
	vibrato $00, $03
	note C_, 1
	note __, 5
	note C_, 1
	note __, 3
	note C_, 1
	note __, 5
	note C_, 1
	note __, 7
	vibrato $00, $83
	note C_, 4
	note __, 4
	vibrato $00, $03
	note C_, 1
	note __, 5
	note C_, 1
	note __, 3
	note C_, 1
	note __, 5
	note C_, 1
	note __, 7
	vibrato $00, $83
	note C_, 4
	note __, 10
	vibrato $00, $03
	note C#, 1
	note __, 3
	note C#, 1
	note __, 13
	vibrato $00, $83
	note C#, 4
	note __, 10
	vibrato $00, $03
	note C#, 1
	note __, 3
	note C#, 1
	note __, 13
	vibrato $00, $83
	note C#, 4
	vibrato $00, $03
	octave 2
	note F_, 3
	octave 3
	note F_, 1
	note D#, 1
	note __, 3
	note G#, 1
	note A_, 1
	note F_, 1
	note D#, 1
	note __, 4
	octave 2
	note D#, 3
	octave 3
	note D#, 1
	note C#, 1
	note __, 3
	note F#, 1
	note G_, 1
	note D#, 1
	note C#, 1
	note __, 4
	note D_, 1
	note __, 5
	note D_, 1
	note __, 5
	note D_, 1
	note __, 5
	note D_, 1
	note __, 5
	note D_, 1
	note __, 3
	vibrato $05, $03
	note D_, 4
	loopchannel 0, Music_ImakuniTheme_Ch1_loop

Music_ImakuniTheme_Ch2:
	stereopanning $77
Music_ImakuniTheme_Ch2_loop:
	dutycycle 2
	vibrato $20, $54
	octave 4
	notetype $2, $00
	note C#, 1
	note __, 16
	note __, 16
	note __, 16
	note __, 16
	note __, 16
	note __, 16
	note __, 16
	note __, 16
	note __, 16
	note __, 16
	note __, 16
	note __, 16
	note __, 16
	note __, 16
	note __, 16
	note __, 16
	note __, 16
	note __, 16
	note __, 16
	note __, 16
	note __, 16
	note __, 16
	note __, 16
	note __, 15
	intensity $C8
	note C#, 6
	note __, 12
	intensity $C1
	note C#, 2
	note D_, 2
	note C#, 2
	intensity $C8
	octave 3
	note A#, 12
	note B_, 12
	octave 4
	note D_, 6
	notetype $C, $C8
	note __, 11
	note D_, 1
	note __, 1
	note E_, 1
	note __, 1
	note F_, 2
	note F_, 1
	notetype $4, $C1
	note E_, 1
	note F_, 1
	note E_, 1
	intensity $C8
	note D_, 3
	note __, 3
	note C#, 3
	note __, 3
	note D_, 6
	octave 3
	note B_, 3
	note __, 3
	note G_, 3
	note __, 3
	notetype $D, $C8
	note F_, 12
	note __, 12
	octave 4
	notetype $C, $C8
	note C#, 1
	note __, 2
	notetype $4, $C1
	note C#, 1
	note D_, 1
	note C#, 1
	intensity $C8
	octave 3
	note A#, 6
	note B_, 6
	octave 4
	note D_, 3
	notetype $C, $C8
	note __, 11
	note D_, 1
	note __, 1
	note E_, 1
	note __, 1
	note F_, 2
	note F_, 1
	notetype $4, $C1
	note E_, 1
	note F_, 1
	note E_, 1
	intensity $C8
	note D_, 3
	note __, 3
	note C#, 3
	note __, 3
	note D_, 3
	note __, 3
	octave 3
	note G_, 3
	note __, 3
	octave 4
	note G_, 3
	note __, 3
	notetype $D, $C8
	note F_, 12
	note __, 12
	notetype $C, $C8
	note E_, 1
	note __, 2
	notetype $4, $C1
	note C_, 1
	note E_, 1
	note C_, 1
	intensity $C8
	note C_, 6
	octave 3
	note G#, 6
	note A_, 3
	notetype $C, $C8
	note __, 11
	octave 4
	note E_, 1
	note __, 1
	note F#, 1
	note __, 1
	note G_, 2
	note G_, 1
	notetype $4, $C1
	note F#, 1
	note G_, 1
	note F#, 1
	intensity $C8
	note E_, 3
	note __, 3
	note D#, 3
	note __, 3
	note E_, 6
	note C_, 3
	note __, 3
	octave 3
	note G#, 3
	note __, 3
	notetype $D, $C8
	note F#, 12
	note __, 12
	octave 4
	notetype $C, $C8
	note C#, 1
	note __, 2
	notetype $4, $C1
	note C#, 1
	note D_, 1
	note C#, 1
	intensity $C8
	octave 3
	note A#, 6
	note B_, 6
	octave 4
	note D_, 3
	notetype $C, $C8
	note __, 11
	note D_, 1
	note __, 1
	note E_, 1
	note __, 1
	note F_, 2
	note F_, 1
	notetype $4, $C1
	note E_, 1
	note F_, 1
	note E_, 1
	intensity $C8
	note D_, 3
	note __, 3
	note C#, 3
	note __, 3
	note D_, 3
	note __, 3
	octave 3
	note G_, 3
	note __, 3
	octave 4
	note G_, 3
	note __, 3
	notetype $D, $C8
	note F_, 12
	note __, 12
	octave 3
	notetype $C, $C8
	note F_, 1
	note __, 1
	note B_, 1
	octave 4
	note C_, 1
	octave 3
	note G#, 1
	note A_, 1
	note F_, 1
	note __, 1
	note B_, 1
	octave 4
	note C_, 1
	octave 3
	note G#, 1
	note A_, 1
	note F_, 4
	note D#, 1
	note __, 1
	note A_, 1
	note A#, 1
	note F#, 1
	note G_, 1
	note D#, 1
	note __, 1
	note A_, 1
	note A#, 1
	note F#, 1
	note G_, 1
	note D#, 4
	note D_, 1
	octave 2
	note A_, 1
	note D_, 1
	note A_, 1
	note D_, 1
	note A_, 1
	octave 3
	note D_, 1
	octave 2
	note A_, 1
	note D_, 1
	note A_, 1
	note D_, 1
	note A_, 1
	octave 3
	note D_, 1
	octave 2
	note A_, 1
	note D_, 1
	note A_, 1
	note D_, 1
	note A_, 1
	octave 3
	note D_, 1
	octave 2
	note A_, 1
	note D_, 1
	note A_, 1
	note D_, 1
	note A_, 1
	octave 3
	note D_, 1
	octave 2
	note A_, 1
	note D_, 1
	note A_, 1
	vibrato $00, $53
	note D_, 4
	loopchannel 0, Music_ImakuniTheme_Ch2_loop

Music_ImakuniTheme_Ch3:
	stereopanning $f0
Music_ImakuniTheme_Ch3_loop:
	dutycycle 4
	tone $0004
	vibrato $00, $03
	octave 2
	notetype $C, $14
	note G_, 2
	note __, 2
	octave 3
	note G_, 1
	note __, 1
	note C#, 2
	note D_, 2
	octave 4
	note D_, 1
	note __, 3
	note D_, 1
	note __, 3
	octave 2
	note G_, 2
	octave 3
	note G_, 1
	note __, 1
	note C#, 2
	note D_, 2
	note __, 2
	vibrato $00, $83
	octave 4
	note D_, 3
	tone $0000
	vibrato $00, $33
	octave 5
	notetype $4, $14
	note G_, 1
	octave 4
	note G_, 1
	octave 3
	note G_, 1
	tone $0004
	vibrato $00, $03
	octave 2
	note G_, 6
	note __, 6
	octave 3
	note G_, 3
	note __, 3
	note C#, 6
	note D_, 6
	octave 4
	note D_, 3
	note __, 9
	note D_, 3
	note __, 9
	octave 2
	note G_, 6
	octave 3
	note G_, 3
	note __, 3
	note C#, 6
	note D_, 6
	note __, 6
	vibrato $00, $83
	octave 4
	note D_, 12
	vibrato $00, $03
	octave 2
	note G_, 6
	note __, 6
	octave 3
	note G_, 3
	note __, 3
	note C#, 6
	note D_, 6
	octave 4
	note D_, 3
	note __, 9
	note D_, 3
	note __, 9
	octave 2
	note G_, 6
	octave 3
	note G_, 3
	note __, 3
	note C#, 6
	note D_, 6
	note __, 6
	vibrato $00, $83
	octave 4
	note D_, 12
	vibrato $00, $03
	octave 2
	note G_, 6
	note __, 6
	octave 3
	note G_, 3
	note __, 3
	note C#, 6
	note D_, 6
	octave 4
	note D_, 3
	note __, 9
	note D_, 3
	note __, 9
	octave 2
	note G_, 6
	octave 3
	note G_, 3
	note __, 3
	note C#, 6
	note D_, 6
	note __, 6
	vibrato $00, $83
	octave 4
	note D_, 12
	vibrato $00, $03
	octave 2
	note G_, 6
	note __, 6
	octave 3
	note G_, 3
	note __, 3
	note C#, 6
	note D_, 6
	octave 4
	note D_, 3
	note __, 9
	note D_, 3
	note __, 9
	octave 2
	note G_, 6
	octave 3
	note G_, 3
	note __, 3
	note C#, 6
	note D_, 6
	note __, 6
	vibrato $00, $83
	octave 4
	note D_, 12
	vibrato $00, $03
	octave 2
	note G_, 6
	note __, 6
	octave 3
	note G_, 3
	note __, 3
	note C#, 6
	note D_, 6
	octave 4
	note D_, 3
	note __, 9
	note D_, 3
	note __, 9
	octave 2
	note G_, 6
	octave 3
	note G_, 3
	note __, 3
	note C#, 6
	note D_, 6
	note __, 6
	vibrato $00, $83
	octave 4
	note D_, 12
	vibrato $00, $03
	octave 3
	note C_, 6
	note __, 6
	octave 4
	note E_, 3
	note __, 3
	octave 3
	note G#, 6
	note A_, 6
	octave 4
	note D#, 3
	note __, 9
	note D#, 3
	note __, 9
	octave 3
	note C_, 6
	octave 4
	note E_, 3
	note __, 3
	octave 3
	note G#, 6
	note A_, 6
	note __, 6
	vibrato $00, $83
	octave 4
	note D#, 12
	vibrato $00, $03
	octave 3
	note C_, 6
	note __, 6
	octave 4
	note E_, 3
	note __, 3
	octave 3
	note G#, 6
	note A_, 6
	octave 4
	note D#, 3
	note __, 9
	note D#, 3
	note __, 9
	octave 3
	note C_, 6
	octave 4
	note E_, 3
	note __, 3
	octave 3
	note G#, 6
	note A_, 6
	note __, 6
	vibrato $00, $83
	octave 4
	note D#, 12
	vibrato $00, $03
	octave 2
	note G_, 6
	note __, 6
	octave 3
	note G_, 3
	note __, 3
	note C#, 6
	note D_, 6
	octave 4
	note D_, 3
	note __, 9
	note D_, 3
	note __, 9
	octave 2
	note G_, 6
	octave 3
	note G_, 3
	note __, 3
	note C#, 6
	note D_, 6
	note __, 6
	vibrato $00, $83
	octave 4
	note D_, 12
	vibrato $00, $03
	octave 2
	note G_, 6
	note __, 6
	octave 3
	note G_, 3
	note __, 3
	note C#, 6
	note D_, 6
	octave 4
	note D_, 3
	note __, 9
	note D_, 3
	note __, 9
	octave 2
	note G_, 6
	octave 3
	note G_, 3
	note __, 3
	note C#, 6
	note D_, 6
	note __, 6
	vibrato $00, $83
	octave 4
	note D_, 12
	vibrato $00, $03
	octave 2
	note F_, 9
	octave 3
	note F_, 3
	note D#, 3
	note __, 3
	note F_, 3
	note __, 3
	note G#, 3
	note A_, 3
	note F_, 3
	note D#, 3
	vibrato $00, $53
	note F_, 12
	vibrato $00, $03
	octave 2
	note D#, 9
	octave 3
	note D#, 3
	note C#, 3
	note __, 3
	note D#, 3
	note __, 3
	note F#, 3
	note G_, 3
	note D#, 3
	note C#, 3
	vibrato $00, $53
	note D#, 12
	vibrato $00, $03
	octave 4
	note C_, 3
	note __, 3
	octave 2
	note D_, 3
	note __, 3
	note D_, 3
	note __, 3
	octave 4
	note C_, 3
	note __, 3
	octave 2
	note D_, 3
	note __, 3
	note D_, 3
	note __, 3
	octave 4
	note C_, 3
	note __, 3
	octave 2
	note D_, 3
	note __, 3
	note D_, 3
	note __, 3
	octave 4
	note C_, 3
	note __, 3
	octave 2
	note D_, 3
	note __, 3
	note D_, 3
	note __, 3
	octave 4
	note C_, 3
	note __, 3
	octave 2
	note D_, 3
	note __, 3
	vibrato $00, $53
	octave 4
	note C_, 9
	tone $0000
	vibrato $00, $03
	octave 5
	note G_, 1
	octave 4
	note G_, 1
	octave 3
	note G_, 1
	loopchannel 0, Music_ImakuniTheme_Ch3_loop

Music_ImakuniTheme_Ch4:
	togglenoise 4
Music_ImakuniTheme_Ch4_loop:
	notetype $C
	note A_, 1
	note __, 1
	note A_, 1
	note G_, 1
	note A_, 1
	note __, 1
	note G_, 1
	note __, 1
	note G_, 1
	note A_, 1
	note B_, 2
	note G_, 1
	note G_, 1
	note B_, 2
	note A_, 1
	note __, 1
	note G_, 1
	note __, 1
	note G_, 1
	note __, 1
	note B_, 2
	note G_, 1
	note G_, 1
	note A_, 1
	note __, 1
	note A_, 1
	note __, 1
	note G_, 1
	note A_, 1
	note A_, 1
	note __, 1
	note A_, 1
	note G_, 1
	note A_, 1
	note __, 1
	note G_, 1
	note __, 1
	note G_, 1
	note A_, 1
	note B_, 2
	note G_, 1
	note G_, 1
	note B_, 2
	note A_, 1
	note __, 1
	note G_, 1
	note __, 1
	note G_, 1
	note __, 1
	note B_, 2
	note G_, 1
	note G_, 1
	note A_, 1
	note __, 1
	note A_, 1
	note __, 1
	note G_, 1
	note A_, 1
	note A_, 1
	note __, 1
	note A_, 1
	note G_, 1
	note A_, 1
	note __, 1
	note G_, 1
	note __, 1
	note G_, 1
	note A_, 1
	note B_, 2
	note G_, 1
	note G_, 1
	note B_, 2
	note A_, 1
	note __, 1
	note G_, 1
	note __, 1
	note G_, 1
	note __, 1
	note B_, 2
	note G_, 1
	note G_, 1
	note A_, 1
	note __, 1
	note A_, 1
	note __, 1
	note G_, 1
	note A_, 1
	note A_, 1
	note __, 1
	note A_, 1
	note G_, 1
	note A_, 1
	note __, 1
	note G_, 1
	note __, 1
	note G_, 1
	note A_, 1
	note B_, 2
	note G_, 1
	note G_, 1
	note B_, 2
	note A_, 1
	note __, 1
	note G_, 1
	note __, 1
	note G_, 1
	note __, 1
	note B_, 2
	note G_, 1
	note G_, 1
	note A_, 1
	note __, 1
	note A_, 1
	note __, 1
	note G_, 1
	note A_, 1
	note A_, 1
	note __, 1
	note A_, 1
	note G_, 1
	note A_, 1
	note __, 1
	note G_, 1
	note __, 1
	note G_, 1
	note A_, 1
	note B_, 2
	note G_, 1
	note G_, 1
	note B_, 2
	note A_, 1
	note __, 1
	note G_, 1
	note __, 1
	note G_, 1
	note __, 1
	note B_, 2
	note G_, 1
	note G_, 1
	note A_, 1
	note __, 1
	note A_, 1
	note __, 1
	note G_, 1
	note A_, 1
	note A_, 1
	note __, 1
	note A_, 1
	note G_, 1
	note A_, 1
	note __, 1
	note G_, 1
	note __, 1
	note G_, 1
	note A_, 1
	note B_, 2
	note G_, 1
	note G_, 1
	note B_, 2
	note A_, 1
	note __, 1
	note G_, 1
	note __, 1
	note G_, 1
	note __, 1
	note B_, 2
	note G_, 1
	note G_, 1
	note A_, 1
	note __, 1
	note A_, 1
	note __, 1
	note G_, 1
	note A_, 1
	note A_, 1
	note __, 1
	note A_, 1
	note G_, 1
	note A_, 1
	note __, 1
	note G_, 1
	note __, 1
	note G_, 1
	note A_, 1
	note B_, 2
	note G_, 1
	note G_, 1
	note B_, 2
	note A_, 1
	note __, 1
	note G_, 1
	note __, 1
	note G_, 1
	note __, 1
	note B_, 2
	note G_, 1
	note G_, 1
	note A_, 1
	note __, 1
	note A_, 1
	note __, 1
	note G_, 1
	note A_, 1
	note A_, 1
	note __, 1
	note A_, 1
	note G_, 1
	note A_, 1
	note __, 1
	note G_, 1
	note __, 1
	note G_, 1
	note A_, 1
	note B_, 2
	note G_, 1
	note G_, 1
	note B_, 2
	note A_, 1
	note __, 1
	note G_, 1
	note __, 1
	note G_, 1
	note __, 1
	note B_, 2
	note G_, 1
	note G_, 1
	note A_, 1
	note __, 1
	note A_, 1
	note __, 1
	note G_, 1
	note A_, 1
	note A_, 1
	note __, 1
	note A_, 1
	note G_, 1
	note A_, 1
	note __, 1
	note G_, 1
	note __, 1
	note G_, 1
	note A_, 1
	note B_, 2
	note G_, 1
	note G_, 1
	note B_, 2
	note A_, 1
	note __, 1
	note G_, 1
	note __, 1
	note G_, 1
	note __, 1
	note B_, 2
	note G_, 1
	note G_, 1
	note A_, 1
	note __, 1
	note A_, 1
	note __, 1
	note G_, 1
	note A_, 1
	note A_, 1
	note __, 1
	note A_, 1
	note G_, 1
	note A_, 1
	note __, 1
	note G_, 1
	note __, 1
	note G_, 1
	note A_, 1
	note B_, 2
	note G_, 1
	note G_, 1
	note B_, 2
	note A_, 1
	note __, 1
	note G_, 1
	note __, 1
	note G_, 1
	note __, 1
	note B_, 2
	note G_, 1
	note G_, 1
	note A_, 1
	note __, 1
	note A_, 1
	note __, 1
	note G_, 1
	note A_, 1
	notetype $9
	note B_, 3
	notetype $7
	note __, 3
	notetype $C
	note A_, 1
	note __, 1
	note A_, 1
	note __, 1
	note A_, 1
	note A_, 1
	note A_, 1
	note A_, 1
	note B_, 2
	note __, 2
	note B_, 2
	note __, 2
	note A_, 1
	note __, 1
	note A_, 1
	note __, 1
	note A_, 1
	note A_, 1
	note A_, 1
	note A_, 1
	note B_, 2
	note __, 2
	notetype $6
	note A_, 1
	note __, 3
	note G_, 1
	note __, 1
	note A_, 1
	note __, 1
	note B_, 4
	note A_, 1
	note __, 3
	note G_, 1
	note __, 1
	note A_, 1
	note __, 1
	note B_, 4
	note A_, 1
	note __, 3
	note G_, 1
	note __, 1
	note A_, 1
	note __, 1
	note B_, 4
	notetype $5
	note A_, 1
	note __, 3
	notetype $1
	note __, 4
	notetype $5
	note G_, 1
	notetype $7
	note __, 1
	notetype $5
	note A_, 1
	notetype $7
	note __, 1
	notetype $C
	note B_, 2
	notetype $6
	note A_, 1
	note __, 3
	note G_, 1
	note G_, 1
	note G_, 1
	note __, 1
	note A_, 1
	note __, 3
	note A_, 1
	note __, 3
	loopchannel 0, Music_ImakuniTheme_Ch4_loop

