Music_OrangeWildHighLevel:
	channel_count 4
	channel 1, Music_OrangeWildHighLevel_Ch1
	channel 2, Music_OrangeWildHighLevel_Ch2
	channel 3, Music_OrangeWildHighLevel_Ch3
	channel 4, Music_OrangeWildHighLevel_Ch4

Music_OrangeWildHighLevel_Ch1:
	tempo 97
	volume 7, 7
	stereo_panning TRUE, TRUE
	duty_cycle 1
.body:
	octave 5
	note_type 12, 13, 1
	note F#, 1
	note F_, 1
	note E_, 1
	note D#, 1
	note E_, 1
	note D#, 1
	note D_, 1
	note C#, 1
	note D_, 1
	note C#, 1
	note C_, 1
	octave 4
	note B_, 1
	octave 5
	note C_, 1
	octave 4
	note B_, 1
	note A#, 1
	note A_, 1
	note A#, 1
	note A_, 1
	note G#, 1
	note G_, 1
	note G#, 1
	note G_, 1
	note F#, 1
	note F_, 1
	note F#, 1
	note F_, 1
	note E_, 1
	note D#, 1
	note E_, 1
	note D#, 1
	note D_, 1
	note C#, 1
	octave 3
Music_OrangeWildHighLevel_Ch1_loop:
	duty_cycle 0
	volume_envelope 10, 7
	vibrato 8, 2, 4
	note G#, 8
	octave 3
	note E_, 8
	note A_, 8
	note F#, 8
	note G#, 8
	note E_, 8
	volume_envelope 3, -5
	note F#, 8
	octave 2
	note B_, 8
	volume_envelope 10, 7
	octave 3
	note G#, 8
	note E_, 8
	note A_, 8
	note F#, 8
	octave 4
	note G#, 8
	note E_, 8
	volume_envelope 3, -5
	note D#, 8
	note C#, 8
	volume_envelope 10, 2
	note D#, 2
	note D#, 2
	rest 2
	note C#, 2
	note D#, 2
	note F_, 2
	note F#, 2
	note G#, 2
	note A#, 2
	rest 2
	note F#, 2
	note C#, 2
	note D#, 2
	note C#, 2
	octave 3
	note B_, 2
	note A#, 2
	note F_, 2
	note G#, 2
	note B_, 2
	octave 4
	note C#, 2
	rest 2
	note C#, 2
	octave 3
	note B_, 2
	octave 4
	note C#, 2
	note D#, 2
	note C#, 2
	octave 3
	note B_, 2
	octave 4
	note D#, 2
	note F_, 2
	note G#, 2
	note B_, 2
	note G#, 2
	note D#, 2
	note D#, 2
	rest 2
	note C#, 2
	note D#, 2
	note F_, 2
	note F#, 2
	note G#, 2
	note A#, 2
	rest 2
	note F#, 2
	note C#, 2
	note D#, 2
	note C#, 2
	octave 3
	note B_, 2
	note A#, 2
	note F_, 2
	note G#, 2
	note B_, 2
	octave 4
	note C#, 2
	rest 2
	note C#, 2
	octave 3
	note B_, 2
	octave 4
	note C#, 2
	note D#, 2
	note C#, 2
	octave 3
	note B_, 2
	octave 4
	note D#, 2
	note F_, 2
	note G#, 2
	note B_, 2
	octave 5
	note C#, 2
	octave 4
	pitch_offset 1
	note F#, 2
	note D#, 2
	note F#, 2
	volume_envelope 10, 5
	note D#, 6
	volume_envelope 10, 2
	note F#, 2
	note G#, 2
	note B_, 4
	note A#, 4
	note G#, 4
	note F#, 4
	note G#, 2
	note C#, 2
	note G#, 2
	volume_envelope 10, 5
	note C#, 6
	volume_envelope 10, 2
	note D#, 2
	note F_, 2
	note G#, 4
	note F#, 4
	note F_, 4
	note C#, 4
	note F#, 2
	note D#, 2
	note F#, 2
	volume_envelope 10, 5
	note D#, 6
	volume_envelope 10, 2
	note F#, 2
	note G#, 2
	note B_, 4
	note A#, 4
	note G#, 4
	note A#, 2
	note B_, 2
	octave 5
	note D#, 4
	note C#, 4
	octave 4
	note B_, 4
	octave 5
	note C#, 4
	octave 4
	note B_, 4
	note A#, 4
	note G#, 4
	note A#, 4
	volume_envelope 10, 8
	note G#, 16
	note G#, 4
	volume_envelope 10, 7
	note G#, 12
	note F_, 16
	note F#, 16
	note G#, 16
	note F#, 16
	note G#, 16
	note A#, 16
	pitch_offset 0
	octave 3
	note F#, 8
	note D_, 8
	note G_, 8
	note E_, 8
	note F#, 8
	note D_, 8
	volume_envelope 3, -5
	note E_, 8
	octave 2
	note A_, 8
	volume_envelope 10, 7
	octave 3
	note F#, 8
	note D_, 8
	note G_, 8
	note E_, 8
	note F#, 8
	note D_, 8
	volume_envelope 3, -5
	note E_, 8
	octave 2
	note A_, 8
	sound_loop 0, Music_OrangeWildHighLevel_Ch1_loop

Music_OrangeWildHighLevel_Ch2:
	duty_cycle 1
.body:
	octave 3
	note_type 12, 13, 4
	note F#, 1
	octave 4
	note F#, 1
	octave 5
	note F#, 1
	octave 4
	note F#, 1
	octave 3
	note F#, 1
	octave 4
	note F#, 1
	octave 5
	note F#, 1
	octave 4
	note F#, 1
	octave 3
	note F#, 1
	octave 4
	note F#, 1
	octave 5
	note F#, 1
	octave 4
	note F#, 1
	octave 3
	note F#, 1
	octave 4
	note F#, 1
	octave 5
	note F#, 1
	octave 4
	note F#, 1
	octave 3
	note F#, 1
	octave 4
	note F#, 1
	octave 5
	note F#, 1
	octave 4
	note F#, 1
	octave 3
	note F#, 1
	octave 4
	note F#, 1
	octave 5
	note F#, 1
	octave 4
	note F#, 1
	octave 3
	note F#, 1
	octave 4
	note F#, 1
	octave 5
	note F#, 1
	octave 4
	note F#, 1
	octave 3
	note F#, 1
	octave 4
	note F#, 1
	octave 5
	note F#, 1
	octave 4
	note F#, 1
Music_OrangeWildHighLevel_Ch2_loop:
	volume_envelope 13, 3
	vibrato 8, 4, 6
	octave 4
	note C#, 6
	octave 3
	note G#, 6
	volume_envelope 13, 2
	vibrato 0, 0, 0
	octave 4
	note C#, 2
	note D_, 2
	volume_envelope 13, 4
	note E_, 4
	note D_, 4
	octave 3
	note B_, 4
	octave 4
	note D_, 4
	volume_envelope 13, 3
	vibrato 8, 4, 6
	note C#, 6
	octave 3
	note G#, 6
	volume_envelope 13, 4
	vibrato 0, 0, 0
	octave 4
	note C#, 4
	octave 3
	note B_, 4
	octave 4
	note D#, 4
	note F#, 4
	octave 3
	note B_, 4
	volume_envelope 13, 3
	vibrato 8, 4, 6
	octave 4
	note C#, 6
	octave 3
	note G#, 6
	volume_envelope 13, 2
	vibrato 0, 0, 0
	octave 4
	note C#, 2
	note D_, 2
	volume_envelope 13, 4
	note E_, 4
	note D_, 4
	octave 3
	note B_, 4
	octave 4
	note D_, 4
	volume_envelope 13, 3
	vibrato 8, 4, 6
	octave 5
	note C#, 6
	octave 4
	note G#, 6
	volume_envelope 13, 4
	vibrato 0, 0, 0
	octave 5
	note C#, 4
	octave 4
	note B_, 4
	octave 5
	note C#, 4
	octave 4
	note A#, 4
	volume_envelope 13, 2
	note F#, 4
	note G#, 2
	note D#, 2
	rest 2
	note G#, 4
	note G#, 2
	note A#, 2
	note B_, 2
	octave 5
	note C#, 4
	octave 4
	note B_, 4
	note A#, 4
	note F#, 4
	volume_envelope 13, 5
	note C#, 8
	note F_, 8
	volume_envelope 13, 7
	note G#, 12
	volume_envelope 13, 2
	note F_, 4
	note F#, 2
	note F#, 2
	rest 2
	note F#, 2
	note F_, 2
	note G#, 2
	note A#, 2
	note B_, 2
	octave 5
	note C#, 4
	octave 4
	note B_, 4
	note A#, 4
	note A#, 2
	note B_, 2
	octave 5
	note C#, 2
	octave 4
	note B_, 2
	note A#, 2
	note G#, 2
	note A#, 2
	note G#, 2
	note F_, 2
	note F#, 2
	note F_, 4
	note D#, 4
	note C#, 4
	note F_, 4
	note G#, 2
	note A#, 2
	note B_, 2
	note A#, 2
	octave 5
	note D#, 4
	note C#, 4
	note D#, 4
	octave 4
	note A#, 4
	rest 2
	octave 5
	note D#, 2
	note F_, 2
	note F#, 2
	volume_envelope 13, 5
	note F_, 6
	note C#, 6
	octave 4
	note A#, 6
	note G#, 6
	volume_envelope 13, 2
	note F#, 4
	note G#, 4
	note A#, 2
	note D#, 2
	note A#, 2
	note D#, 2
	rest 2
	note D#, 2
	note A#, 2
	note D#, 2
	note G#, 4
	note F#, 4
	note F_, 4
	note D#, 4
	volume_envelope 13, 5
	note C#, 8
	octave 3
	note B_, 8
	note A#, 8
	note F#, 8
	vibrato 8, 2, 4
	note_type 15, 13, 8
	note F_, 16
	vibrato 0, 2, 4
	note_type 12, 13, 7
	note F_, 12
	note G#, 16
	note A#, 16
	note B_, 16
	octave 4
	note C#, 16
	note D#, 16
	octave 3
	note A#, 16
	volume_envelope 13, 3
	vibrato 8, 4, 6
	note B_, 6
	note F#, 6
	volume_envelope 13, 2
	vibrato 0, 0, 0
	note B_, 2
	octave 4
	note C_, 2
	volume_envelope 13, 4
	note D_, 4
	note C_, 4
	octave 3
	note A_, 4
	octave 4
	note C_, 4
	octave 3
	volume_envelope 13, 3
	vibrato 8, 4, 6
	note B_, 6
	note F#, 6
	volume_envelope 13, 4
	vibrato 0, 0, 0
	note B_, 4
	note A_, 4
	octave 4
	note C#, 4
	note E_, 4
	octave 3
	note A_, 4
	volume_envelope 13, 3
	vibrato 8, 4, 6
	note B_, 6
	note F#, 6
	volume_envelope 13, 2
	vibrato 0, 0, 0
	note B_, 2
	octave 4
	note C_, 2
	volume_envelope 13, 4
	note D_, 4
	note C_, 4
	octave 3
	note A_, 4
	octave 4
	note C_, 4
	octave 3
	volume_envelope 13, 3
	vibrato 8, 4, 6
	note B_, 6
	note F#, 6
	volume_envelope 13, 4
	vibrato 0, 0, 0
	note B_, 4
	note A_, 4
	octave 4
	note C#, 4
	note E_, 4
	octave 3
	note A_, 4
	sound_loop 0, Music_OrangeWildHighLevel_Ch2_loop

Music_OrangeWildHighLevel_Ch3:
	duty_cycle 8
.body:
	octave 3
	note_type 12, 1, 8
	note F#, 1
	rest 1
	note F#, 1
	rest 1
	note F_, 1
	rest 1
	note F_, 1
	rest 1
	note E_, 1
	rest 1
	note E_, 1
	rest 1
	note D#, 1
	rest 1
	note D#, 1
	rest 1
	note D_, 1
	rest 1
	note D_, 1
	rest 1
	note C#, 1
	rest 1
	note C#, 1
	rest 1
	note C_, 1
	rest 1
	note C_, 1
	octave 2
	rest 1
	note B_, 1
	rest 1
	note B_, 1
	rest 1
Music_OrangeWildHighLevel_Ch3_loop:
	duty_cycle 4
	volume_envelope 1, 4
	octave 3
	note C#, 2
	octave 4
	note C#, 2
	octave 3
	note C#, 2
	octave 4
	note C#, 2
	octave 3
	note C#, 2
	octave 4
	note C#, 2
	octave 3
	note C#, 2
	octave 4
	note C#, 2
	octave 3
	note D_, 2
	octave 4
	note D_, 2
	octave 3
	note D_, 2
	octave 4
	note D_, 2
	octave 3
	note D_, 2
	octave 4
	note D_, 2
	octave 3
	note D_, 2
	octave 4
	note D_, 2
	octave 3
	note C#, 2
	octave 4
	note C#, 2
	octave 3
	note C#, 2
	octave 4
	note C#, 2
	octave 3
	note C#, 2
	octave 4
	note C#, 2
	octave 3
	note C#, 2
	octave 4
	note C#, 2
	octave 3
	note F#, 2
	octave 4
	note F#, 2
	octave 3
	note F#, 2
	octave 4
	note F#, 2
	octave 3
	note F#, 2
	octave 4
	note F#, 2
	octave 3
	note F#, 2
	octave 4
	note F#, 2
	octave 3
	note C#, 2
	octave 4
	note C#, 2
	octave 3
	note C#, 2
	octave 4
	note C#, 2
	octave 3
	note C#, 2
	octave 4
	note C#, 2
	octave 3
	note C#, 2
	octave 4
	note C#, 2
	octave 3
	note D_, 2
	octave 4
	note D_, 2
	octave 3
	note D_, 2
	octave 4
	note D_, 2
	octave 3
	note D_, 2
	octave 4
	note D_, 2
	octave 3
	note D_, 2
	octave 4
	note D_, 2
	octave 3
	note C#, 2
	octave 4
	note C#, 2
	octave 3
	note C#, 2
	octave 4
	note C#, 2
	octave 3
	note C#, 2
	octave 4
	note C#, 2
	octave 3
	note C#, 2
	octave 4
	note C#, 2
	octave 3
	note F#, 2
	octave 4
	note F#, 2
	octave 3
	note F#, 2
	octave 4
	note F#, 2
	octave 3
	note F#, 2
	octave 4
	note F#, 2
	octave 3
	note F#, 2
	octave 4
	note F#, 2
	octave 3
	note G#, 2
	octave 4
	note G#, 2
	octave 3
	note G#, 2
	octave 4
	note G#, 2
	octave 3
	note G#, 2
	octave 4
	note G#, 2
	octave 3
	note G#, 2
	octave 4
	note G#, 2
	octave 3
	note F#, 2
	octave 4
	note F#, 2
	octave 3
	note F#, 2
	octave 4
	note F#, 2
	octave 3
	note F#, 2
	octave 4
	note F#, 2
	octave 3
	note F#, 2
	octave 4
	note F#, 2
	octave 3
	note C#, 2
	octave 4
	note C#, 2
	octave 3
	note C#, 2
	octave 4
	note C#, 2
	octave 3
	note C#, 2
	octave 4
	note C#, 2
	octave 3
	note C#, 2
	octave 4
	note C#, 2
	octave 2
	note G#, 2
	octave 3
	note G#, 2
	octave 2
	note G#, 2
	octave 3
	note G#, 2
	octave 2
	note G#, 2
	octave 3
	note G#, 2
	note C#, 2
	octave 4
	note C#, 2
	octave 3
	note G#, 2
	octave 4
	note G#, 2
	octave 3
	note G#, 2
	octave 4
	note G#, 2
	octave 3
	note G#, 2
	octave 4
	note G#, 2
	octave 3
	note G#, 2
	octave 4
	note G#, 2
	octave 3
	note F#, 2
	octave 4
	note F#, 2
	octave 3
	note F#, 2
	octave 4
	note F#, 2
	octave 3
	note F#, 2
	octave 4
	note F#, 2
	octave 3
	note F#, 2
	octave 4
	note F#, 2
	octave 3
	note C#, 2
	octave 4
	note C#, 2
	octave 3
	note C#, 2
	octave 4
	note C#, 2
	octave 3
	note C#, 2
	octave 4
	note C#, 2
	octave 3
	note C#, 2
	octave 4
	note C#, 2
	octave 2
	note G#, 2
	octave 3
	note G#, 2
	octave 2
	note G#, 2
	octave 3
	note G#, 2
	octave 2
	note G#, 2
	octave 3
	note G#, 2
	note C#, 2
	octave 4
	note C#, 2
	octave 3
	note D#, 2
	octave 4
	note D#, 2
	octave 3
	note D#, 2
	octave 4
	note D#, 2
	octave 3
	note D#, 2
	octave 4
	note D#, 2
	octave 3
	note D#, 2
	octave 4
	note D#, 2
	octave 3
	note D#, 2
	octave 4
	note D#, 2
	octave 3
	note D#, 2
	octave 4
	note D#, 2
	octave 3
	note D#, 2
	octave 4
	note D#, 2
	octave 3
	note D#, 2
	octave 4
	note D#, 2
	octave 3
	note C#, 2
	octave 4
	note C#, 2
	octave 3
	note C#, 2
	octave 4
	note C#, 2
	octave 3
	note C#, 2
	octave 4
	note C#, 2
	octave 3
	note C#, 2
	octave 4
	note C#, 2
	octave 3
	note C#, 2
	octave 4
	note C#, 2
	octave 3
	note C#, 2
	octave 4
	note C#, 2
	octave 3
	note C#, 2
	octave 4
	note C#, 2
	octave 3
	note C#, 2
	octave 4
	note C#, 2
	octave 3
	note D#, 2
	octave 4
	note D#, 2
	octave 3
	note D#, 2
	octave 4
	note D#, 2
	octave 3
	note D#, 2
	octave 4
	note D#, 2
	octave 3
	note D#, 2
	octave 4
	note D#, 2
	octave 3
	note D#, 2
	octave 4
	note D#, 2
	octave 3
	note D#, 2
	octave 4
	note D#, 2
	octave 3
	note D#, 2
	octave 4
	note D#, 2
	octave 3
	note D#, 2
	octave 4
	note D#, 2
	octave 3
	note G#, 2
	octave 4
	note G#, 2
	octave 3
	note G#, 2
	octave 4
	note G#, 2
	octave 3
	note G#, 2
	octave 4
	note G#, 2
	octave 3
	note G#, 2
	octave 4
	note G#, 2
	octave 3
	note F#, 2
	octave 4
	note F#, 2
	octave 3
	note F#, 2
	octave 4
	note F#, 2
	octave 3
	note F#, 2
	octave 4
	note F#, 2
	octave 3
	note F#, 2
	octave 4
	note F#, 2
	octave 3
	note C#, 2
	octave 4
	note C#, 2
	octave 3
	note C#, 2
	octave 4
	note C#, 2
	octave 3
	note C#, 2
	octave 4
	note C#, 2
	octave 3
	note C#, 2
	octave 4
	note C#, 2
	octave 3
	note C#, 2
	octave 4
	note C#, 2
	octave 3
	note C#, 2
	octave 4
	note C#, 2
	octave 3
	note C#, 2
	octave 4
	note C#, 2
	octave 3
	note C#, 2
	octave 4
	note C#, 2
	octave 3
	note C#, 2
	octave 4
	note C#, 2
	octave 3
	note C#, 2
	octave 4
	note C#, 2
	octave 3
	note C#, 2
	octave 4
	note C#, 2
	octave 3
	note C#, 2
	octave 4
	note C#, 2
	octave 3
	note C#, 2
	octave 4
	note C#, 2
	octave 3
	note C#, 2
	octave 4
	note C#, 2
	octave 3
	note C#, 2
	octave 4
	note C#, 2
	octave 3
	note C#, 2
	octave 4
	note C#, 2
	octave 3
	note D#, 2
	octave 4
	note D#, 2
	octave 3
	note D#, 2
	octave 4
	note D#, 2
	octave 3
	note D#, 2
	octave 4
	note D#, 2
	octave 3
	note D#, 2
	octave 4
	note D#, 2
	octave 3
	note D#, 2
	octave 4
	note D#, 2
	octave 3
	note D#, 2
	octave 4
	note D#, 2
	octave 3
	note D#, 2
	octave 4
	note D#, 2
	octave 3
	note D#, 2
	octave 4
	note D#, 2
	octave 3
	note D#, 2
	octave 4
	note D#, 2
	octave 3
	note D#, 2
	octave 4
	note D#, 2
	octave 3
	note D#, 2
	octave 4
	note D#, 2
	octave 3
	note D#, 2
	octave 4
	note D#, 2
	octave 3
	note D#, 2
	octave 4
	note D#, 2
	octave 3
	note D#, 2
	octave 4
	note D#, 2
	octave 3
	note D#, 2
	octave 4
	note D#, 2
	octave 3
	note D#, 2
	octave 4
	note D#, 2
	octave 2
	note B_, 2
	octave 3
	note B_, 2
	octave 2
	note B_, 2
	octave 3
	note B_, 2
	octave 2
	note B_, 2
	octave 3
	note B_, 2
	octave 2
	note B_, 2
	octave 3
	note B_, 2
	note C_, 2
	octave 4
	note C_, 2
	octave 3
	note C_, 2
	octave 4
	note C_, 2
	octave 3
	note C_, 2
	octave 4
	note C_, 2
	octave 3
	note C_, 2
	octave 4
	note C_, 2
	octave 2
	note B_, 2
	octave 3
	note B_, 2
	octave 2
	note B_, 2
	octave 3
	note B_, 2
	octave 2
	note B_, 2
	octave 3
	note B_, 2
	octave 2
	note B_, 2
	octave 3
	note B_, 2
	note E_, 2
	octave 4
	note E_, 2
	octave 3
	note E_, 2
	octave 4
	note E_, 2
	octave 3
	note E_, 2
	octave 4
	note E_, 2
	octave 3
	note E_, 2
	octave 4
	note E_, 2
	octave 2
	note B_, 2
	octave 3
	note B_, 2
	octave 2
	note B_, 2
	octave 3
	note B_, 2
	octave 2
	note B_, 2
	octave 3
	note B_, 2
	octave 2
	note B_, 2
	octave 3
	note B_, 2
	note C_, 2
	octave 4
	note C_, 2
	octave 3
	note C_, 2
	octave 4
	note C_, 2
	octave 3
	note C_, 2
	octave 4
	note C_, 2
	octave 3
	note C_, 2
	octave 4
	note C_, 2
	octave 2
	note B_, 2
	octave 3
	note B_, 2
	octave 2
	note B_, 2
	octave 3
	note B_, 2
	octave 2
	note B_, 2
	octave 3
	note B_, 2
	octave 2
	note B_, 2
	octave 3
	note B_, 2
	note E_, 2
	octave 4
	note E_, 2
	octave 3
	note E_, 2
	octave 4
	note E_, 2
	octave 3
	note E_, 2
	octave 4
	note E_, 2
	octave 3
	note E_, 2
	octave 4
	note E_, 2
	octave 3
	sound_loop 0, Music_OrangeWildHighLevel_Ch3_loop

Music_OrangeWildHighLevel_Ch4:
	toggle_noise 3
	drum_speed 12
.body:
	drum_note 1, 2
	rest 2
	drum_note 1, 2
	rest 2
	drum_note 1, 2
	rest 2
	drum_note 1, 2
	drum_note 2, 1
	drum_note 2, 1
	drum_note 3, 1
	drum_note 3, 1
	drum_note 3, 1
	drum_note 3, 1
	drum_note 4, 1
	drum_note 4, 1
	drum_note 4, 1
	drum_note 4, 1
	drum_note 2, 1
	drum_note 2, 1
	drum_note 2, 1
	drum_note 2, 1
	drum_note 1, 1
	drum_note 1, 1
	drum_note 1, 1
	drum_note 1, 1
Music_OrangeWildHighLevel_Ch4_loop:
	drum_note 12, 2
	drum_note 4, 2
	drum_note 1, 2
	drum_note 3, 2
	drum_note 4, 2
	drum_note 4, 2
	drum_note 1, 2
	drum_note 3, 2
	drum_note 2, 2
	drum_note 4, 2
	drum_note 1, 2
	drum_note 3, 1
	drum_note 3, 1
	drum_note 4, 2
	drum_note 4, 2
	drum_note 1, 2
	drum_note 3, 2
	drum_note 2, 2
	drum_note 4, 2
	drum_note 1, 2
	drum_note 3, 2
	drum_note 4, 2
	drum_note 4, 2
	drum_note 1, 2
	drum_note 3, 2
	drum_note 2, 2
	drum_note 4, 2
	drum_note 1, 2
	drum_note 3, 1
	drum_note 3, 1
	drum_note 4, 2
	drum_note 4, 2
	drum_note 1, 2
	drum_note 3, 2
	drum_note 12, 2
	drum_note 4, 2
	drum_note 1, 2
	drum_note 3, 2
	drum_note 4, 2
	drum_note 4, 2
	drum_note 1, 2
	drum_note 3, 2
	drum_note 2, 2
	drum_note 4, 2
	drum_note 1, 2
	drum_note 3, 1
	drum_note 3, 1
	drum_note 4, 2
	drum_note 4, 2
	drum_note 1, 2
	drum_note 3, 1
	drum_note 3, 1
	drum_note 1, 2
	rest 2
	drum_note 1, 2
	rest 2
	drum_note 1, 2
	rest 2
	drum_note 1, 2
	drum_note 4, 2
	drum_note 3, 1
	drum_note 3, 1
	drum_note 3, 1
	drum_note 3, 1
	drum_note 4, 1
	drum_note 4, 1
	drum_note 4, 1
	drum_note 4, 1
	drum_note 2, 1
	drum_note 2, 1
	drum_note 2, 1
	drum_note 2, 1
	drum_note 1, 1
	drum_note 1, 1
	drum_note 1, 1
	drum_note 1, 1
	sound_loop 0, Music_OrangeWildHighLevel_Ch4_loop
