Music_PinkanIslandNight:
	channel_count 3
	channel 1, Music_PinkanIslandNight_Ch1
	channel 2, Music_PinkanIslandNight_Ch2
	channel 3, Music_PinkanIslandNight_Ch3

Music_PinkanIslandNight_Ch1:
	tempo $149
	volume $77
	stereopanning $f
	dutycycle 2
	tone $0001
	octave 2
	notetype $C, $A2
	note A_, 1
	notetype $6, $A2
	note __, 1
	note A_, 2
	note __, 1
	note A_, 2
	note __, 1
	note A_, 2
	note __, 1
	note A_, 2
	intensity $A1
	note A#, 1
	note A#, 1
	intensity $A2
	note A_, 2
	note __, 1
	note A_, 2
	note __, 1
	note A_, 2
	note __, 1
	note A_, 2
	note __, 1
	note A_, 2
	intensity $A1
	octave 3
	note C_, 1
	note C_, 1
	intensity $A2
	octave 2
	note A_, 2
	note __, 1
	note A_, 2
	note __, 1
	note A_, 2
	note __, 1
	note A_, 2
	note __, 1
	note A_, 2
	intensity $A1
	note A#, 1
	note A#, 1
	intensity $A2
	note A_, 2
	note __, 1
	note A_, 2
	note __, 1
	note A_, 2
	note __, 1
	note A_, 2
	note __, 5
	sound_loop 0, Music_PinkanIsland_Ch1_loop

Music_PinkanIslandNight_Ch2:
	dutycycle 2
        stereopanning $f0
	tone $0002
	vibrato $03, $12
	octave 3
	notetype $C, $C2
	note F#, 1
	note __, 2
	note F#, 1
	note __, 3
	intensity $C4
	note G_, 1
	intensity $C2
	note F#, 1
	note __, 2
	note F#, 1
	note __, 3
	intensity $C4
	note A_, 1
	intensity $C2
	note F#, 1
	note __, 2
	note F#, 1
	note __, 3
	intensity $C4
	note G_, 1
	intensity $C2
	note F#, 1
	note __, 2
	note F#, 1
	note __, 4
	sound_loop 0, Music_PinkanIsland_Ch2_loop

Music_PinkanIslandNight_Ch3:
	dutycycle 2
	octave 3
	notetype $6, $11
	note D_, 1
	note D#, 1
	note D_, 2
	octave 4
	note D_, 2
	octave 3
	note D_, 1
	note D#, 1
	note D_, 1
	note C_, 1
	octave 4
	note D_, 2
	note __, 2
	octave 3
	note C_, 2
	note D_, 1
	note D#, 1
	note D_, 2
	octave 4
	note D_, 2
	octave 3
	note D_, 1
	note D#, 1
	note D_, 1
	note C_, 1
	octave 4
	note D_, 2
	note __, 2
	octave 3
	note C_, 2
	note D_, 1
	note D#, 1
	note D_, 2
	octave 4
	note D_, 2
	octave 3
	note D_, 1
	note D#, 1
	note D_, 1
	note C_, 1
	octave 4
	note D_, 2
	note __, 2
	octave 3
	note C_, 2
	note D_, 1
	note D#, 1
	note D_, 2
	octave 4
	note D_, 2
	octave 3
	note D_, 1
	note D#, 1
	note D_, 1
	note C_, 1
	octave 4
	note D_, 2
	note __, 4
	sound_loop 0, Music_PinkanIsland_Ch3_loop
