Music_RanchTheme:
	channel_count 2
	channel 1, Music_RanchTheme_Ch1
	channel 2, Music_RanchTheme_Ch2

Music_RanchTheme_Ch1:
	volume 7, 7
	duty_cycle 2
	note_type 12, 9, 7
	vibrato 18, 2, 4
	tempo 192
	octave 4
	note E_, 6
	volume_envelope 8, 7
	note E_, 2
	note F_, 2
	note F#, 2
	volume_envelope 9, 7
	note G_, 2
	rest 4
	volume_envelope 8, 7
	note C_, 2
	rest 4
	volume_envelope 9, 7
	note F_, 5
	volume_envelope 8, 7
	rest 3
	note D_, 2
	octave 3
	note A_, 2
	octave 4
	volume_envelope 9, 7
	note C_, 6
	volume_envelope 8, 7
	note D_, 4
	note C#, 1
	note C_, 1
	octave 3
	volume_envelope 9, 7
	note B_, 8
	volume_envelope 8, 7
	note G_, 2
	note A#, 2
	volume_envelope 9, 7
	note A_, 6
	rest 6
	note D_, 2
	volume_envelope 8, 7
	note F_, 2
	note A_, 2
	octave 4
	note C_, 4
	note D_, 2
	volume_envelope 9, 7
	note C_, 2
	rest 4
	octave 3
	volume_envelope 8, 7
	note B_, 2
	rest 4
	octave 4
	volume_envelope 9, 7
	note E_, 6
	volume_envelope 8, 7
	note E_, 2
	note F_, 2
	note F#, 2
	volume_envelope 9, 7
	note G_, 2
	octave 5
	volume_envelope 8, 7
	note C_, 6
	octave 4
	note B_, 2
	note G_, 2
	volume_envelope 9, 7
	note F_, 6
	volume_envelope 8, 7
	note D_, 2
	note F_, 2
	note A_, 2
	volume_envelope 9, 7
	note B_, 5
	volume_envelope 8, 7
	rest 3
	note G_, 2
	note E_, 2
	volume_envelope 9, 7
	note G_, 8
	volume_envelope 8, 7
	note D_, 2
	note F_, 2
	volume_envelope 9, 7
	note E_, 6
	rest 6
	note F_, 2
	volume_envelope 8, 7
	note E_, 2
	note C_, 2
	note D_, 2
	note F_, 2
	note A_, 2
	volume_envelope 9, 7
	note G#, 4
	rest 4
	volume_envelope 8, 7
	note B_, 4
	octave 5
	volume_envelope 9, 7
	note C_, 8
	octave 4
	volume_envelope 8, 7
	note A_, 2
	note B_, 2
	octave 5
	volume_envelope 9, 7
	note C_, 8
	octave 4
	volume_envelope 8, 7
	note A_, 2
	note G_, 2
	volume_envelope 9, 7
	note F#, 6
	volume_envelope 8, 7
	note D_, 2
	note F#, 2
	note A_, 2
	octave 5
	note D_, 12
	octave 4
	volume_envelope 9, 7
	note F_, 6
	volume_envelope 8, 7
	note D_, 2
	note F_, 2
	note A_, 2
	volume_envelope 9, 7
	note B_, 5
	volume_envelope 8, 7
	rest 3
	note G_, 2
	note E_, 2
	volume_envelope 9, 7
	note G_, 6
	rest 6
	note A_, 5
	volume_envelope 8, 7
	rest 3
	note F_, 2
	note E_, 2
	volume_envelope 9, 7
	note F_, 8
	volume_envelope 8, 7
	note D_, 2
	note F_, 2
	volume_envelope 9, 7
	note G_, 8
	volume_envelope 8, 7
	note E_, 2
	note G_, 2
	volume_envelope 9, 7
	note G#, 2
	volume_envelope 8, 7
	note F_, 2
	note G_, 2
	note G#, 2
	note A#, 2
	note B_, 2
	octave 5
	volume_envelope 9, 7
	note C_, 2
	volume_envelope 8, 7
	note D_, 2
	note D#, 2
	note D_, 2
	note C_, 2
	note D_, 2
	octave 4
	note A#, 16
	note A#, 2
	note G_, 2
	note F_, 2
	note D#, 2
	volume_envelope 9, 7
	note F_, 6
	volume_envelope 8, 7
	note D_, 6
	octave 3
	volume_envelope 9, 7
	note B_, 6
	volume_envelope 8, 7
	note B_, 2
	octave 4
	note C_, 2
	note D_, 2
	volume_envelope 9, 7
	note B_, 2
	volume_envelope 8, 7
	note G_, 2
	note E_, 2
	octave 3
	note B_, 6
	octave 4
	volume_envelope 9, 7
	note A_, 6
	volume_envelope 8, 7
	note E_, 2
	note F_, 2
	note E_, 2
	volume_envelope 9, 7
	note D_, 8
	volume_envelope 8, 7
	note A_, 2
	note G#, 2
	volume_envelope 9, 7
	note G_, 8
	volume_envelope 8, 7
	note G_, 2
	note A_, 2
	volume_envelope 9, 7
	note B_, 2
	volume_envelope 8, 7
	note G_, 2
	note E_, 2
	octave 3
	note B_, 6
	octave 4
	volume_envelope 9, 7
	note A_, 6
	volume_envelope 8, 7
	note E_, 2
	note F_, 2
	note E_, 2
	volume_envelope 9, 7
	note D_, 8
	volume_envelope 8, 7
	note A_, 2
	note G#, 2
	note G_, 12
	sound_loop 0, Music_RanchTheme_Ch1

Music_RanchTheme_Ch2:
	duty_cycle 2
	note_type 12, 9, 7
	vibrato 20, 2, 3
	octave 2
	note C_, 6
	octave 1
	volume_envelope 8, 7
	note G_, 4
	note G#, 2
	volume_envelope 9, 7
	note A_, 6
	volume_envelope 8, 7
	note E_, 4
	note D#, 2
	volume_envelope 9, 7
	note D_, 8
	volume_envelope 8, 7
	note E_, 2
	note F_, 2
	volume_envelope 9, 7
	note G_, 6
	volume_envelope 8, 7
	note F_, 6
	volume_envelope 9, 7
	note E_, 6
	volume_envelope 8, 7
	note B_, 6
	volume_envelope 9, 7
	note A_, 6
	volume_envelope 8, 7
	note G_, 6
	volume_envelope 9, 7
	note D_, 6
	volume_envelope 8, 7
	note D_, 2
	note E_, 2
	note F_, 2
	volume_envelope 9, 7
	note G_, 6
	volume_envelope 8, 7
	note G_, 2
	note A_, 2
	note B_, 2
	octave 2
	volume_envelope 9, 7
	note C_, 6
	octave 1
	volume_envelope 8, 7
	note G_, 4
	note G#, 2
	volume_envelope 9, 7
	note A_, 6
	volume_envelope 8, 7
	note E_, 4
	note D#, 2
	volume_envelope 9, 7
	note D_, 8
	volume_envelope 8, 7
	note E_, 2
	note F_, 2
	volume_envelope 9, 7
	note G_, 6
	volume_envelope 8, 7
	note F_, 6
	volume_envelope 9, 7
	note E_, 6
	volume_envelope 8, 7
	note B_, 6
	volume_envelope 9, 7
	note A_, 6
	volume_envelope 8, 7
	note G_, 6
	volume_envelope 9, 7
	note D_, 6
	volume_envelope 8, 7
	note D_, 2
	note E_, 2
	note F_, 2
	volume_envelope 9, 7
	note G_, 6
	volume_envelope 8, 7
	note E_, 6
	volume_envelope 9, 7
	note A_, 2
	octave 2
	volume_envelope 7, 7
	note A_, 1
	rest 1
	note A_, 1
	rest 1
	note A_, 6
	octave 1
	volume_envelope 9, 7
	note G#, 2
	octave 2
	volume_envelope 7, 7
	note G#, 1
	rest 1
	note G#, 1
	rest 1
	note G#, 6
	octave 1
	volume_envelope 9, 7
	note F#, 2
	octave 2
	volume_envelope 7, 7
	note A_, 1
	rest 1
	note A_, 1
	rest 1
	note A_, 6
	octave 1
	volume_envelope 9, 7
	note B_, 2
	octave 2
	volume_envelope 7, 7
	note B_, 1
	rest 1
	note B_, 1
	rest 1
	note B_, 6
	octave 1
	volume_envelope 9, 7
	note D_, 2
	octave 2
	volume_envelope 7, 7
	note A_, 1
	rest 1
	note A_, 1
	rest 1
	volume_envelope 9, 7
	note A_, 4
	octave 1
	volume_envelope 8, 7
	note G#, 2
	volume_envelope 9, 7
	note G_, 2
	octave 2
	volume_envelope 7, 7
	note B_, 1
	rest 1
	note B_, 1
	rest 1
	note B_, 6
	octave 1
	volume_envelope 9, 7
	note E_, 6
	volume_envelope 8, 7
	note E_, 1
	note F#, 1
	note B_, 1
	octave 2
	note D_, 1
	note F#, 1
	note B_, 1
	volume_envelope 7, 7
	note A#, 12
	volume_envelope 8, 7
	note A_, 6
	volume_envelope 7, 7
	note A_, 6
	volume_envelope 8, 7
	note B_, 6
	volume_envelope 7, 7
	note B_, 6
	volume_envelope 8, 7
	note G#, 6
	volume_envelope 7, 7
	note G#, 6
	volume_envelope 8, 7
	note A#, 6
	volume_envelope 7, 7
	note A#, 6
	volume_envelope 8, 7
	note A#, 8
	octave 1
	note A#, 2
	note G_, 2
	volume_envelope 9, 7
	note F_, 6
	rest 6
	octave 2
	volume_envelope 8, 7
	note A_, 6
	note C_, 6
	note B_, 6
	note F_, 2
	note E_, 2
	note D_, 2
	volume_envelope 9, 7
	note C_, 6
	octave 1
	volume_envelope 8, 7
	note G_, 4
	note G#, 2
	volume_envelope 9, 7
	note A_, 6
	volume_envelope 8, 7
	note E_, 4
	note D#, 2
	volume_envelope 9, 7
	note D_, 8
	volume_envelope 8, 7
	note E_, 2
	note F_, 2
	volume_envelope 9, 7
	note G_, 6
	volume_envelope 8, 7
	note G_, 2
	note A_, 2
	note B_, 2
	octave 2
	volume_envelope 9, 7
	note C_, 6
	octave 1
	volume_envelope 8, 7
	note G_, 4
	note G#, 2
	volume_envelope 9, 7
	note A_, 6
	volume_envelope 8, 7
	note E_, 4
	note D#, 2
	volume_envelope 9, 7
	note D_, 8
	volume_envelope 8, 7
	note E_, 2
	note F_, 2
	volume_envelope 9, 7
	note G_, 6
	volume_envelope 8, 7
	note G_, 2
	note A_, 2
	note B_, 2
	sound_loop 0, Music_RanchTheme_Ch2
