Music_RocketHQ:
	channel_count 3
	channel 1, Music_RocketHQ_Ch1
	channel 2, Music_RocketHQ_Ch2
	channel 3, Music_RocketHQ_Ch3

Music_RocketHQ_Ch1:
	volume 7, 7
	duty_cycle 2
	vibrato 8, 2, 2
	pitch_offset 4
	note_type 12, 10, 7
	tempo 148
	octave 4
	volume_envelope 7, 7
	note G#, 8
	octave 5
	note D_, 6
	rest 2
	octave 3
	note E_, 1
	note D#, 1
	note B_, 1
	note A#, 1
	note G_, 1
	note G#, 1
	octave 2
	note C_, 1
	octave 3
	note A#, 1
	note E_, 1
	note D#, 1
	note B_, 1
	note A#, 1
	note G_, 1
	note G#, 1
	octave 2
	note C_, 1
	octave 3
	note A#, 1
	note E_, 1
	note D#, 1
	note B_, 1
	note A#, 1
	note G_, 1
	note G#, 1
	octave 2
	note C_, 1
	octave 3
	note A#, 1
	note E_, 1
	note D#, 1
	note B_, 1
	note A#, 1
	note G_, 1
	note G#, 1
	octave 2
	note C_, 1
	octave 3
	note A#, 1
	note E_, 1
	note D#, 1
	note B_, 1
	note A#, 1
	note G_, 1
	note G#, 1
	octave 2
	note C_, 1
	octave 3
	note A#, 1
	note E_, 1
	note D#, 1
	note B_, 1
	note A#, 1
	note G_, 1
	note G#, 1
	octave 2
	note C_, 1
	octave 3
	note A#, 1
	note E_, 1
	note D#, 1
	note B_, 1
	note A#, 1
	note G_, 1
	note G#, 1
	octave 2
	note C_, 1
	octave 3
	note A#, 1
	note E_, 1
	note D#, 1
	note B_, 1
	note A#, 1
	note G_, 1
	note G#, 1
	note A_, 1
	note A#, 1
	note E_, 1
	note D#, 1
	note B_, 1
	note A#, 1
	note G_, 1
	note G#, 1
	octave 2
	note C_, 1
	octave 3
	note A#, 1
	note E_, 1
	note D#, 1
	note B_, 1
	note A#, 1
	note G_, 1
	note G#, 1
	octave 2
	note C_, 1
	octave 3
	note A#, 1
	note E_, 1
	note D#, 1
	note B_, 1
	note A#, 1
	note G_, 1
	note G#, 1
	octave 2
	note C_, 1
	octave 3
	note A#, 1
	note E_, 1
	note D#, 1
	note B_, 1
	note A#, 1
	note G_, 1
	note G#, 1
	octave 2
	note C_, 1
	octave 3
	note A#, 1
	note E_, 1
	note D#, 1
	note B_, 1
	note A#, 1
	note G_, 1
	note G#, 1
	octave 2
	note C_, 1
	octave 3
	note A#, 1
	note E_, 1
	note D#, 1
	note B_, 1
	note A#, 1
	note G_, 1
	note G#, 1
	octave 2
	note C_, 1
	octave 3
	note A#, 1
	note E_, 1
	note D#, 1
	note B_, 1
	note A#, 1
	note G_, 1
	note G#, 1
	octave 2
	note C_, 1
	octave 3
	note A#, 1
	note E_, 1
	note D#, 1
	note B_, 1
	note A#, 1
	note G_, 1
	note G#, 1
	octave 2
	note C_, 1
	octave 3
	note A#, 1
	octave 4
	note E_, 2
	volume_envelope 4, 7
	note E_, 2
	rest 2
	octave 1
	volume_envelope 7, 7
	note E_, 2
	rest 2
	note E_, 2
	octave 3
	note G_, 1
	note F#, 1
	note E_, 1
	note G_, 1
	octave 5
	volume_envelope 6, 7
	note E_, 2
	volume_envelope 4, 7
	note E_, 2
	rest 2
	octave 1
	volume_envelope 7, 7
	note E_, 2
	rest 2
	note E_, 2
	octave 3
	note A_, 1
	note G_, 1
	note E_, 1
	note A_, 1
	octave 4
	note E_, 2
	volume_envelope 4, 7
	note E_, 2
	rest 2
	octave 1
	volume_envelope 7, 7
	note E_, 2
	rest 2
	note E_, 2
	octave 3
	note B_, 1
	note A_, 1
	rest 4
	octave 4
	note E_, 2
	rest 2
	note D#, 2
	rest 2
	note C_, 2
	rest 2
	octave 3
	note B_, 2
	rest 2
	volume_envelope 5, 7
	note F_, 1
	note E_, 1
	note G_, 1
	note E_, 1
	note A_, 1
	volume_envelope 6, 7
	note E_, 1
	note A#, 1
	note E_, 1
	note B_, 1
	note E_, 1
	octave 4
	volume_envelope 7, 7
	note C_, 1
	octave 3
	note B_, 1
	rest 2
	volume_envelope 5, 7
	note E_, 1
	note E_, 1
	note F_, 1
	note E_, 1
	note G_, 1
	note E_, 1
	note A_, 1
	volume_envelope 6, 7
	note E_, 1
	note A#, 1
	note E_, 1
	note B_, 1
	note E_, 1
	octave 4
	volume_envelope 7, 7
	note C_, 1
	note C_, 1
	rest 2
	octave 3
	volume_envelope 5, 7
	note E_, 1
	note E_, 1
	note F_, 1
	note E_, 1
	note G_, 1
	note E_, 1
	note A_, 1
	note E_, 1
	volume_envelope 6, 7
	note A#, 1
	note E_, 1
	note B_, 1
	note E_, 1
	octave 4
	volume_envelope 7, 7
	note C_, 1
	rest 5
	note E_, 2
	rest 2
	note D#, 2
	rest 2
	note C_, 4
	rest 4
	note C_, 4
	octave 3
	note B_, 2
	rest 2
	note G_, 1
	volume_envelope 6, 7
	volume_envelope 7, 7
	note G_, 3
	note F#, 2
	volume_envelope 5, 7
	note E_, 3
	rest 5
	note F_, 3
	rest 5
	volume_envelope 6, 7
	note F#, 3
	rest 5
	volume_envelope 7, 7
	note G_, 3
	rest 5
	octave 1
	note E_, 1
	note G_, 1
	note E_, 1
	note D#, 1
	rest 10
	note E_, 1
	rest 1
	note E_, 1
	note G_, 1
	note E_, 1
	note D#, 1
	rest 12
	note E_, 1
	note G_, 1
	note E_, 1
	note D#, 1
	rest 12
	note E_, 1
	note G_, 1
	note E_, 1
	note D#, 1
	rest 14
	octave 3
	note E_, 6
	note G_, 6
	note E_, 4
	note A_, 6
	octave 4
	note C_, 6
	octave 3
	note B_, 4
	note G_, 6
	note A#, 6
	note F#, 4
	note E_, 6
	note F#, 6
	note D#, 2
	rest 2
	note E_, 3
	rest 3
	note G_, 3
	rest 3
	note E_, 4
	note A_, 4
	rest 2
	octave 4
	note C_, 4
	rest 2
	octave 3
	note B_, 2
	rest 2
	note G_, 3
	rest 3
	note A#, 3
	rest 3
	note F#, 4
	note E_, 4
	rest 2
	note F#, 6
	note D#, 2
	note B_, 1
	note B_, 1
	note F_, 1
	note E_, 1
	octave 4
	note E_, 1
	octave 3
	note E_, 1
	octave 4
	note D#, 1
	octave 3
	note E_, 1
	octave 4
	note D_, 1
	octave 3
	note E_, 1
	octave 4
	note C#, 1
	note C_, 1
	note C_, 1
	octave 3
	note B_, 3
	note E_, 1
	note E_, 1
	note F_, 1
	note E_, 1
	note B_, 1
	note E_, 1
	octave 4
	note C_, 1
	octave 3
	note E_, 1
	octave 4
	note C#, 1
	octave 3
	note E_, 1
	octave 4
	note D_, 1
	note C#, 1
	note C_, 1
	note C_, 3
	octave 3
	note E_, 1
	note E_, 1
	note F_, 1
	note E_, 1
	octave 4
	note E_, 1
	octave 3
	note E_, 1
	octave 4
	note D#, 1
	octave 3
	note E_, 1
	octave 4
	note D_, 1
	octave 3
	note E_, 1
	octave 4
	note C#, 1
	note C_, 1
	note C_, 1
	note C#, 3
	octave 3
	note B_, 8
	octave 4
	note D#, 8
	octave 3
	volume_envelope 5, 7
	note E_, 1
	note D#, 1
	note B_, 1
	note A#, 1
	note G_, 1
	note G#, 1
	volume_envelope 7, 7
	note C_, 1
	volume_envelope 6, 7
	note A#, 1
	note E_, 1
	note D#, 1
	note B_, 1
	note A#, 1
	note G_, 1
	note G#, 1
	volume_envelope 7, 7
	note C_, 1
	volume_envelope 6, 7
	note A#, 1
	note E_, 1
	note D#, 1
	note B_, 1
	note A#, 1
	note G_, 1
	note G#, 1
	volume_envelope 7, 7
	note C_, 1
	note A#, 1
	note E_, 1
	note D#, 1
	note B_, 1
	note A#, 1
	note G_, 1
	note G#, 1
	note C_, 1
	note A#, 1
	note E_, 1
	note D#, 1
	note B_, 1
	note A#, 1
	note G_, 1
	note G#, 1
	note C_, 1
	note A#, 1
	note E_, 1
	note D#, 1
	note B_, 1
	note A#, 1
	note G_, 1
	note G#, 1
	note C_, 1
	note A#, 1
	note E_, 1
	note D#, 1
	note B_, 1
	note A#, 1
	note G_, 1
	note G#, 1
	octave 4
	note E_, 1
	octave 3
	note A#, 1
	note E_, 1
	octave 4
	note D#, 1
	octave 3
	note B_, 1
	note A#, 1
	octave 4
	note D_, 1
	octave 3
	note A#, 1
	note G#, 1
	note F#, 1
	sound_loop 0, Music_RocketHQ_Ch1

Music_RocketHQ_Ch2:
	vibrato 10, 3, 2
	duty_cycle 1
	pitch_offset 2
	note_type 12, 8, 7
	octave 4
	note G#, 8
	octave 5
	note D_, 6
	octave 3
	note D_, 1
	volume_envelope 9, 7
	note D#, 1
	octave 4
	note E_, 4
	note B_, 3
	rest 1
	note A#, 3
	rest 1
	octave 5
	note D_, 3
	rest 1
	note C#, 3
	rest 1
	octave 4
	note G#, 3
	rest 1
	note G_, 3
	rest 1
	note B_, 3
	rest 1
	note A#, 3
	rest 1
	note E_, 3
	rest 1
	note D#, 3
	rest 1
	note A_, 3
	rest 1
	note G#, 3
	rest 1
	note E_, 3
	rest 1
	note F#, 3
	rest 1
	note D#, 3
	rest 1
	note E_, 3
	rest 1
	note B_, 3
	rest 1
	note A#, 3
	rest 1
	octave 5
	note D_, 3
	rest 1
	note C#, 3
	rest 1
	octave 4
	note G#, 3
	rest 1
	note G_, 3
	rest 1
	note B_, 3
	rest 1
	note A#, 3
	rest 1
	note E_, 3
	rest 1
	note D#, 3
	rest 1
	note A_, 3
	rest 1
	note G#, 3
	rest 1
	note E_, 3
	rest 1
	note F#, 3
	rest 1
	volume_envelope 8, 7
	note D#, 3
	rest 1
	octave 3
	note E_, 1
	note E_, 1
	rest 4
	octave 2
	note E_, 1
	rest 3
	note E_, 1
	rest 1
	octave 3
	note F#, 4
	volume_envelope 7, 7
	note E_, 1
	volume_envelope 6, 7
	note E_, 1
	rest 4
	octave 2
	volume_envelope 8, 7
	note E_, 1
	rest 3
	note E_, 1
	rest 1
	octave 3
	note G_, 4
	rest 6
	octave 2
	note E_, 1
	rest 3
	note E_, 1
	rest 1
	octave 3
	note A_, 4
	note B_, 4
	note A#, 4
	note G_, 4
	note F#, 2
	rest 8
	note E_, 1
	rest 3
	note E_, 1
	rest 1
	note F#, 4
	rest 6
	note E_, 1
	rest 3
	note E_, 1
	rest 1
	note G_, 4
	rest 6
	note E_, 1
	rest 3
	note E_, 1
	note E_, 1
	volume_envelope 7, 7
	note A#, 4
	note B_, 2
	rest 2
	note A#, 2
	rest 2
	note G_, 2
	rest 2
	note F#, 2
	rest 2
	note G_, 2
	rest 2
	note F#, 2
	rest 2
	note E_, 2
	rest 2
	note D#, 2
	rest 2
	octave 2
	note E_, 1
	note G_, 1
	note E_, 1
	note D#, 1
	rest 12
	note E_, 1
	note G_, 1
	note E_, 1
	note D#, 1
	rest 12
	note E_, 1
	note G_, 1
	note E_, 1
	note D#, 1
	rest 10
	note E_, 1
	rest 1
	note E_, 1
	note G_, 1
	note E_, 1
	note D#, 1
	rest 12
	note E_, 1
	note G_, 1
	note E_, 1
	note D#, 1
	rest 12
	note E_, 1
	note G_, 1
	note E_, 1
	note D#, 1
	rest 10
	note D_, 1
	note D#, 1
	note E_, 4
	note B_, 4
	note A#, 4
	octave 3
	note D_, 4
	note C#, 4
	octave 2
	note G#, 4
	note G_, 4
	note B_, 4
	note A#, 4
	note E_, 4
	note D#, 4
	note A_, 4
	note G#, 4
	note E_, 4
	note F#, 4
	note D#, 4
	note E_, 4
	note B_, 4
	note A#, 4
	octave 3
	note D_, 4
	note C#, 4
	octave 2
	note G#, 4
	note G_, 4
	note B_, 4
	note A#, 4
	note E_, 4
	note D#, 4
	note A_, 4
	note G#, 4
	note E_, 4
	note F#, 4
	note D#, 4
	note E_, 2
	rest 4
	octave 3
	note E_, 1
	rest 3
	note E_, 1
	rest 1
	note F#, 4
	rest 6
	note E_, 1
	rest 3
	note E_, 1
	rest 1
	note G_, 4
	rest 6
	note E_, 1
	rest 3
	note E_, 1
	note E_, 1
	note A#, 4
	note B_, 6
	rest 2
	note F#, 4
	rest 2
	note D_, 1
	note D#, 1
	note E_, 1
	rest 16
	rest 16
	rest 16
	rest 13
	note D_, 1
	volume_envelope 9, 7
	note D#, 1
	sound_loop 0, Music_RocketHQ_Ch2

Music_RocketHQ_Ch3:
	vibrato 8, 1, 1
	note_type 12, 1, 0
	octave 5
	volume_envelope 3, 0
	note G#, 8
	octave 6
	volume_envelope 2, 0
	note D_, 8
	octave 3
	note E_, 1
	note D#, 1
	note B_, 1
	note A#, 1
	note G_, 1
	note G#, 1
	rest 1
	note A#, 1
	note E_, 1
	note D#, 1
	note B_, 1
	note A#, 1
	note G_, 1
	note G#, 1
	rest 1
	note A#, 1
	note E_, 1
	note D#, 1
	note B_, 1
	note A#, 1
	note G_, 1
	note G#, 1
	rest 1
	note A#, 1
	note E_, 1
	note D#, 1
	note B_, 1
	note A#, 1
	note G_, 1
	note G#, 1
	rest 1
	note A#, 1
	note E_, 1
	note D#, 1
	note B_, 1
	note A#, 1
	note G_, 1
	note G#, 1
	rest 1
	note A#, 1
	note E_, 1
	note D#, 1
	note B_, 1
	note A#, 1
	note G_, 1
	note G#, 1
	rest 1
	note A#, 1
	note E_, 1
	note D#, 1
	note B_, 1
	note A#, 1
	note G_, 1
	note G#, 1
	rest 1
	note A#, 1
	note E_, 1
	note D#, 1
	note B_, 1
	note A#, 1
	note G_, 1
	note G#, 1
	note A_, 1
	note A#, 1
	note E_, 1
	note D#, 1
	note B_, 1
	note A#, 1
	note G_, 1
	note G#, 1
	rest 1
	note A#, 1
	note E_, 1
	note D#, 1
	note B_, 1
	note A#, 1
	note G_, 1
	note G#, 1
	rest 1
	note A#, 1
	note E_, 1
	note D#, 1
	note B_, 1
	note A#, 1
	note G_, 1
	note G#, 1
	rest 1
	note A#, 1
	note E_, 1
	note D#, 1
	note B_, 1
	note A#, 1
	note G_, 1
	note G#, 1
	rest 1
	note A#, 1
	note E_, 1
	note D#, 1
	note B_, 1
	note A#, 1
	note G_, 1
	note G#, 1
	rest 1
	note A#, 1
	note E_, 1
	note D#, 1
	note B_, 1
	note A#, 1
	note G_, 1
	note G#, 1
	rest 1
	note A#, 1
	note E_, 1
	note D#, 1
	note B_, 1
	note A#, 1
	note G_, 1
	note G#, 1
	rest 1
	note A#, 1
	note E_, 1
	note D#, 1
	note B_, 1
	note A#, 1
	note G_, 1
	note G#, 1
	note C_, 1
	note A#, 1
	octave 5
	note E_, 4
	note E_, 4
	note E_, 5
	rest 3
	octave 6
	note E_, 2
	rest 2
	note E_, 4
	note E_, 4
	note E_, 1
	rest 3
	octave 5
	note E_, 2
	rest 2
	note E_, 4
	note E_, 4
	volume_envelope 3, 0
	note E_, 4
	rest 2
	octave 6
	volume_envelope 2, 0
	note E_, 2
	rest 2
	note D#, 2
	rest 2
	note C_, 2
	rest 2
	octave 5
	note B_, 3
	rest 11
	octave 6
	volume_envelope 1, 0
	note C_, 1
	octave 5
	volume_envelope 2, 0
	note B_, 5
	rest 10
	octave 6
	volume_envelope 1, 0
	note C_, 1
	volume_envelope 2, 0
	note C_, 5
	rest 10
	volume_envelope 1, 0
	note C_, 1
	volume_envelope 2, 0
	note C#, 3
	rest 1
	note D#, 1
	note E_, 2
	rest 2
	note D#, 2
	rest 2
	note C_, 2
	rest 2
	octave 5
	note B_, 2
	rest 2
	octave 6
	note C_, 2
	rest 2
	octave 5
	note B_, 2
	rest 2
	note G_, 1
	note G_, 3
	note F#, 2
	note B_, 1
	note A#, 2
	note A#, 1
	note B_, 1
	note A#, 1
	note G_, 1
	note A#, 1
	octave 6
	note C_, 1
	octave 5
	note B_, 2
	note B_, 1
	octave 6
	note C_, 1
	octave 5
	note B_, 1
	rest 1
	note B_, 1
	octave 6
	note C#, 1
	note C_, 2
	note C_, 1
	note C#, 1
	note C_, 1
	octave 5
	note A_, 1
	octave 6
	note C_, 1
	note D_, 1
	note C#, 1
	octave 5
	note A#, 1
	octave 6
	note C#, 1
	note D_, 1
	note C#, 1
	octave 5
	note A#, 1
	octave 6
	note C#, 1
	octave 2
	note E_, 1
	note G_, 1
	note E_, 1
	note D#, 1
	rest 10
	note E_, 1
	rest 1
	note E_, 1
	note G_, 1
	note E_, 1
	note D#, 1
	rest 12
	note E_, 1
	note G_, 1
	note E_, 1
	note D#, 1
	rest 12
	note E_, 1
	note G_, 1
	note E_, 1
	note D#, 1
	rest 10
	octave 5
	note D_, 1
	note D#, 1
	note E_, 2
	note E_, 2
	note B_, 2
	note B_, 2
	note A#, 2
	note A#, 2
	octave 6
	note D_, 2
	note D_, 2
	note C#, 2
	note C#, 2
	octave 5
	note G#, 2
	note G#, 2
	note G_, 2
	note G_, 2
	note B_, 2
	note B_, 2
	note A#, 2
	note A#, 2
	note E_, 2
	note E_, 2
	note D#, 2
	note D#, 2
	note A_, 2
	note A_, 2
	note G#, 2
	note G#, 2
	note E_, 2
	note E_, 2
	note F#, 2
	note F#, 2
	note D#, 2
	note D#, 2
	note E_, 2
	note E_, 2
	note B_, 2
	note B_, 2
	note A#, 2
	note A#, 2
	octave 6
	note D_, 2
	note D_, 2
	note C#, 2
	note C#, 2
	octave 5
	note G#, 2
	note G#, 2
	note G_, 2
	note G_, 2
	volume_envelope 3, 0
	note B_, 2
	rest 2
	octave 6
	volume_envelope 1, 0
	note C_, 16
	note C_, 4
	rest 12
	octave 5
	note E_, 1
	volume_envelope 2, 0
	note E_, 1
	octave 3
	note F_, 1
	note E_, 1
	octave 5
	note E_, 1
	octave 3
	note E_, 1
	octave 5
	note D#, 1
	octave 3
	note E_, 1
	octave 5
	note D_, 1
	octave 3
	note E_, 1
	octave 5
	note C#, 1
	note C_, 1
	octave 4
	note C_, 1
	rest 1
	note F#, 2
	rest 2
	octave 3
	note F_, 1
	note E_, 1
	octave 4
	note B_, 1
	octave 3
	note E_, 1
	octave 5
	note C_, 1
	octave 3
	note E_, 1
	octave 5
	note C#, 1
	octave 3
	note E_, 1
	octave 5
	note D_, 1
	note C#, 1
	octave 4
	note C_, 1
	rest 1
	volume_envelope 1, 0
	note G_, 2
	rest 2
	octave 3
	note F_, 1
	note E_, 1
	octave 5
	note E_, 1
	octave 3
	note E_, 1
	octave 5
	note D#, 1
	octave 3
	note E_, 1
	octave 5
	note D_, 1
	octave 3
	note E_, 1
	octave 5
	note C#, 1
	note C_, 1
	octave 4
	note A#, 1
	octave 5
	note C#, 3
	octave 4
	note B_, 2
	rest 2
	note F#, 1
	note D#, 1
	note D_, 1
	note D#, 1
	octave 5
	note D#, 2
	rest 2
	note D#, 1
	note D#, 1
	note D#, 1
	volume_envelope 2, 0
	note D#, 1
	note E_, 1
	note D_, 1
	octave 4
	note A#, 1
	octave 3
	note C_, 1
	rest 2
	note C_, 1
	octave 2
	note B_, 1
	octave 3
	note E_, 1
	note D#, 1
	note B_, 1
	note A#, 1
	note G_, 1
	note G#, 1
	note C_, 1
	note A#, 1
	note E_, 1
	note D#, 1
	note B_, 1
	note A#, 1
	note G_, 1
	note G#, 1
	note C_, 1
	note A#, 1
	note E_, 1
	note D#, 1
	note B_, 1
	note A#, 1
	note G_, 1
	note G#, 1
	note C_, 1
	note A#, 1
	note E_, 1
	note D#, 1
	note B_, 1
	note A#, 1
	note G_, 1
	note G#, 1
	note C_, 1
	note A#, 1
	note E_, 1
	note D#, 1
	note B_, 1
	note A#, 1
	note G_, 1
	note G#, 1
	note C_, 1
	note A#, 1
	note E_, 1
	note D#, 1
	note B_, 1
	note A#, 1
	note G_, 1
	note G#, 1
	octave 4
	note E_, 1
	octave 3
	note A#, 1
	note E_, 1
	octave 4
	note D#, 1
	octave 3
	note B_, 1
	note A#, 1
	octave 4
	note D_, 1
	octave 3
	note A#, 1
	note G#, 1
	note F#, 1
	sound_loop 0, Music_RocketHQ_Ch3
