Music_RocketBossBattle:
	channel_count 4
	channel 1, Music_RocketBossBattle_Ch1
	channel 2, Music_RocketBossBattle_Ch2
	channel 3, Music_RocketBossBattle_Ch3
	channel 4, Music_RocketBossBattle_Ch4

Music_RocketBossBattle_Ch1:
	volume 7, 7
	duty_cycle 2
	note_type 12, 7, 7
	vibrato 8, 2, 2
	tempo 140
	octave 4
	note A_, 1
	volume_envelope 6, 7
	note G#, 1
	volume_envelope 7, 7
	note A_, 1
	volume_envelope 6, 7
	note G#, 1
	volume_envelope 7, 7
	note A#, 1
	volume_envelope 6, 7
	note G#, 1
	volume_envelope 7, 7
	note A_, 1
	volume_envelope 6, 7
	note G#, 1
	volume_envelope 7, 7
	note B_, 1
	volume_envelope 6, 7
	note G#, 1
	volume_envelope 7, 7
	note A_, 1
	volume_envelope 6, 7
	note G#, 1
	octave 5
	volume_envelope 7, 7
	note C_, 1
	octave 4
	volume_envelope 6, 7
	note G#, 1
	volume_envelope 7, 7
	note A_, 1
	volume_envelope 6, 7
	note G#, 1
	octave 5
	volume_envelope 7, 7
	note C#, 1
	octave 4
	volume_envelope 6, 7
	note G#, 1
	volume_envelope 7, 7
	note A_, 1
	volume_envelope 6, 7
	note G#, 1
	octave 5
	note D_, 1
	octave 4
	note G#, 1
	volume_envelope 7, 7
	note A_, 1
	volume_envelope 6, 7
	note G#, 1
	octave 5
	volume_envelope 7, 7
	note D#, 1
	octave 4
	volume_envelope 6, 7
	note G#, 1
	volume_envelope 7, 7
	note A_, 1
	volume_envelope 6, 7
	note G#, 1
	octave 5
	note E_, 1
	octave 4
	note G#, 1
	volume_envelope 7, 7
	note A_, 1
	volume_envelope 6, 7
	note G#, 1
	rest 16
	stereo_panning FALSE, TRUE
	note D_, 1
	rest 5
	note D_, 1
	rest 3
	volume_envelope 7, 7
	note D_, 2
	note D#, 16
	note D#, 4
	rest 16
	rest 16
	stereo_panning TRUE, FALSE
	volume_envelope 6, 7
	note D_, 1
	rest 5
	note D_, 1
	rest 3
	volume_envelope 8, 7
	note D_, 2
	volume_envelope 10, 7
	note D#, 16
	note D#, 4
	rest 16
Music_RocketBossBattle_Ch1_loop:
	rest 10
	stereo_panning FALSE, TRUE
	octave 3
	note C_, 2
	note C#, 4
	note A_, 6
	note G#, 6
	note E_, 4
	note A_, 6
	note G#, 6
	note E_, 2
	volume_envelope 9, 7
	note D_, 1
	volume_envelope 8, 7
	note E_, 1
	volume_envelope 9, 7
	note F_, 2
	volume_envelope 8, 7
	note E_, 1
	stereo_panning TRUE, TRUE
	rest 1
	volume_envelope 9, 7
	note F_, 1
	rest 1
	volume_envelope 8, 7
	note G_, 1
	rest 1
	volume_envelope 9, 7
	note A_, 2
	volume_envelope 8, 7
	note G#, 1
	stereo_panning TRUE, FALSE
	rest 1
	volume_envelope 9, 7
	note A_, 1
	rest 1
	octave 4
	volume_envelope 8, 7
	note C_, 1
	rest 1
	volume_envelope 9, 7
	note D_, 2
	volume_envelope 8, 7
	note C#, 1
	rest 1
	note D_, 1
	rest 1
	volume_envelope 9, 7
	note E_, 1
	rest 1
	note F_, 2
	volume_envelope 8, 7
	note E_, 1
	rest 1
	volume_envelope 9, 7
	note G_, 1
	rest 1
	volume_envelope 8, 7
	note A#, 1
	note G_, 1
	volume_envelope 9, 7
	note A_, 4
	rest 2
	note G#, 6
	note E_, 4
	note A_, 6
	note G#, 6
	note E_, 2
	note D_, 1
	volume_envelope 8, 7
	note E_, 1
	volume_envelope 9, 7
	note F_, 2
	note F_, 6
	octave 3
	note A_, 4
	note A#, 4
	stereo_panning TRUE, TRUE
	octave 4
	note D_, 4
	note D#, 4
	stereo_panning FALSE, TRUE
	note F_, 4
	note F#, 4
	octave 2
	note A#, 1
	note A#, 1
	rest 1
	note A#, 1
	note A#, 1
	rest 1
	note A#, 1
	note A#, 1
	rest 1
	note A#, 1
	note A#, 1
	rest 1
	note A#, 1
	note A#, 1
	rest 1
	note A#, 1
	volume_envelope 8, 7
	octave 3
	note D#, 6
	octave 2
	note A#, 6
	octave 3
	note D#, 4
	octave 2
	stereo_panning TRUE, FALSE
	note B_, 1
	note B_, 1
	rest 1
	note B_, 1
	note B_, 1
	rest 1
	note B_, 1
	note B_, 1
	rest 1
	note B_, 1
	note B_, 1
	rest 1
	note B_, 1
	note B_, 1
	rest 1
	note B_, 1
	octave 3
	note E_, 6
	octave 2
	note B_, 6
	octave 3
	note E_, 4
	octave 4
	stereo_panning TRUE, TRUE
	note E_, 6
	note D_, 4
	octave 3
	note G_, 2
	note A#, 4
	note A_, 6
	note G_, 4
	note E_, 2
	note F_, 4
	note E_, 6
	note D_, 6
	note D#, 4
	note E_, 1
	note E_, 1
	rest 1
	stereo_panning FALSE, TRUE
	note E_, 1
	stereo_panning TRUE, FALSE
	note E_, 1
	rest 1
	stereo_panning TRUE, TRUE
	note E_, 1
	stereo_panning FALSE, TRUE
	note E_, 1
	rest 1
	note E_, 1
	stereo_panning TRUE, FALSE
	note E_, 1
	rest 1
	note E_, 4
	volume_envelope 5, 7
	stereo_panning TRUE, TRUE
	note D_, 1
	note C#, 1
	note A_, 1
	note G#, 1
	note F_, 1
	note F#, 1
	rest 1
	note G#, 1
	note D_, 1
	note C#, 1
	note A_, 1
	note G#, 1
	note F_, 1
	note F#, 1
	rest 1
	note G#, 1
	note D_, 1
	note C#, 1
	note A_, 1
	note G#, 1
	note F_, 1
	note F#, 1
	rest 1
	note G#, 1
	note D_, 1
	note C#, 1
	note A_, 1
	note G#, 1
	note F_, 1
	note F#, 1
	rest 1
	note G#, 1
	note D_, 1
	note C#, 1
	note A_, 1
	note G#, 1
	note F_, 1
	note F#, 1
	rest 1
	note G#, 1
	note D_, 1
	note C#, 1
	note A_, 1
	note G#, 1
	note F_, 1
	note F#, 1
	rest 1
	note G#, 1
	note D_, 1
	note C#, 1
	note A_, 1
	note G#, 1
	note F_, 1
	note F#, 1
	rest 1
	note G#, 1
	note D_, 1
	note C#, 1
	note A_, 1
	note G#, 1
	note F_, 1
	note F#, 1
	note G_, 1
	note G#, 1
	note D_, 1
	note C#, 1
	note A_, 1
	note G#, 1
	note F_, 1
	note F#, 1
	rest 1
	note G#, 1
	note D_, 1
	note C#, 1
	note A_, 1
	note G#, 1
	note F_, 1
	note F#, 1
	rest 1
	note G#, 1
	note D_, 1
	note C#, 1
	note A_, 1
	note G#, 1
	note F_, 1
	note F#, 1
	rest 1
	note G#, 1
	note D_, 1
	note C#, 1
	note A_, 1
	note G#, 1
	note F_, 1
	note F#, 1
	rest 1
	note G#, 1
	note D_, 1
	note C#, 1
	note A_, 1
	note G#, 1
	note F_, 1
	note F#, 1
	rest 1
	note G#, 1
	note D_, 1
	note C#, 1
	note A_, 1
	note G#, 1
	note F_, 1
	note F#, 1
	rest 1
	note G#, 1
	note D_, 1
	note C#, 1
	note A_, 1
	note G#, 1
	note F_, 1
	note F#, 1
	rest 1
	note G#, 1
	note D_, 1
	note C#, 1
	note A_, 1
	note G#, 1
	note F_, 1
	note F#, 1
	rest 1
	note G#, 1
	rest 2
	stereo_panning TRUE, FALSE
	volume_envelope 10, 7
	note G_, 4
	rest 2
	volume_envelope 9, 7
	note A_, 8
	volume_envelope 10, 7
	note A#, 6
	volume_envelope 9, 7
	note A_, 1
	rest 3
	volume_envelope 10, 7
	note A#, 1
	rest 1
	volume_envelope 9, 7
	note A_, 1
	rest 1
	octave 4
	note A#, 2
	rest 2
	volume_envelope 10, 7
	note D#, 4
	rest 2
	volume_envelope 9, 7
	note F_, 4
	volume_envelope 10, 7
	note C_, 1
	volume_envelope 9, 7
	note D_, 1
	note D#, 1
	note F_, 1
	volume_envelope 10, 7
	note F#, 6
	volume_envelope 9, 7
	note D#, 1
	rest 3
	volume_envelope 10, 7
	note F#, 1
	rest 1
	volume_envelope 9, 7
	note D#, 1
	rest 1
	octave 5
	volume_envelope 10, 7
	note D#, 1
	stereo_panning TRUE, TRUE
	rest 16
	rest 16
	rest 16
	rest 16
	rest 1
	octave 3
	volume_envelope 9, 7
	note D_, 1
	rest 5
	note D_, 1
	rest 5
	note D_, 1
	rest 3
	note D_, 1
	rest 5
	note D_, 1
	rest 3
	note F_, 1
	rest 1
	note D#, 3
	rest 1
	note D_, 1
	rest 5
	note D_, 1
	rest 3
	note F_, 1
	rest 1
	note D#, 3
	rest 1
	note D_, 1
	rest 15
	note D#, 1
	rest 5
	note D#, 1
	rest 5
	note D#, 1
	rest 3
	note D#, 1
	rest 5
	note D#, 1
	rest 3
	note F#, 1
	rest 1
	note E_, 3
	rest 1
	note D#, 1
	rest 5
	note D#, 1
	rest 3
	note F#, 1
	rest 1
	note E_, 3
	rest 1
	note D#, 1
	rest 15
	stereo_panning TRUE, FALSE
	octave 4
	note A_, 6
	note G_, 6
	note A_, 4
	note A#, 6
	octave 5
	note D_, 6
	octave 4
	note A#, 4
	note A_, 6
	note G_, 6
	note A_, 4
	volume_envelope 10, 7
	note A_, 16
	octave 2
	sound_loop 0, Music_RocketBossBattle_Ch1_loop

Music_RocketBossBattle_Ch2:
	duty_cycle 1
	note_type 12, 9, 7
	vibrato 10, 3, 2
	octave 4
	note E_, 1
	note D#, 1
	note D_, 1
	note C#, 1
	note D_, 1
	note C#, 1
	note C_, 1
	octave 3
	note B_, 1
	octave 4
	note C_, 1
	octave 3
	note B_, 1
	note A#, 1
	note A_, 1
	note A#, 1
	note A_, 1
	note G#, 1
	note G_, 1
	note G#, 1
	note G_, 1
	note F#, 1
	note F_, 1
	note F#, 1
	note F_, 1
	note E_, 1
	note D#, 1
	note E_, 1
	note D#, 1
	note D_, 1
	note C#, 1
	note D_, 1
	note C#, 1
	note C_, 1
	octave 2
	note B_, 1
	rest 16
	stereo_panning TRUE, FALSE
	octave 3
	note D_, 1
	rest 5
	note D_, 1
	rest 3
	note D_, 2
	note D#, 16
	note D#, 2
	rest 16
	rest 16
	stereo_panning FALSE, TRUE
	rest 2
	octave 5
	note D_, 1
	rest 5
	note D_, 1
	rest 3
	note D_, 2
	note D#, 16
	octave 4
	note D#, 2
	rest 16
	rest 2
Music_RocketBossBattle_Ch2_loop:
	rest 10
	stereo_panning TRUE, FALSE
	octave 2
	note C_, 2
	volume_envelope 10, 7
	note C#, 4
	volume_envelope 8, 7
	note A_, 6
	note G#, 6
	note E_, 4
	note A_, 6
	note G#, 6
	note E_, 4
	octave 3
	stereo_panning TRUE, TRUE
	note F_, 16
	note F_, 14
	rest 1
	volume_envelope 7, 7
	stereo_panning FALSE, TRUE
	note G_, 1
	volume_envelope 8, 7
	note A_, 6
	note G#, 6
	note E_, 4
	note A_, 6
	note G#, 6
	note E_, 4
	stereo_panning TRUE, TRUE
	note F_, 16
	note A#, 16
	volume_envelope 6, 7
	note E_, 16
	note A_, 6
	note E_, 6
	note A_, 4
	note F_, 16
	note A#, 6
	note F_, 6
	note A#, 4
	note A_, 16
	volume_envelope 5, 7
	note A_, 16
	volume_envelope 6, 7
	note E_, 16
	volume_envelope 5, 7
	note A_, 16
	volume_envelope 9, 7
	note D_, 4
	note A_, 4
	note G#, 4
	stereo_panning FALSE, TRUE
	octave 4
	note C_, 4
	octave 3
	note B_, 4
	note F#, 4
	stereo_panning TRUE, TRUE
	note F_, 4
	note A_, 4
	note G#, 4
	stereo_panning TRUE, FALSE
	note D_, 4
	note C#, 4
	note G_, 4
	stereo_panning TRUE, TRUE
	note F#, 4
	note D_, 4
	note E_, 4
	stereo_panning FALSE, TRUE
	note C#, 4
	note D_, 4
	note A_, 4
	stereo_panning TRUE, TRUE
	note G#, 4
	octave 4
	note C_, 4
	octave 3
	note B_, 4
	stereo_panning TRUE, FALSE
	note F#, 4
	note F_, 4
	note A_, 4
	stereo_panning TRUE, TRUE
	note G#, 4
	note D_, 4
	note C#, 4
	stereo_panning FALSE, TRUE
	note G_, 4
	note F#, 4
	note D_, 4
	stereo_panning TRUE, TRUE
	note E_, 4
	note C#, 4
	rest 2
	volume_envelope 5, 7
	stereo_panning FALSE, TRUE
	octave 2
	note G_, 4
	rest 2
	note A_, 8
	note A#, 6
	note A_, 1
	rest 3
	note A#, 1
	rest 1
	note A_, 1
	rest 1
	octave 3
	note A#, 2
	rest 2
	note D#, 4
	rest 2
	note F_, 4
	note C_, 1
	note D_, 1
	note D#, 1
	note F_, 1
	note F#, 6
	note D#, 1
	rest 3
	note F#, 1
	rest 1
	note D#, 1
	rest 1
	octave 4
	note D#, 1
	rest 1
	octave 3
	volume_envelope 8, 7
	stereo_panning TRUE, TRUE
	note A#, 6
	octave 4
	note D_, 6
	note C_, 4
	octave 3
	note A#, 2
	octave 4
	note C_, 2
	note D_, 2
	note E_, 2
	note F_, 2
	note G_, 2
	note A_, 2
	note A#, 2
	note A_, 2
	note E_, 2
	note A_, 2
	note A#, 2
	note A_, 2
	note E_, 2
	note D_, 2
	note E_, 2
	note A_, 2
	note E_, 2
	note A_, 2
	octave 5
	note C#, 2
	note D_, 2
	note C#, 2
	octave 4
	note A#, 2
	note G_, 2
	rest 16
	rest 16
	rest 16
	stereo_panning TRUE, FALSE
	rest 6
	octave 3
	volume_envelope 10, 7
	note E_, 2
	volume_envelope 11, 7
	note A_, 7
	rest 16
	rest 16
	rest 16
	stereo_panning FALSE, TRUE
	rest 7
	volume_envelope 10, 7
	note F_, 2
	volume_envelope 11, 7
	note A#, 8
	volume_envelope 9, 7
	note A_, 6
	note G_, 6
	note A_, 4
	note A#, 6
	octave 4
	note D_, 6
	octave 3
	note A#, 4
	note A_, 6
	note G_, 6
	note A_, 4
	note A_, 15
	rest 1
	sound_loop 0, Music_RocketBossBattle_Ch2_loop

Music_RocketBossBattle_Ch3:
	vibrato 8, 1, 1
	note_type 12, 2, 0
	octave 3
	note A_, 2
	octave 4
	note E_, 2
	octave 3
	note G#, 2
	octave 4
	note E_, 2
	octave 3
	note G_, 2
	octave 4
	note E_, 2
	octave 3
	note F#, 2
	octave 4
	note E_, 2
	octave 3
	note F_, 2
	octave 4
	note E_, 2
	octave 3
	note E_, 2
	octave 4
	note E_, 2
	octave 2
	note B_, 2
	octave 3
	note C_, 2
	octave 2
	note B_, 2
	note A#, 2
	rest 16
	octave 5
	note D_, 4
	rest 16
	rest 12
	octave 4
	note A_, 2
	note D_, 1
	rest 1
	note D_, 1
	rest 1
	note A_, 2
	note D_, 1
	rest 1
	note D_, 1
	rest 16
	rest 5
	octave 5
	note D_, 4
	rest 16
	rest 12
	volume_envelope 1, 0
	octave 4
	note A_, 2
	volume_envelope 2, 0
	note D_, 1
	rest 1
	note D_, 1
	rest 1
	volume_envelope 1, 0
	note A_, 2
	volume_envelope 2, 0
	note D_, 1
	rest 1
	note D_, 1
	rest 5
Music_RocketBossBattle_Ch3_loop:
	rest 16
	octave 5
	note A_, 6
	note G#, 6
	note E_, 4
	note A_, 6
	note G#, 6
	note E_, 4
	octave 4
	note F_, 16
	rest 8
	octave 5
	note A#, 7
	rest 1
	note A_, 6
	note G#, 6
	note E_, 4
	note A_, 6
	note G#, 6
	note E_, 4
	note F_, 16
	rest 15
	volume_envelope 1, 0
	note G_, 1
	note A_, 2
	note G#, 2
	note A_, 2
	octave 6
	note C_, 4
	volume_envelope 2, 0
	octave 5
	note A#, 1
	rest 1
	volume_envelope 1, 0
	note A_, 2
	note G_, 1
	rest 1
	note A_, 2
	octave 6
	note C_, 1
	rest 3
	note C_, 9
	octave 5
	note A_, 1
	note A#, 2
	note A_, 2
	note A#, 2
	octave 6
	note D_, 4
	volume_envelope 2, 0
	note C_, 1
	rest 1
	volume_envelope 1, 0
	octave 5
	note A#, 2
	note A_, 1
	rest 1
	note A#, 2
	octave 6
	note D_, 1
	rest 3
	note D_, 9
	rest 1
	volume_envelope 2, 0
	octave 5
	note A_, 6
	note G_, 6
	note F_, 4
	note E_, 6
	note F_, 6
	note G_, 4
	note A_, 6
	note A#, 6
	note G#, 4
	note A_, 4
	rest 12
	volume_envelope 1, 0
	octave 4
	note A_, 2
	volume_envelope 2, 0
	note D_, 1
	note D_, 1
	note D_, 1
	rest 1
	volume_envelope 1, 0
	note A_, 2
	volume_envelope 2, 0
	note D_, 1
	note D_, 1
	note D_, 1
	note D_, 1
	rest 16
	rest 4
	volume_envelope 1, 0
	note A_, 2
	volume_envelope 2, 0
	note D_, 1
	note D_, 1
	note D_, 1
	rest 1
	volume_envelope 1, 0
	note A_, 2
	volume_envelope 2, 0
	note D_, 1
	note D_, 1
	note D_, 1
	note D_, 1
	rest 16
	rest 4
	volume_envelope 1, 0
	note A_, 2
	volume_envelope 2, 0
	note D_, 1
	note D_, 1
	note D_, 1
	rest 1
	volume_envelope 1, 0
	note A_, 2
	volume_envelope 2, 0
	note D_, 1
	note D_, 1
	note D_, 1
	note D_, 1
	rest 16
	rest 4
	volume_envelope 1, 0
	note A_, 2
	volume_envelope 2, 0
	note D_, 1
	note D_, 1
	note D_, 1
	rest 1
	volume_envelope 1, 0
	note A_, 2
	volume_envelope 2, 0
	note D_, 1
	note D_, 1
	note D_, 1
	note D_, 1
	rest 16
	rest 16
	rest 16
	rest 16
	rest 16
	rest 4
	volume_envelope 1, 0
	note F_, 2
	volume_envelope 2, 0
	octave 3
	note A#, 1
	note A#, 1
	note A#, 1
	rest 1
	volume_envelope 1, 0
	octave 4
	note F_, 2
	volume_envelope 2, 0
	octave 3
	note A#, 1
	note A#, 1
	note A#, 1
	note A#, 1
	rest 4
	volume_envelope 1, 0
	octave 5
	note D_, 2
	volume_envelope 2, 0
	octave 4
	note G_, 1
	note G_, 1
	note G_, 1
	rest 1
	volume_envelope 1, 0
	octave 5
	note D_, 2
	volume_envelope 2, 0
	octave 4
	note G_, 1
	note G_, 1
	note G_, 1
	note G_, 1
	rest 4
	volume_envelope 1, 0
	octave 5
	note E_, 2
	volume_envelope 2, 0
	octave 4
	note A_, 1
	note A_, 1
	note A_, 1
	rest 1
	volume_envelope 1, 0
	octave 5
	note E_, 2
	volume_envelope 2, 0
	octave 4
	note A_, 1
	note A_, 1
	note A_, 1
	note A_, 1
	rest 4
	volume_envelope 1, 0
	octave 5
	note A_, 2
	volume_envelope 2, 0
	note D_, 1
	note D_, 1
	note D_, 1
	rest 1
	volume_envelope 1, 0
	note A_, 2
	volume_envelope 2, 0
	note D_, 1
	note D_, 1
	note D_, 1
	note D_, 1
	rest 4
	volume_envelope 1, 0
	octave 4
	note A_, 2
	volume_envelope 2, 0
	note D_, 1
	note D_, 1
	note D_, 1
	rest 1
	volume_envelope 1, 0
	note A_, 2
	volume_envelope 2, 0
	note D_, 1
	note D_, 1
	note D_, 1
	note D_, 1
	volume_envelope 1, 0
	note A_, 2
	note D_, 1
	rest 1
	note A_, 2
	volume_envelope 2, 0
	note D_, 1
	note D_, 1
	note D_, 1
	rest 1
	volume_envelope 1, 0
	note A_, 2
	volume_envelope 2, 0
	note D_, 1
	note D_, 1
	note D_, 1
	note D_, 1
	volume_envelope 1, 0
	note A_, 2
	note D_, 1
	rest 1
	note A_, 2
	volume_envelope 2, 0
	note D_, 1
	note D_, 1
	note D_, 1
	rest 1
	volume_envelope 1, 0
	note A_, 2
	volume_envelope 2, 0
	note D_, 1
	note D_, 1
	note D_, 1
	note D_, 1
	volume_envelope 1, 0
	note A_, 2
	note D_, 1
	rest 1
	note A_, 2
	rest 14
	note A#, 2
	volume_envelope 2, 0
	note D#, 1
	note D#, 1
	note D#, 1
	rest 1
	volume_envelope 1, 0
	note A#, 2
	volume_envelope 2, 0
	note D#, 1
	note D#, 1
	note D#, 1
	note D#, 1
	volume_envelope 1, 0
	note A#, 2
	note D#, 1
	rest 1
	note A#, 2
	volume_envelope 2, 0
	note D#, 1
	note D#, 1
	note D#, 1
	rest 1
	volume_envelope 1, 0
	note A#, 2
	volume_envelope 2, 0
	note D#, 1
	note D#, 1
	note D#, 1
	note D#, 1
	volume_envelope 1, 0
	note A#, 2
	note D#, 1
	rest 1
	note A#, 2
	volume_envelope 2, 0
	note D#, 1
	note D#, 1
	note D#, 1
	rest 1
	volume_envelope 1, 0
	note A#, 2
	volume_envelope 2, 0
	note D#, 1
	note D#, 1
	note D#, 1
	note D#, 1
	volume_envelope 1, 0
	note A#, 2
	note D#, 1
	rest 1
	note A#, 2
	rest 14
	note A_, 2
	volume_envelope 2, 0
	note D_, 1
	note D_, 1
	note D_, 1
	rest 1
	volume_envelope 1, 0
	note A_, 2
	volume_envelope 2, 0
	note D_, 1
	note D_, 1
	note D_, 1
	note D_, 1
	volume_envelope 1, 0
	note A_, 2
	note D_, 1
	rest 1
	note A#, 2
	volume_envelope 2, 0
	note D#, 1
	note D#, 1
	note D#, 1
	rest 1
	volume_envelope 1, 0
	note A#, 2
	volume_envelope 2, 0
	note D#, 1
	note D#, 1
	note D#, 1
	note D#, 1
	volume_envelope 1, 0
	note A#, 2
	note D#, 1
	rest 1
	note A_, 2
	volume_envelope 2, 0
	note D_, 1
	note D_, 1
	note D_, 1
	rest 1
	volume_envelope 1, 0
	note A_, 2
	volume_envelope 2, 0
	note D_, 1
	note D_, 1
	note D_, 1
	note D_, 1
	volume_envelope 1, 0
	note A_, 2
	note D_, 1
	rest 1
	note A_, 2
	volume_envelope 2, 0
	note D_, 1
	note D_, 1
	note D_, 1
	rest 1
	volume_envelope 1, 0
	note A_, 2
	volume_envelope 2, 0
	note D_, 1
	note D_, 1
	note D_, 1
	note D_, 1
	volume_envelope 1, 0
	note A_, 2
	volume_envelope 2, 0
	note D_, 2
	octave 2
	sound_loop 0, Music_RocketBossBattle_Ch3_loop

Music_RocketBossBattle_Ch4:
	toggle_noise 5
	drum_speed 12
	rest 16
	rest 16
	rest 16
	drum_note 1, 2
	drum_note 1, 2
	drum_note 1, 2
	drum_note 2, 2
	drum_note 1, 2
	drum_note 1, 2
	drum_note 2, 2
	drum_note 1, 2
	drum_note 2, 2
	drum_note 1, 2
	drum_note 1, 2
	drum_note 2, 2
	drum_note 1, 2
	drum_note 1, 2
	drum_note 2, 2
	drum_note 1, 2
	drum_note 1, 2
	drum_note 1, 2
	drum_note 1, 2
	drum_note 2, 2
	drum_note 1, 2
	drum_note 1, 2
	drum_note 2, 2
	drum_note 1, 2
	drum_note 2, 2
	drum_note 1, 1
	drum_note 2, 1
	drum_note 1, 2
	drum_note 2, 2
	drum_note 1, 1
	drum_note 2, 1
	drum_note 1, 2
	drum_note 2, 2
	drum_note 1, 1
	drum_note 2, 1
	drum_note 1, 2
	drum_note 1, 2
	drum_note 1, 2
	drum_note 2, 2
	drum_note 1, 2
	drum_note 1, 2
	drum_note 2, 2
	drum_note 1, 2
	drum_note 2, 2
	drum_note 1, 1
	drum_note 2, 1
	drum_note 1, 2
	drum_note 2, 2
	drum_note 1, 1
	drum_note 2, 1
	drum_note 1, 2
	drum_note 2, 2
	drum_note 1, 1
	drum_note 2, 1
	drum_note 1, 2
	drum_note 1, 2
	drum_note 1, 2
	drum_note 2, 2
	drum_note 1, 2
	drum_note 1, 2
	drum_note 2, 2
	drum_note 1, 2
Music_RocketBossBattle_Ch4_loop:
	drum_note 2, 2
	drum_note 1, 1
	drum_note 2, 1
	drum_note 1, 2
	drum_note 2, 2
	drum_note 1, 1
	drum_note 2, 1
	drum_note 1, 2
	drum_note 2, 2
	drum_note 1, 1
	drum_note 2, 1
	drum_note 1, 2
	drum_note 1, 2
	drum_note 1, 2
	drum_note 2, 2
	drum_note 1, 2
	drum_note 1, 2
	drum_note 2, 2
	drum_note 1, 2
	drum_note 2, 2
	drum_note 1, 1
	drum_note 2, 1
	drum_note 1, 2
	drum_note 2, 2
	drum_note 1, 1
	drum_note 2, 1
	drum_note 1, 2
	drum_note 2, 2
	drum_note 1, 1
	drum_note 2, 1
	drum_note 1, 2
	drum_note 1, 2
	drum_note 1, 2
	drum_note 2, 2
	drum_note 1, 2
	drum_note 1, 2
	drum_note 2, 2
	drum_note 1, 2
	drum_note 2, 2
	drum_note 1, 1
	drum_note 2, 1
	drum_note 1, 2
	drum_note 2, 2
	drum_note 1, 1
	drum_note 2, 1
	drum_note 1, 2
	drum_note 2, 2
	drum_note 1, 1
	drum_note 2, 1
	drum_note 1, 2
	drum_note 1, 2
	drum_note 1, 2
	drum_note 2, 2
	drum_note 1, 2
	drum_note 1, 2
	drum_note 2, 2
	drum_note 1, 2
	drum_note 2, 2
	drum_note 1, 1
	drum_note 2, 1
	drum_note 1, 2
	drum_note 2, 2
	drum_note 1, 1
	drum_note 2, 1
	drum_note 1, 2
	drum_note 2, 2
	drum_note 1, 1
	drum_note 2, 1
	drum_note 1, 2
	drum_note 1, 2
	drum_note 1, 2
	drum_note 2, 2
	drum_note 1, 2
	drum_note 1, 2
	drum_note 2, 2
	drum_note 1, 2
	drum_note 2, 2
	drum_note 1, 1
	drum_note 2, 1
	drum_note 1, 2
	drum_note 2, 2
	drum_note 1, 1
	drum_note 2, 1
	drum_note 1, 2
	drum_note 2, 2
	drum_note 1, 1
	drum_note 2, 1
	drum_note 1, 2
	drum_note 1, 2
	drum_note 1, 2
	drum_note 2, 2
	drum_note 1, 2
	drum_note 1, 2
	drum_note 2, 2
	drum_note 1, 2
	drum_note 2, 2
	drum_note 1, 1
	drum_note 2, 1
	drum_note 1, 2
	drum_note 2, 2
	drum_note 1, 1
	drum_note 2, 1
	drum_note 1, 2
	drum_note 2, 2
	drum_note 1, 1
	drum_note 2, 1
	drum_note 1, 2
	drum_note 1, 2
	drum_note 1, 2
	drum_note 2, 2
	drum_note 1, 2
	drum_note 1, 2
	drum_note 2, 2
	drum_note 1, 2
	drum_note 2, 2
	drum_note 1, 1
	drum_note 2, 1
	drum_note 1, 2
	drum_note 2, 2
	drum_note 1, 1
	drum_note 2, 1
	drum_note 1, 2
	drum_note 2, 2
	drum_note 1, 1
	drum_note 2, 1
	rest 16
	rest 16
	rest 16
	rest 16
	drum_note 1, 2
	drum_note 1, 2
	drum_note 1, 2
	drum_note 2, 2
	drum_note 1, 2
	drum_note 1, 2
	drum_note 2, 2
	drum_note 1, 2
	drum_note 2, 2
	drum_note 1, 1
	drum_note 2, 1
	drum_note 1, 2
	drum_note 2, 2
	drum_note 1, 1
	drum_note 2, 1
	drum_note 1, 2
	drum_note 2, 2
	drum_note 1, 1
	drum_note 2, 1
	drum_note 1, 2
	drum_note 1, 2
	drum_note 1, 2
	drum_note 2, 2
	drum_note 1, 2
	drum_note 1, 2
	drum_note 2, 2
	drum_note 1, 2
	drum_note 2, 2
	drum_note 1, 1
	drum_note 2, 1
	drum_note 1, 2
	drum_note 2, 2
	drum_note 1, 1
	drum_note 2, 1
	drum_note 1, 2
	drum_note 2, 2
	drum_note 1, 1
	drum_note 2, 1
	drum_note 1, 2
	drum_note 1, 2
	drum_note 1, 2
	drum_note 2, 2
	drum_note 1, 2
	drum_note 1, 2
	drum_note 2, 2
	drum_note 1, 2
	drum_note 2, 2
	drum_note 1, 1
	drum_note 2, 1
	drum_note 1, 2
	drum_note 2, 2
	drum_note 1, 1
	drum_note 2, 1
	drum_note 1, 2
	drum_note 2, 2
	drum_note 1, 1
	drum_note 2, 1
	drum_note 1, 2
	drum_note 1, 2
	drum_note 1, 2
	drum_note 2, 2
	drum_note 1, 2
	drum_note 1, 2
	drum_note 2, 2
	drum_note 1, 2
	drum_note 2, 2
	drum_note 1, 1
	drum_note 2, 1
	drum_note 1, 2
	drum_note 2, 2
	drum_note 1, 1
	drum_note 2, 1
	drum_note 1, 2
	drum_note 2, 2
	drum_note 1, 1
	drum_note 2, 1
	drum_note 1, 2
	drum_note 1, 2
	drum_note 1, 2
	drum_note 2, 2
	drum_note 1, 2
	drum_note 1, 2
	drum_note 2, 2
	drum_note 1, 2
	drum_note 2, 2
	drum_note 1, 1
	drum_note 2, 1
	drum_note 1, 2
	drum_note 2, 2
	drum_note 1, 1
	drum_note 2, 1
	drum_note 1, 2
	drum_note 2, 2
	drum_note 1, 1
	drum_note 2, 1
	drum_note 1, 2
	drum_note 1, 2
	drum_note 1, 2
	drum_note 2, 2
	drum_note 1, 2
	drum_note 1, 2
	drum_note 2, 2
	drum_note 1, 2
	drum_note 2, 2
	drum_note 1, 1
	drum_note 2, 1
	drum_note 1, 2
	drum_note 2, 2
	drum_note 1, 1
	drum_note 2, 1
	drum_note 1, 2
	drum_note 2, 2
	drum_note 1, 1
	drum_note 2, 1
	drum_note 1, 2
	drum_note 1, 2
	drum_note 1, 2
	drum_note 2, 2
	drum_note 1, 2
	drum_note 1, 2
	drum_note 2, 2
	drum_note 1, 2
	drum_note 2, 2
	drum_note 1, 1
	drum_note 2, 1
	drum_note 1, 2
	drum_note 2, 2
	drum_note 1, 1
	drum_note 2, 1
	drum_note 1, 2
	drum_note 2, 2
	drum_note 1, 1
	drum_note 2, 1
	drum_note 1, 2
	drum_note 1, 2
	drum_note 1, 2
	drum_note 2, 2
	drum_note 1, 2
	drum_note 1, 2
	drum_note 2, 2
	drum_note 1, 2
	drum_note 2, 2
	drum_note 1, 1
	drum_note 2, 1
	drum_note 1, 2
	drum_note 2, 2
	drum_note 1, 1
	drum_note 2, 1
	drum_note 1, 2
	drum_note 2, 2
	drum_note 1, 1
	drum_note 2, 1
	drum_note 1, 2
	drum_note 1, 2
	drum_note 1, 2
	drum_note 2, 2
	drum_note 1, 2
	drum_note 1, 2
	drum_note 2, 2
	drum_note 1, 2
	drum_note 2, 2
	drum_note 1, 1
	drum_note 2, 1
	drum_note 1, 2
	drum_note 2, 2
	drum_note 1, 1
	drum_note 2, 1
	drum_note 1, 2
	drum_note 2, 2
	drum_note 1, 1
	drum_note 2, 1
	drum_note 1, 2
	drum_note 1, 2
	drum_note 1, 2
	drum_note 2, 2
	drum_note 1, 2
	drum_note 1, 2
	drum_note 2, 2
	drum_note 1, 2
	rest 16
	drum_note 1, 2
	drum_note 1, 2
	drum_note 1, 2
	drum_note 2, 2
	drum_note 1, 2
	drum_note 1, 2
	drum_note 2, 2
	drum_note 1, 2
	drum_note 2, 2
	drum_note 1, 1
	drum_note 2, 1
	drum_note 1, 2
	drum_note 2, 2
	drum_note 1, 1
	drum_note 2, 1
	drum_note 1, 2
	drum_note 2, 2
	drum_note 1, 1
	drum_note 2, 1
	drum_note 1, 2
	drum_note 1, 2
	drum_note 1, 2
	drum_note 2, 2
	drum_note 1, 2
	drum_note 1, 2
	drum_note 2, 2
	drum_note 1, 2
	rest 16
	rest 16
	rest 16
	rest 16
	rest 16
	sound_loop 0, Music_RocketBossBattle_Ch4_loop
