Music_LegendRed:
	musicheader 4, 1, Music_LegendRed_Ch1
	musicheader 1, 2, Music_LegendRed_Ch2
	musicheader 1, 3, Music_LegendRed_Ch3
	musicheader 1, 4, Music_LegendRed_Ch4

Music_LegendRed_Ch1:
	tempo $74
	volume $77
	stereopanning $77
	vibrato $00, $15
	octave 4
	notetype $C, $A4
	note E_, 2
	intensity $6F
	slidepitchto 1, 3, E_
	note F#, 2
	dutycycle 3
	intensity $A2
	vibrato $00, $22
	octave 2
	note B_, 2
	octave 3
	note E_, 2
	octave 2
	note B_, 2
	octave 3
	note E_, 2
	note __, 2
	note E_, 2
	octave 2
	note B_, 2
	octave 3
	note E_, 2
	note __, 2
	note E_, 2
	note D_, 2
	note E_, 2
	note F_, 2
	note E_, 2
	note D_, 2
	note E_, 2
	octave 2
	note B_, 2
	octave 3
	note E_, 2
	octave 2
	note B_, 2
	octave 3
	note E_, 2
	note __, 2
	note E_, 2
	octave 2
	note B_, 2
	octave 3
	note E_, 2
	note __, 2
	note E_, 2
	note D_, 2
	note E_, 2
	note F_, 2
	note E_, 2
	note D_, 2
	note E_, 2
	octave 2
	note B_, 2
	octave 3
	note E_, 2
	octave 2
	note B_, 2
	octave 3
	note E_, 2
	note __, 2
	note E_, 2
	octave 2
	note B_, 2
	octave 3
	note E_, 2
	note __, 2
	note E_, 2
	note D_, 2
	note E_, 2
	note F_, 2
	note E_, 2
	note D_, 2
	note E_, 2
	octave 2
	note B_, 2
	octave 3
	note E_, 2
	octave 2
	note B_, 2
	octave 3
	note E_, 2
	note __, 2
	note E_, 2
	octave 2
	note B_, 2
	octave 3
	note E_, 2
	note __, 2
	note E_, 2
	note D_, 2
	note E_, 2
	note F_, 2
	note E_, 2
	note D_, 2
	note E_, 2
Music_LegendRed_Ch1_loop:
	vibrato $00, $22
	dutycycle 3
	notetype $C, $B2
	octave 2
	note B_, 1
	note __, 1
	note B_, 1
	note __, 1
	intensity $B7
	octave 3
	note E_, 4
	intensity $B2
	octave 2
	note B_, 1
	note __, 1
	note B_, 1
	note __, 1
	intensity $B7
	octave 3
	note E_, 4
	intensity $B2
	octave 2
	note B_, 1
	note __, 1
	note B_, 1
	note __, 1
	intensity $B7
	octave 3
	note E_, 4
	intensity $B2
	octave 2
	note B_, 1
	note __, 1
	note B_, 1
	note __, 1
	intensity $B7
	octave 3
	note C_, 4
	intensity $B2
	octave 2
	note B_, 1
	note __, 1
	note B_, 1
	note __, 1
	intensity $B7
	octave 3
	note E_, 4
	intensity $B2
	octave 2
	note B_, 1
	note __, 1
	note B_, 1
	note __, 1
	intensity $B7
	octave 3
	note E_, 4
	intensity $B2
	octave 2
	note B_, 1
	note __, 1
	note B_, 1
	note __, 1
	intensity $B7
	octave 3
	note E_, 4
	intensity $B2
	octave 2
	note B_, 1
	note __, 1
	note B_, 1
	note __, 1
	intensity $B7
	octave 3
	note E_, 4
	intensity $B2
	octave 2
	note B_, 1
	note __, 1
	note B_, 1
	note __, 1
	intensity $B7
	octave 3
	note E_, 4
	intensity $B2
	octave 2
	note B_, 1
	note __, 1
	note B_, 1
	note __, 1
	intensity $B7
	octave 3
	note E_, 4
	intensity $B2
	octave 2
	note B_, 1
	note __, 1
	note B_, 1
	note __, 1
	intensity $B7
	octave 3
	note E_, 4
	intensity $B2
	octave 2
	note B_, 1
	note __, 1
	note B_, 1
	note __, 1
	intensity $B7
	octave 3
	note C_, 4
	intensity $B2
	octave 2
	note B_, 1
	note __, 1
	note B_, 1
	note __, 1
	intensity $B7
	octave 3
	note E_, 4
	intensity $B2
	octave 2
	note B_, 1
	note __, 1
	note B_, 1
	note __, 1
	intensity $B7
	octave 3
	note F_, 4
	intensity $B2
	octave 2
	note B_, 1
	note __, 1
	note B_, 1
	note __, 1
	intensity $B7
	octave 3
	note G_, 4
	intensity $B2
	octave 2
	note B_, 1
	note __, 1
	note B_, 1
	note __, 1
	intensity $B7
	octave 3
	note A_, 4
	intensity $54
	note A_, 2
	note __, 14
	intensity $B4
	vibrato $10, $24
	octave 2
	note B_, 6
	intensity $B7
	octave 3
	note E_, 12
	octave 2
	note B_, 2
	intensity $B3
	octave 3
	note C_, 2
	octave 2
	note B_, 2
	intensity $B7
	octave 3
	note F#, 2
	octave 2
	note B_, 2
	octave 3
	note C_, 2
	intensity $B3
	note D_, 2
	intensity $B7
	note A_, 10
	intensity $B4
	octave 2
	note A_, 2
	octave 3
	note E_, 2
	note __, 2
	intensity $B7
	note F_, 12
	intensity $B2
	note D_, 2
	note __, 2
	intensity $78
	octave 4
	note B_, 16
	vibrato $00, $24
	note B_, 16
	intensity $68
	note B_, 16
	note __, 2
	intensity $B2
	vibrato $10, $24
	octave 3
	note A_, 2
	note B_, 2
	octave 4
	note C_, 2
	octave 3
	note B_, 2
	note A_, 2
	note F_, 2
	note A_, 2
	intensity $B4
	octave 2
	note B_, 6
	intensity $B7
	octave 3
	note E_, 12
	octave 2
	note B_, 2
	intensity $B3
	octave 3
	note C_, 2
	octave 2
	note B_, 2
	intensity $B7
	octave 3
	note F#, 2
	note G_, 2
	note F#, 2
	intensity $B3
	octave 2
	note B_, 2
	intensity $B7
	octave 3
	note C#, 6
	note A_, 6
	note C#, 2
	note D_, 1
	note D#, 1
	note E_, 6
	octave 4
	note C_, 6
	octave 3
	note A_, 4
	intensity $78
	octave 4
	note B_, 16
	vibrato $00, $24
	note B_, 10
	intensity $75
	note B_, 6
	intensity $A2
	vibrato $10, $24
	octave 3
	note E_, 2
	note __, 2
	intensity $A4
	note E_, 4
	intensity $A2
	note F_, 2
	note __, 2
	intensity $A4
	note F_, 4
	intensity $A2
	note G_, 2
	note __, 2
	intensity $A4
	note G_, 4
	intensity $A2
	note A_, 2
	note __, 2
	intensity $A4
	note D#, 4
	intensity $B7
	note G_, 8
	note A_, 8
	note B_, 8
	note G_, 8
	note F#, 14
	note __, 2
	intensity $82
	vibrato $00, $22
	note F#, 1
	note __, 1
	note F#, 2
	note C#, 2
	note F#, 1
	note __, 1
	note F#, 1
	note __, 1
	note F#, 2
	note C#, 2
	note G#, 2
	note F_, 1
	note __, 1
	note F_, 2
	note C_, 2
	note F_, 2
	note __, 2
	note F_, 2
	note C_, 2
	note __, 2
	note F_, 1
	note __, 1
	note F_, 2
	note C_, 2
	note F_, 2
	note C_, 2
	octave 2
	note G#, 2
	octave 3
	note C_, 2
	note F_, 2
	note D#, 1
	note __, 1
	note D#, 2
	octave 2
	note A#, 2
	octave 3
	note D#, 2
	note F_, 2
	octave 2
	note A#, 2
	octave 3
	note C#, 2
	octave 2
	note F#, 2
	octave 3
	note D#, 1
	note __, 1
	note D#, 2
	octave 2
	note A#, 2
	octave 3
	note D#, 2
	note F#, 2
	note D#, 2
	note C#, 2
	note G#, 2
	note F#, 2
	note D#, 2
	note C#, 2
	octave 2
	note A_, 2
	octave 3
	note D#, 2
	note C#, 2
	octave 2
	note A_, 2
	note F#, 2
	octave 3
	note C_, 2
	octave 2
	note A_, 2
	octave 3
	note F_, 2
	note C_, 2
	intensity $92
	note A_, 2
	note F_, 2
	note C_, 2
	octave 2
	note A_, 2
	intensity $A4
	vibrato $10, $24
	octave 5
	note C#, 6
	note C_, 10
	octave 4
	note A#, 4
	octave 5
	note C#, 4
	note C_, 4
	octave 4
	note A#, 4
	intensity $A7
	note G#, 16
	intensity $A4
	octave 3
	note G#, 4
	note A#, 4
	octave 4
	note C_, 4
	octave 3
	note G#, 4
	note B_, 6
	intensity $A7
	note G#, 10
	intensity $A4
	note B_, 4
	octave 4
	note F#, 4
	note E_, 4
	note D#, 4
	intensity $A7
	octave 3
	note E_, 8
	note F#, 8
	note E_, 8
	vibrato $00, $22
	note A_, 8
	intensity $78
	vibrato $10, $22
	note B_, 16
	vibrato $00, $22
	note B_, 16
	vibrato $10, $22
	octave 4
	note D_, 16
	vibrato $00, $22
	note D_, 16
	intensity $88
	vibrato $10, $22
	octave 3
	note E_, 16
	octave 4
	note C_, 16
	octave 3
	note B_, 16
	note A_, 16
	loopchannel 0, Music_LegendRed_Ch1_loop

Music_LegendRed_Ch2:
	octave 5
	notetype $C, $00
	note __, 4
	intensity $78
	vibrato $20, $15
	note E_, 16
	vibrato $00, $15
	note E_, 16
	intensity $58
	note E_, 16
	intensity $48
	note E_, 16
	note E_, 16
	note E_, 16
	intensity $43
	note E_, 4
	note __, 4
	intensity $1F
	vibrato $00, $24
	octave 3
	note A_, 12
	intensity $A8
	note A_, 12
Music_LegendRed_Ch2_loop:
	dutycycle 3
	notetype $C, $C2
	vibrato $10, $24
	octave 3
	note E_, 1
	note __, 1
	note E_, 1
	note __, 1
	intensity $C7
	note B_, 4
	intensity $C2
	note E_, 1
	note __, 1
	note E_, 1
	note __, 1
	intensity $C7
	octave 4
	note C_, 4
	intensity $C2
	octave 3
	note E_, 1
	note __, 1
	note E_, 1
	note __, 1
	intensity $C7
	note B_, 4
	intensity $C2
	note E_, 1
	note __, 1
	note E_, 1
	note __, 1
	intensity $C7
	note A_, 4
	intensity $C2
	note E_, 1
	note __, 1
	note E_, 1
	note __, 1
	intensity $C7
	note B_, 4
	intensity $C2
	note E_, 1
	note __, 1
	note E_, 1
	note __, 1
	intensity $C7
	octave 4
	note C_, 4
	intensity $C2
	octave 3
	note E_, 1
	note __, 1
	note E_, 1
	note __, 1
	intensity $C7
	note B_, 4
	intensity $C2
	note E_, 1
	note __, 1
	note E_, 1
	note __, 1
	intensity $C7
	note A_, 2
	octave 4
	note C#, 1
	note D_, 1
	intensity $C2
	note E_, 1
	note __, 1
	note E_, 1
	note __, 1
	intensity $C7
	note B_, 4
	intensity $C2
	note E_, 1
	note __, 1
	note E_, 1
	note __, 1
	intensity $C7
	octave 5
	note C_, 4
	intensity $C2
	octave 4
	note E_, 1
	note __, 1
	note E_, 1
	note __, 1
	intensity $C7
	note B_, 4
	intensity $C2
	note E_, 1
	note __, 1
	note E_, 1
	note __, 1
	intensity $C7
	note D#, 4
	intensity $C2
	note E_, 1
	note __, 1
	note E_, 1
	note __, 1
	intensity $C7
	note B_, 4
	intensity $C2
	note E_, 1
	note __, 1
	note E_, 1
	note __, 1
	intensity $C7
	octave 5
	note C_, 4
	intensity $C2
	octave 4
	note E_, 1
	note __, 1
	note E_, 1
	note __, 1
	intensity $C7
	octave 5
	note C#, 4
	intensity $C2
	octave 4
	note E_, 1
	note __, 1
	note E_, 1
	note __, 1
	intensity $C7
	octave 5
	note D_, 4
	intensity $54
	note D_, 2
	note __, 14
	intensity $C4
	octave 4
	note B_, 6
	intensity $C7
	note E_, 10
	note __, 2
	intensity $B7
	note E_, 2
	note F#, 2
	note G_, 2
	note B_, 2
	note A#, 2
	note B_, 2
	intensity $C4
	octave 5
	note D_, 2
	intensity $C7
	note C#, 16
	note C_, 16
	dutycycle 0
	intensity $B5
	vibrato $10, $33
	octave 3
	note G_, 4
	notetype $8, $C2
	note E_, 2
	note F#, 2
	note G_, 2
	note A_, 2
	note G_, 2
	note A_, 2
	note B_, 2
	note A_, 2
	octave 4
	note D_, 2
	intensity $D7
	note C#, 9
	notetype $C, $C7
	note D_, 1
	note D#, 1
	note E_, 4
	octave 3
	note A#, 4
	intensity $C8
	note B_, 14
	intensity $C2
	note B_, 2
	note __, 2
	dutycycle 1
	intensity $5C
	vibrato $10, $24
	octave 4
	note A_, 2
	intensity $B2
	note B_, 2
	intensity $5C
	octave 5
	note C_, 2
	intensity $B2
	octave 4
	note B_, 2
	intensity $5C
	note A_, 2
	intensity $B2
	note F_, 2
	intensity $5C
	note A_, 2
	intensity $C4
	note B_, 6
	intensity $C7
	note E_, 10
	note __, 2
	intensity $C3
	note E_, 2
	note F#, 2
	note G_, 2
	intensity $C7
	note B_, 2
	note A#, 2
	note B_, 2
	intensity $C3
	octave 5
	note D_, 2
	intensity $C7
	note C#, 14
	intensity $C2
	note D_, 1
	note D#, 1
	intensity $C8
	note E_, 8
	intensity $C4
	note E_, 4
	dutycycle 0
	vibrato $10, $33
	octave 4
	notetype $8, $C2
	note C_, 2
	note D_, 2
	note D#, 2
	note E_, 2
	octave 3
	note B_, 2
	octave 4
	note E_, 2
	note D_, 2
	octave 3
	note B_, 2
	octave 4
	note D_, 2
	note C#, 2
	octave 3
	note A_, 2
	octave 4
	note C#, 2
	note C_, 2
	octave 3
	note A_, 2
	octave 4
	note C_, 2
	intensity $D7
	octave 3
	note B_, 9
	octave 4
	notetype $C, $D7
	note D_, 1
	note D#, 1
	note E_, 8
	intensity $B8
	vibrato $00, $35
	octave 3
	note G_, 4
	intensity $B4
	note G_, 4
	intensity $B8
	note B_, 4
	octave 4
	note D_, 4
	intensity $D7
	note C_, 6
	intensity $C3
	note D_, 1
	note D#, 1
	intensity $D7
	note E_, 8
	dutycycle 3
	intensity $C7
	vibrato $10, $24
	note E_, 8
	note D#, 8
	note D_, 8
	octave 3
	note B_, 8
	dutycycle 0
	intensity $C4
	vibrato $10, $33
	octave 4
	note F_, 6
	octave 3
	note A#, 5
	note __, 1
	intensity $C2
	note A#, 1
	note A_, 1
	note A#, 1
	octave 4
	note C_, 1
	intensity $C4
	note C#, 4
	note F_, 4
	note D#, 4
	note C#, 4
	intensity $D7
	note D#, 8
	note G#, 8
	intensity $C8
	note C_, 8
	intensity $C4
	note C_, 4
	note __, 4
	note C#, 6
	octave 3
	note A#, 5
	note __, 1
	intensity $C2
	note A#, 1
	note A_, 1
	note A#, 1
	octave 4
	note C_, 1
	intensity $C4
	note C#, 4
	note F_, 4
	note D#, 4
	note C#, 4
	intensity $D7
	note D#, 8
	note C_, 8
	octave 3
	note A_, 8
	octave 4
	note C_, 8
	intensity $C4
	note F_, 6
	octave 3
	note A#, 5
	note __, 1
	intensity $C2
	note A#, 1
	note A_, 1
	note A#, 1
	octave 4
	note C_, 1
	intensity $C4
	note C#, 4
	note F_, 4
	note D#, 4
	note C#, 4
	intensity $D7
	note D#, 8
	note G#, 8
	intensity $C8
	note C_, 8
	intensity $C4
	note C_, 4
	note __, 4
	note D#, 6
	octave 3
	note G#, 5
	note __, 1
	intensity $C2
	note G#, 1
	note G_, 1
	note G#, 1
	note A#, 1
	intensity $C4
	note B_, 4
	octave 4
	note D#, 4
	note C#, 4
	octave 3
	note B_, 4
	intensity $D7
	octave 4
	note C#, 8
	note E_, 8
	octave 3
	note B_, 8
	octave 4
	note D#, 8
	intensity $C5
	vibrato $00, $24
	note E_, 2
	note D_, 2
	note E_, 2
	note G_, 4
	note E_, 2
	note G_, 2
	note A_, 2
	note B_, 2
	note E_, 2
	notetype $6, $88
	note B_, 1
	intensity $C5
	octave 5
	note C_, 3
	octave 4
	note B_, 4
	note A_, 4
	note B_, 4
	note G_, 4
	note F_, 4
	note E_, 4
	note D_, 4
	note E_, 4
	note G_, 8
	note E_, 4
	note G_, 4
	note A_, 4
	note B_, 4
	note E_, 4
	intensity $88
	note B_, 1
	intensity $C5
	octave 5
	note C_, 3
	octave 4
	note B_, 4
	note A_, 4
	note B_, 4
	note G_, 4
	note F_, 4
	note E_, 4
	note D_, 4
	note E_, 4
	note G_, 8
	note E_, 4
	note G_, 4
	note A_, 4
	note B_, 4
	note E_, 4
	intensity $88
	note B_, 1
	intensity $C5
	octave 5
	note C_, 3
	octave 4
	note B_, 4
	note A_, 4
	note B_, 4
	note G_, 4
	note F_, 4
	note E_, 4
	note D_, 4
	note E_, 4
	note G_, 8
	note E_, 4
	note G_, 4
	note A_, 4
	note B_, 4
	note E_, 4
	intensity $88
	note B_, 1
	intensity $C5
	octave 5
	note C_, 3
	octave 4
	note B_, 4
	note A_, 4
	note B_, 4
	note G_, 4
	note F_, 4
	loopchannel 0, Music_LegendRed_Ch2_loop

Music_LegendRed_Ch3:
	octave 3
	notetype $C, $00
	note __, 4
	dutycycle 4
	intensity $14
	note E_, 16
	note E_, 14
	note __, 2
	octave 4
	note E_, 4
	note __, 2
	note E_, 14
	note E_, 8
	note __, 4
	octave 3
	note E_, 4
	note __, 2
	octave 4
	note D_, 4
	note __, 2
	octave 3
	note B_, 2
	note A_, 2
	note __, 2
	note A_, 2
	note B_, 2
	octave 4
	note C_, 2
	note __, 2
	octave 3
	note G_, 4
	note F_, 2
	note E_, 4
	note __, 2
	octave 4
	note E_, 4
	note __, 2
	note D_, 4
	note __, 2
	octave 3
	note G_, 2
	note A_, 2
	note G_, 8
	note __, 2
Music_LegendRed_Ch3_loop:
	notetype $C, $14
	octave 3
	note E_, 1
	note __, 1
	note E_, 1
	note __, 1
	octave 4
	note D_, 2
	note E_, 2
	octave 3
	note E_, 1
	note __, 1
	note E_, 1
	note __, 1
	octave 4
	note C_, 2
	note E_, 2
	octave 3
	note E_, 1
	note __, 1
	note E_, 1
	note __, 1
	note B_, 2
	octave 4
	note E_, 2
	octave 3
	note E_, 1
	note __, 1
	note E_, 1
	note __, 1
	note D#, 2
	note G_, 2
	note E_, 1
	note __, 1
	note E_, 1
	note __, 1
	note B_, 2
	octave 4
	note E_, 2
	octave 3
	note E_, 1
	note __, 1
	note E_, 1
	note __, 1
	octave 4
	note C_, 2
	note E_, 2
	octave 3
	note E_, 1
	note __, 1
	note E_, 1
	note __, 1
	note B_, 2
	octave 4
	note E_, 2
	octave 3
	note E_, 1
	note __, 1
	note E_, 1
	note __, 1
	note A_, 2
	note B_, 2
	note E_, 1
	note __, 1
	note E_, 1
	note __, 1
	octave 4
	note D_, 2
	note E_, 2
	octave 3
	note E_, 1
	note __, 1
	note E_, 1
	note __, 1
	octave 4
	note C_, 2
	note E_, 2
	octave 3
	note E_, 1
	note __, 1
	note E_, 1
	note __, 1
	note B_, 2
	octave 4
	note E_, 2
	octave 3
	note E_, 1
	note __, 1
	note E_, 1
	note __, 1
	note D#, 2
	note G_, 2
	note E_, 1
	note __, 1
	note E_, 1
	note __, 1
	note B_, 2
	octave 4
	note E_, 2
	octave 3
	note E_, 1
	note __, 1
	note E_, 1
	note __, 1
	note A#, 2
	octave 4
	note D#, 2
	octave 3
	note E_, 1
	note __, 1
	note E_, 1
	note __, 1
	note A_, 2
	octave 4
	note D_, 2
	octave 3
	note E_, 1
	note __, 1
	note E_, 1
	note __, 1
	note A_, 2
	note __, 2
	dutycycle 6
	intensity $36
	octave 6
	note C_, 1
	octave 5
	note G#, 1
	note B_, 1
	note F#, 1
	note A_, 1
	note E_, 1
	note G_, 1
	octave 6
	note C_, 1
	octave 5
	note F_, 1
	note C#, 1
	note E_, 1
	note C_, 1
	note D#, 1
	octave 4
	note B_, 1
	octave 5
	note D_, 1
	octave 6
	note C_, 1
	dutycycle 4
	intensity $14
	octave 3
	note E_, 2
	note B_, 2
	note E_, 2
	note B_, 2
	note E_, 2
	note B_, 2
	note E_, 2
	note B_, 2
	note E_, 2
	note B_, 2
	note E_, 2
	note B_, 2
	note E_, 2
	note B_, 2
	note E_, 2
	note B_, 2
	note C#, 2
	note A_, 2
	note C#, 2
	note A_, 2
	note C#, 2
	note A_, 2
	note C#, 2
	note A_, 2
	note F_, 2
	octave 4
	note C_, 2
	octave 3
	note F_, 2
	octave 4
	note C_, 2
	octave 3
	note F_, 2
	octave 4
	note C_, 2
	octave 3
	note F_, 2
	octave 4
	note C_, 2
	octave 3
	note E_, 2
	note B_, 2
	note E_, 2
	note B_, 2
	note E_, 2
	note B_, 2
	note E_, 2
	note B_, 2
	note E_, 2
	note B_, 2
	note E_, 2
	note B_, 2
	note E_, 2
	note B_, 2
	note E_, 2
	note B_, 2
	note E_, 2
	note B_, 2
	note E_, 2
	note B_, 2
	note E_, 2
	note B_, 2
	note E_, 2
	note B_, 2
	note __, 2
	note A_, 1
	note __, 3
	note A_, 1
	note __, 3
	note A_, 1
	note __, 1
	note A_, 1
	note __, 1
	note A_, 1
	note __, 1
	note E_, 2
	note B_, 2
	note E_, 2
	note B_, 2
	note E_, 2
	note B_, 2
	note E_, 2
	note B_, 2
	note E_, 2
	note B_, 2
	note E_, 2
	note B_, 2
	note E_, 2
	note B_, 2
	note E_, 2
	note B_, 2
	note C#, 2
	note A_, 2
	note C#, 2
	note A_, 2
	note C#, 2
	note A_, 2
	note C#, 2
	note A_, 2
	note F_, 2
	octave 4
	note C_, 2
	octave 3
	note F_, 2
	octave 4
	note C_, 2
	octave 3
	note F_, 2
	octave 4
	note C_, 2
	octave 3
	note F_, 2
	octave 4
	note C_, 2
	octave 3
	note E_, 2
	note B_, 2
	note E_, 2
	note B_, 2
	note E_, 2
	note B_, 2
	note E_, 2
	note B_, 2
	note E_, 2
	note B_, 2
	note E_, 2
	note B_, 2
	note E_, 2
	note B_, 2
	note E_, 2
	note B_, 2
	note E_, 2
	note B_, 2
	note E_, 2
	note B_, 2
	note E_, 2
	note B_, 2
	note E_, 2
	note B_, 2
	note F_, 2
	note A_, 2
	note F_, 2
	octave 4
	note C_, 2
	octave 3
	note A_, 2
	note G_, 2
	note F_, 2
	note D#, 2
	note E_, 4
	octave 2
	note E_, 2
	octave 3
	note F#, 2
	note D#, 4
	octave 2
	note D#, 2
	octave 3
	note F_, 2
	note D_, 4
	octave 2
	note D_, 2
	octave 3
	note E_, 2
	octave 2
	note B_, 4
	note G_, 2
	octave 3
	note G_, 2
	note F#, 1
	note __, 1
	note F#, 2
	note C#, 2
	note F#, 2
	note __, 8
	note F#, 1
	note __, 1
	note F#, 2
	note C#, 2
	note F#, 2
	octave 2
	note A#, 2
	note G#, 2
	note F#, 2
	note G#, 2
	octave 3
	note F_, 1
	note __, 1
	note F_, 2
	note C_, 2
	note F_, 2
	note __, 8
	note F_, 1
	note __, 1
	note F_, 2
	note C_, 2
	note F_, 2
	note G#, 2
	note F_, 2
	note C_, 2
	octave 2
	note G#, 2
	octave 3
	note D#, 1
	note __, 1
	note D#, 2
	octave 2
	note A#, 2
	octave 3
	note D#, 2
	note __, 8
	note D#, 1
	note __, 1
	note D#, 2
	octave 2
	note A#, 2
	octave 3
	note D#, 2
	note D#, 2
	note F_, 2
	note C#, 2
	octave 2
	note G_, 2
	octave 3
	note F#, 1
	note __, 1
	note F#, 2
	note C#, 2
	note F#, 2
	note __, 8
	note F_, 1
	note __, 1
	note F_, 2
	note C_, 2
	note F_, 2
	note __, 2
	note F_, 2
	note A_, 2
	note F#, 2
	note F#, 1
	note __, 1
	note F#, 2
	note C#, 2
	note F#, 2
	note __, 2
	note F#, 2
	note C#, 2
	note F#, 1
	note __, 1
	note F#, 1
	note __, 1
	note F#, 2
	note C#, 2
	note F#, 2
	note __, 2
	note F#, 2
	note A#, 2
	note F#, 2
	note F_, 1
	note __, 1
	note F_, 2
	note C_, 2
	note F_, 2
	note __, 2
	note F_, 2
	note C_, 2
	note F_, 1
	note __, 1
	note F_, 1
	note __, 1
	note F_, 2
	note C_, 2
	note F_, 2
	note __, 2
	note F_, 2
	note G#, 2
	note F_, 2
	note E_, 1
	note __, 1
	note E_, 2
	octave 2
	note B_, 2
	octave 3
	note E_, 2
	note __, 2
	note E_, 2
	octave 2
	note B_, 2
	octave 3
	note E_, 1
	note __, 1
	note E_, 1
	note __, 1
	note E_, 2
	octave 2
	note B_, 2
	octave 3
	note E_, 2
	note G#, 2
	note E_, 2
	note C#, 2
	octave 2
	note A_, 2
	octave 3
	note A_, 1
	note __, 1
	note A_, 2
	note E_, 2
	note A_, 2
	note __, 2
	note A_, 2
	note E_, 2
	note A_, 2
	octave 2
	note A_, 2
	note B_, 2
	octave 3
	note C#, 2
	note E_, 2
	note D_, 2
	octave 2
	note B_, 2
	octave 3
	note F#, 2
	note A_, 2
	note E_, 2
	note B_, 2
	note E_, 2
	note B_, 4
	note E_, 2
	note A_, 2
	note E_, 2
	note E_, 2
	note B_, 2
	note E_, 2
	octave 4
	note C_, 2
	octave 3
	note G_, 2
	note A_, 2
	note G_, 2
	note F_, 2
	note E_, 2
	note B_, 2
	note E_, 2
	note B_, 4
	note E_, 2
	note A_, 2
	note E_, 2
	note E_, 2
	note B_, 2
	note E_, 2
	octave 4
	note C_, 2
	octave 3
	note A_, 2
	note B_, 2
	octave 4
	note C_, 2
	octave 3
	note G_, 2
	note E_, 2
	note B_, 2
	note E_, 2
	note B_, 4
	note E_, 2
	note A_, 2
	note E_, 2
	note E_, 2
	note B_, 2
	note E_, 2
	octave 4
	note C_, 2
	octave 3
	note G_, 2
	note A_, 2
	note G_, 2
	note F_, 2
	note E_, 2
	note B_, 2
	note E_, 2
	note B_, 4
	note E_, 2
	note A_, 2
	note E_, 2
	note E_, 2
	note B_, 2
	note E_, 2
	note A_, 2
	note D_, 2
	note E_, 2
	note F_, 2
	note G_, 2
	loopchannel 0, Music_LegendRed_Ch3_loop

Music_LegendRed_Ch4:
	notetype $C
	note __, 4
	togglenoise 2
	note G_, 1
	note __, 15
	note D_, 1
	note __, 2
	note D#, 1
	note D_, 1
	note __, 5
	note F#, 1
	note __, 6
	note G_, 1
	note G_, 1
	note G_, 1
	note G_, 1
	note __, 1
	note F#, 1
	note __, 3
	note D_, 1
	note __, 3
	note D_, 1
	note D#, 1
	note __, 6
	note G_, 1
	note __, 3
	note G_, 1
	note __, 1
	note D#, 1
	note D_, 1
	note D#, 1
	note __, 1
	note D_, 1
	note __, 2
	note D_, 1
	note D#, 1
	note __, 1
	note F#, 1
	note __, 1
	note D_, 1
	note __, 1
	note F#, 1
	note __, 1
	note D#, 1
	note __, 1
	note F#, 1
	note D_, 1
	note __, 2
	note D_, 1
	note D#, 1
	note D_, 1
	note __, 1
	note F#, 1
	note __, 1
	note D#, 1
	note __, 1
	note D_, 1
	note __, 1
	note G_, 1
	note __, 3
	note D_, 1
	note __, 2
	note D_, 1
	note D#, 1
	note __, 1
	note F#, 1
	note __, 1
	note D_, 1
	note __, 1
	note F#, 1
	note __, 1
	note D#, 1
	note __, 1
	note F#, 1
	note D_, 1
	note __, 2
	note D_, 1
	note D#, 1
	note D_, 1
	note __, 1
	note F#, 1
	note __, 1
	note D#, 1
	note __, 1
	note E_, 1
	note __, 5
Music_LegendRed_Ch4_loop:
	notetype $C
	note B_, 1
	note __, 1
	note D#, 1
	note __, 1
	note C#, 1
	note __, 2
	note D#, 1
	note B_, 1
	note __, 1
	note D#, 1
	note __, 1
	note C#, 1
	note __, 2
	note D#, 1
	note B_, 1
	note __, 1
	note D#, 1
	note __, 1
	note C#, 1
	note __, 2
	note D#, 1
	note B_, 1
	note __, 1
	note D#, 1
	note __, 1
	note C#, 1
	note __, 1
	note B_, 1
	note D#, 1
	note B_, 1
	note __, 1
	note D#, 1
	note __, 1
	note C#, 1
	note __, 2
	note D#, 1
	note B_, 1
	note __, 1
	note D#, 1
	note __, 1
	note C#, 1
	note __, 2
	note D#, 1
	note B_, 1
	note __, 1
	note D#, 1
	note __, 1
	note C#, 1
	note __, 2
	note D#, 1
	note B_, 1
	note __, 1
	note D#, 1
	note __, 1
	note C#, 1
	note __, 1
	note B_, 1
	note D#, 1
	note B_, 1
	note __, 1
	note D#, 1
	note __, 1
	note C#, 1
	note __, 2
	note D#, 1
	note B_, 1
	note __, 1
	note D#, 1
	note __, 1
	note C#, 1
	note __, 2
	note D#, 1
	note B_, 1
	note __, 1
	note D#, 1
	note __, 1
	note C#, 1
	note __, 2
	note D#, 1
	note B_, 1
	note __, 1
	note D#, 1
	note __, 1
	note C#, 1
	note __, 1
	note B_, 1
	note D#, 1
	note B_, 1
	note __, 1
	note D#, 1
	note __, 1
	note C#, 1
	note __, 2
	note D#, 1
	note B_, 1
	note __, 1
	note D#, 1
	note __, 1
	note C#, 1
	note __, 2
	note D#, 1
	note B_, 1
	note __, 1
	note D#, 1
	note __, 1
	note C#, 1
	note __, 2
	note D#, 1
	note B_, 1
	note __, 1
	note D#, 1
	note __, 1
	note C#, 1
	note __, 1
	note B_, 1
	note D#, 1
	note __, 4
	note C#, 1
	note __, 1
	note C_, 1
	note __, 1
	note C#, 1
	note C_, 1
	note C#, 1
	note G_, 1
	note A_, 1
	note __, 1
	note G_, 1
	note B_, 1
	note A_, 1
	note __, 1
	note G_, 1
	note __, 1
	note D_, 1
	note __, 1
	note G_, 1
	note __, 1
	note D#, 1
	note __, 1
	note G_, 1
	note __, 1
	note D_, 1
	note __, 1
	note G_, 1
	note __, 1
	note D#, 1
	note __, 1
	note G_, 1
	note __, 1
	note D_, 1
	note __, 1
	note G_, 1
	note __, 1
	note D#, 1
	note __, 1
	note G_, 1
	note __, 1
	note D_, 1
	note __, 1
	note G_, 1
	note __, 1
	note D#, 1
	note __, 1
	note G_, 1
	note __, 1
	note D_, 1
	note __, 1
	note G_, 1
	note __, 1
	note D#, 1
	note __, 1
	note G_, 1
	note __, 1
	note D_, 1
	note __, 1
	note G_, 1
	note __, 1
	note D#, 1
	note __, 1
	note G_, 1
	note __, 1
	note D_, 1
	note __, 1
	note G_, 1
	note __, 1
	note D#, 1
	note __, 1
	note G_, 1
	note __, 1
	note D_, 1
	note __, 1
	note G_, 1
	note __, 1
	note D#, 1
	note __, 1
	note G_, 1
	note __, 1
	note D_, 1
	note __, 1
	note G_, 1
	note __, 1
	note D#, 1
	note __, 1
	note G_, 1
	note __, 1
	note D_, 1
	note __, 1
	note G_, 1
	note __, 1
	note D#, 1
	note __, 1
	note G_, 1
	note __, 1
	note D_, 1
	note __, 1
	note G_, 1
	note __, 1
	note D#, 1
	note __, 1
	note G_, 1
	note __, 1
	note D_, 1
	note __, 1
	note G_, 1
	note __, 1
	note D#, 1
	note __, 1
	note G_, 1
	note __, 1
	note D_, 1
	note __, 1
	note G_, 1
	note __, 1
	note D#, 1
	note __, 1
	note E_, 1
	note __, 7
	note G#, 1
	note __, 3
	note G#, 1
	note __, 3
	note G#, 1
	note __, 1
	note A#, 1
	note __, 1
	note A#, 1
	note __, 1
	note C_, 1
	note __, 1
	note G_, 1
	note __, 1
	note A_, 1
	note __, 1
	note G_, 1
	note __, 1
	note C#, 1
	note __, 1
	note G_, 1
	note D_, 1
	note A_, 1
	note __, 1
	note C#, 1
	note __, 1
	note C#, 1
	note __, 1
	note G_, 1
	note D#, 1
	note A_, 1
	note __, 1
	note G_, 1
	note __, 1
	note C#, 1
	note __, 1
	note G_, 1
	note D_, 1
	note A_, 1
	note __, 1
	note C#, 1
	note __, 1
	note C#, 1
	note __, 1
	note G_, 1
	note __, 1
	note A_, 1
	note __, 1
	note G_, 1
	note __, 1
	note C#, 1
	note __, 1
	note G_, 1
	note D_, 1
	note A_, 1
	note __, 1
	note C#, 1
	note __, 1
	note C#, 1
	note __, 1
	note G_, 1
	note D#, 1
	note A_, 1
	note __, 1
	note G_, 1
	note __, 1
	note C#, 1
	note __, 1
	note G_, 1
	note D_, 1
	note A_, 1
	note __, 1
	note C#, 1
	note __, 1
	note C#, 1
	note __, 1
	note G_, 1
	note __, 1
	note A_, 1
	note __, 1
	note G_, 1
	note __, 1
	note C#, 1
	note __, 1
	note G_, 1
	note D_, 1
	note A_, 1
	note __, 1
	note C#, 1
	note __, 1
	note C#, 1
	note __, 1
	note G_, 1
	note D#, 1
	note A_, 1
	note __, 1
	note G_, 1
	note __, 1
	note C#, 1
	note __, 1
	note G_, 1
	note D_, 1
	note A_, 1
	note __, 1
	note C#, 1
	note __, 1
	note C#, 1
	note __, 1
	note G_, 1
	note __, 1
	note A_, 1
	note __, 1
	note G_, 1
	note __, 1
	note C#, 1
	note __, 1
	note G_, 1
	note D_, 1
	note A_, 1
	note __, 1
	note C#, 1
	note __, 1
	note C#, 1
	note __, 1
	note G_, 1
	note D#, 1
	note A_, 1
	note __, 1
	note G_, 1
	note __, 1
	note C#, 1
	note __, 1
	note G_, 1
	note D_, 1
	note A_, 1
	note __, 1
	note C#, 1
	note D_, 1
	note C#, 1
	note __, 7
	note C#, 1
	note __, 7
	note C#, 1
	note __, 3
	note C#, 1
	note __, 1
	note C_, 1
	note __, 1
	note C#, 1
	note C_, 1
	note C#, 1
	note G_, 1
	note A_, 1
	note __, 1
	note G_, 1
	note B_, 1
	note G#, 1
	note __, 1
	note D#, 1
	note B_, 1
	note D#, 1
	note B_, 1
	note G#, 1
	note __, 1
	note D#, 1
	note B_, 1
	note D#, 1
	note __, 5
	note G#, 1
	note __, 1
	note D#, 1
	note B_, 1
	note D#, 1
	note B_, 1
	note G#, 1
	note __, 1
	note D#, 1
	note B_, 1
	note D#, 1
	note __, 3
	note D#, 1
	note __, 1
	note G#, 1
	note __, 1
	note D#, 1
	note B_, 1
	note D#, 1
	note B_, 1
	note G#, 1
	note __, 1
	note D#, 1
	note B_, 1
	note D#, 1
	note __, 5
	note G#, 1
	note __, 1
	note D#, 1
	note B_, 1
	note D#, 1
	note B_, 1
	note G#, 1
	note __, 1
	note D#, 1
	note B_, 1
	note D#, 1
	note __, 1
	note B_, 1
	note __, 1
	note D#, 1
	note __, 1
	note G#, 1
	note __, 1
	note D#, 1
	note B_, 1
	note D#, 1
	note B_, 1
	note G#, 1
	note __, 1
	note D#, 1
	note B_, 1
	note D#, 1
	note __, 5
	note G#, 1
	note __, 1
	note D#, 1
	note B_, 1
	note D#, 1
	note B_, 1
	note G#, 1
	note __, 1
	note D#, 1
	note B_, 1
	note D#, 1
	note __, 3
	note D#, 1
	note __, 1
	note G#, 1
	note __, 1
	note D#, 1
	note B_, 1
	note D#, 1
	note B_, 1
	note G#, 1
	note __, 1
	note D#, 1
	note B_, 1
	note D#, 1
	note __, 5
	note G#, 1
	note __, 1
	note D#, 1
	note B_, 1
	note D#, 1
	note B_, 1
	note G#, 1
	note __, 1
	note D#, 1
	note B_, 1
	note D#, 1
	note __, 1
	note A#, 1
	note D#, 1
	note B_, 1
	note D#, 1
	note A#, 1
	note __, 1
	note C#, 1
	note D_, 1
	note A_, 1
	note __, 1
	note G_, 1
	note __, 1
	note D#, 1
	note D_, 1
	note G_, 1
	note D_, 1
	note A_, 1
	note __, 1
	note G_, 1
	note __, 1
	note G_, 1
	note __, 1
	note C#, 1
	note D_, 1
	note A_, 1
	note __, 1
	note G_, 1
	note __, 1
	note D#, 1
	note D_, 1
	note G_, 1
	note D_, 1
	note A_, 1
	note __, 1
	note G_, 1
	note __, 1
	note G_, 1
	note __, 1
	note C#, 1
	note D_, 1
	note A_, 1
	note __, 1
	note G_, 1
	note __, 1
	note D#, 1
	note D_, 1
	note G_, 1
	note D_, 1
	note A_, 1
	note __, 1
	note G_, 1
	note __, 1
	note G_, 1
	note __, 1
	note C#, 1
	note D_, 1
	note A_, 1
	note __, 1
	note G_, 1
	note __, 1
	note D#, 1
	note D_, 1
	note G_, 1
	note D_, 1
	note A_, 1
	note __, 1
	note G_, 1
	note __, 1
	note G_, 1
	note __, 1
	note C#, 1
	note D_, 1
	note A_, 1
	note __, 1
	note G_, 1
	note __, 1
	note D#, 1
	note D_, 1
	note G_, 1
	note D_, 1
	note A_, 1
	note __, 1
	note G_, 1
	note __, 1
	note G_, 1
	note __, 1
	note C#, 1
	note D_, 1
	note A_, 1
	note __, 1
	note G_, 1
	note __, 1
	note D#, 1
	note D_, 1
	note G_, 1
	note D_, 1
	note A_, 1
	note __, 1
	note G_, 1
	note __, 1
	note G_, 1
	note __, 1
	note C#, 1
	note D_, 1
	note A_, 1
	note __, 1
	note G_, 1
	note __, 1
	note D#, 1
	note D_, 1
	note G_, 1
	note D_, 1
	note A_, 1
	note __, 1
	note G_, 1
	note __, 1
	note G_, 1
	note __, 1
	note C#, 1
	note D_, 1
	note A_, 1
	note __, 1
	note G_, 1
	note __, 1
	note D#, 1
	note D_, 1
	note G_, 1
	note D_, 1
	note A_, 1
	note D#, 1
	note C#, 1
	note D#, 1
	note A_, 1
	note __, 1
	note G_, 1
	note __, 1
	note A_, 1
	note __, 1
	note G_, 1
	note __, 1
	note C#, 1
	note __, 1
	note G_, 1
	note D_, 1
	note A_, 1
	note __, 1
	note C#, 1
	note __, 1
	note D_, 1
	note __, 1
	note G_, 1
	note __, 1
	note A_, 1
	note __, 1
	note G_, 1
	note __, 1
	note D_, 1
	note __, 1
	note D#, 1
	note __, 1
	note A_, 1
	note __, 1
	note G_, 1
	note __, 1
	note D_, 1
	note __, 1
	note G_, 1
	note __, 1
	note A_, 1
	note __, 1
	note G_, 1
	note __, 1
	note C#, 1
	note __, 1
	note G_, 1
	note D_, 1
	note A_, 1
	note __, 1
	note C#, 1
	note __, 1
	note D_, 1
	note __, 1
	note G_, 1
	note __, 1
	note A_, 1
	note __, 1
	note G_, 1
	note __, 1
	note D_, 1
	note __, 1
	note D#, 1
	note __, 1
	note A_, 1
	note __, 1
	note G_, 1
	note __, 1
	note D_, 1
	note __, 1
	note G_, 1
	note __, 1
	note A_, 1
	note __, 1
	note G_, 1
	note __, 1
	note C#, 1
	note __, 1
	note G_, 1
	note D_, 1
	note A_, 1
	note __, 1
	note C#, 1
	note __, 1
	note D_, 1
	note __, 1
	note G_, 1
	note __, 1
	note A_, 1
	note __, 1
	note G_, 1
	note __, 1
	note D_, 1
	note __, 1
	note D#, 1
	note __, 1
	note A_, 1
	note __, 1
	note G_, 1
	note __, 1
	note D_, 1
	note __, 1
	note G_, 1
	note __, 1
	note A_, 1
	note __, 1
	note G_, 1
	note __, 1
	note C#, 1
	note __, 1
	note G_, 1
	note D_, 1
	note A_, 1
	note __, 1
	note C#, 1
	note __, 1
	note D_, 1
	note __, 1
	note G_, 1
	note __, 1
	note A_, 1
	note __, 1
	note G_, 1
	note __, 1
	note D_, 1
	note __, 1
	note D#, 1
	note __, 1
	note E_, 1
	note __, 3
	loopchannel 0, Music_LegendRed_Ch4_loop

