Music_StarterOrangeRouteNight:
	channel_count 3
	channel 1, Music_StarterOrangeRouteNight_Ch1
	channel 2, Music_StarterOrangeRouteNight_Ch2
	channel 3, Music_StarterOrangeRouteNight_Ch3

Music_StarterOrangeRouteNight_Ch1:
	tempo 169
	volume $77
	stereopanning $f
	dutycycle 2
	tone $0001
	octave 2
	notetype $C, $82
	note E_, 1
	note __, 1
	note G_, 1
	note __, 1
	intensity $84
	octave 3
	note C_, 2
	intensity $82
	octave 2
	note G_, 1
	note __, 1
	note E_, 1
	note __, 1
	note G_, 1
	note __, 1
	note D_, 1
	note __, 1
	note G_, 1
	note __, 1
	note E_, 1
	note __, 1
	note G_, 1
	note __, 1
	intensity $84
	octave 3
	note C_, 2
	intensity $82
	octave 2
	note G_, 1
	note __, 1
	note E_, 1
	note __, 1
	note G_, 1
	note __, 1
	note D_, 1
	note __, 1
	note G_, 1
	note __, 1
	note E_, 1
	note __, 1
	sound_loop 0, Music_StarterOrangeRoute_Ch1_loop

Music_StarterOrangeRouteNight_Ch2:
	dutycycle 2
	tone $0002
	octave 3
	notetype $C, $B4
	note C_, 2
	octave 2
	note G_, 1
	octave 3
	note E_, 2
	note __, 1
	note D_, 2
	note __, 2
	note D_, 2
	octave 2
	note A#, 2
	octave 3
	note D_, 2
	note C_, 2
	octave 2
	note G_, 1
	octave 3
	note E_, 2
	note __, 1
	note D_, 2
	note __, 2
	note D_, 2
	note E_, 2
	note F_, 2
	note C_, 2
	sound_loop 0, Music_StarterOrangeRoute_Ch2_loop

Music_StarterOrangeRouteNight_Ch3:
	sound_loop 0, Music_StarterOrangeRoute_Ch3_loop
